{"glyphs":{"0":{"ha":764,"x_min":61,"x_max":714,"o":"m 467 626 q 644 561 574 626 q 714 390 714 496 q 589 110 714 238 q 306 -18 464 -18 q 131 50 200 -18 q 61 226 61 118 q 184 503 61 379 q 467 626 307 626 m 447 550 q 240 453 326 550 q 154 232 154 357 q 201 105 154 150 q 325 60 249 60 q 535 158 446 60 q 625 381 625 256 q 575 505 625 460 q 447 550 525 550 z "},"1":{"ha":525,"x_min":-7,"x_max":497,"o":"m 314 608 l 492 613 q 497 592 497 613 q 485 571 497 571 l 388 571 q 365 547 371 571 l 269 164 q 253 67 253 93 q 268 42 253 42 l 353 42 q 360 21 360 42 q 346 0 360 0 l 178 1 l -1 -3 q -7 18 -7 -3 q 6 39 -7 39 l 103 39 q 126 63 119 39 l 224 451 q 239 540 239 513 q 222 568 239 568 l 138 568 q 132 588 132 568 q 146 610 132 608 q 314 608 251 608 z "},"2":{"ha":549,"x_min":-35,"x_max":551,"o":"m 419 458 q 393 537 419 507 q 318 567 367 567 q 242 539 269 567 q 214 469 214 511 q 226 392 214 428 q 160 369 192 369 q 112 389 129 369 q 94 439 94 408 q 174 565 94 506 q 346 625 253 625 q 495 583 439 625 q 551 481 551 540 q 516 367 551 422 q 410 257 481 311 q 125 76 293 168 l 128 69 q 342 93 233 93 q 514 21 514 93 q 424 -87 514 -37 l 418 -86 q 377 -12 418 -33 q 226 8 336 8 q -25 0 117 8 q -35 11 -35 0 q -19 31 -35 22 q 305 271 190 165 q 419 458 419 376 z "},"3":{"ha":724,"x_min":-50,"x_max":628,"o":"m 211 -337 q 392 -252 319 -337 q 464 -60 464 -167 q 344 140 464 81 q 213 94 249 94 q 176 117 176 94 q 223 165 176 144 q 326 185 269 185 q 442 294 390 225 q 493 430 493 364 q 467 533 493 496 q 389 569 442 569 q 290 535 336 569 q 244 451 244 501 q 258 399 244 425 q 201 364 238 364 q 125 424 125 364 q 219 561 125 497 q 410 625 313 625 q 568 581 508 625 q 628 459 628 538 q 560 302 628 381 q 401 171 493 224 q 549 85 501 142 q 597 -40 597 29 q 470 -277 597 -167 q 178 -387 343 -387 q 15 -349 79 -387 q -50 -256 -50 -310 q -28 -210 -50 -229 q 22 -190 -7 -190 q 76 -204 50 -190 q 211 -337 76 -337 z "},"4":{"ha":729,"x_min":-28,"x_max":639,"o":"m -17 7 q -28 25 -28 7 q 0 71 -28 43 l 593 656 q 639 632 639 656 q 626 590 639 626 q 533 264 588 478 l 486 74 l 622 74 q 633 58 633 74 q 626 24 633 42 q 606 7 618 7 l 469 7 q 425 -172 438 -126 q 401 -296 401 -257 q 426 -335 401 -335 l 513 -335 q 529 -355 529 -335 q 497 -375 529 -375 q 326 -374 375 -374 l 117 -375 q 104 -357 104 -375 q 128 -335 104 -335 l 236 -335 q 266 -312 260 -335 q 295 -191 272 -289 q 338 -22 318 -93 l 344 7 l -17 7 m 454 454 l 75 71 l 360 71 l 432 357 l 458 454 l 454 454 z "},"5":{"ha":729,"x_min":-69,"x_max":735,"o":"m 611 40 q 476 -259 611 -124 q 138 -394 340 -394 q -13 -360 43 -394 q -69 -275 -69 -326 q -48 -220 -69 -243 q 15 -197 -26 -197 q 74 -302 28 -268 q 189 -336 121 -336 q 415 -241 326 -336 q 504 -30 504 -146 q 432 163 504 86 q 204 240 360 240 q 184 233 196 240 q 161 226 172 226 q 150 236 150 226 l 265 599 l 588 625 q 704 681 665 631 q 724 690 713 690 q 735 678 735 690 q 717 633 735 667 q 655 560 700 600 q 553 513 610 519 l 283 489 l 238 351 q 517 256 424 343 q 611 40 611 168 z "},"6":{"ha":696,"x_min":25,"x_max":765,"o":"m 749 963 q 765 946 765 963 q 757 935 765 938 q 351 681 515 840 q 216 485 265 597 q 167 261 167 372 q 206 92 167 150 q 304 33 246 33 q 441 114 390 33 q 492 293 492 194 q 464 388 492 347 q 379 428 436 428 q 327 418 356 428 q 297 408 299 408 q 282 424 282 408 q 331 468 282 447 q 429 489 379 489 q 577 425 518 489 q 636 281 636 361 q 526 70 636 158 q 288 -18 417 -18 q 104 64 183 -18 q 25 269 25 146 q 87 511 25 393 q 249 719 149 629 q 479 874 350 810 q 744 963 608 938 q 749 963 746 963 z "},"7":{"ha":733,"x_min":42,"x_max":747,"o":"m 747 600 q 732 571 747 590 q 392 157 567 400 q 241 -101 299 28 q 183 -326 183 -231 q 185 -365 183 -351 q 115 -389 150 -389 q 42 -324 42 -389 q 103 -116 42 -235 q 264 122 164 3 q 619 501 436 329 l 426 501 q 243 494 299 501 q 154 463 188 488 q 122 424 144 456 q 110 419 119 419 q 81 435 81 419 q 110 482 81 440 q 153 544 140 524 q 179 585 167 564 q 197 617 192 606 l 208 638 q 215 650 213 647 q 224 653 217 653 q 242 647 232 653 q 251 638 251 642 q 238 607 251 635 l 542 607 q 667 611 608 607 q 731 615 725 615 q 747 600 747 615 z "},"8":{"ha":692,"x_min":25,"x_max":671,"o":"m 256 471 q 149 665 149 560 q 249 860 149 769 q 464 951 349 951 q 613 902 554 951 q 671 782 671 853 q 610 638 671 711 q 446 506 550 564 q 588 271 588 392 q 482 66 588 150 q 244 -18 376 -18 q 86 40 147 -18 q 25 188 25 97 q 95 347 25 278 q 256 471 165 415 m 138 208 q 179 92 138 138 q 289 47 221 47 q 409 92 357 47 q 461 208 461 138 q 410 340 461 278 q 292 443 360 403 q 138 208 138 336 m 557 758 q 557 785 557 758 q 525 850 557 813 q 431 888 493 888 q 317 839 369 888 q 265 736 265 790 q 311 622 265 671 q 369 569 339 593 q 408 538 400 544 q 514 639 471 575 q 557 758 557 703 z "},"9":{"ha":721,"x_min":-103,"x_max":667,"o":"m -86 -396 q -103 -379 -103 -396 q -94 -368 -103 -371 q 325 -94 144 -276 q 471 116 417 -3 q 525 346 525 235 q 485 515 525 457 q 388 574 446 574 q 251 493 301 574 q 200 314 200 413 q 228 219 200 260 q 313 179 256 179 q 365 189 336 179 q 394 199 393 199 q 410 183 410 199 q 361 139 410 160 q 263 118 313 118 q 115 182 174 118 q 56 326 56 246 q 165 537 56 449 q 404 625 275 625 q 588 543 508 625 q 667 338 667 461 q 555 14 667 174 q 272 -254 443 -146 q -82 -396 100 -362 q -86 -396 -83 -396 z "}," ":{"ha":361,"x_min":0,"x_max":0,"o":""},"!":{"ha":431,"x_min":69,"x_max":390,"o":"m 194 235 q 169 265 169 235 q 206 467 169 274 q 242 753 242 661 q 228 911 242 846 q 336 950 297 950 q 390 876 390 950 q 357 706 390 803 q 281 484 324 608 q 224 247 239 360 q 194 235 208 235 m 92 2 q 81 14 92 2 q 69 60 69 25 q 92 118 69 94 q 150 142 115 142 q 208 118 185 142 q 232 60 232 94 q 208 2 232 25 q 150 -21 185 -21 q 92 2 115 -21 z "},"\"":{"ha":442,"x_min":86,"x_max":425,"o":"m 301 724 l 300 819 q 378 947 300 947 q 412 933 399 947 q 425 893 425 919 q 379 762 425 867 q 324 614 333 657 q 307 608 317 608 q 290 614 297 608 q 301 724 301 656 m 97 724 l 96 819 q 174 947 96 947 q 208 933 194 947 q 221 893 221 919 q 175 762 221 867 q 119 614 129 657 q 103 608 113 608 q 86 614 93 608 q 97 724 97 656 z "},"#":{"ha":740,"x_min":21,"x_max":761,"o":"m 724 321 l 486 321 l 381 39 q 304 -3 368 -3 l 419 321 l 239 321 l 133 39 q 57 -3 121 -3 l 172 321 l 54 321 q 28 333 35 321 q 21 382 21 346 l 196 386 l 264 576 l 140 581 q 110 595 118 582 q 101 642 101 608 l 285 639 l 381 906 q 413 940 389 928 q 456 954 436 953 l 476 956 l 357 638 l 532 636 l 628 906 q 660 940 636 928 q 703 954 683 953 l 724 956 l 603 635 l 715 633 q 761 558 761 633 l 576 564 l 514 394 l 678 399 q 724 321 724 394 m 333 574 l 264 388 l 446 393 l 507 567 l 333 574 z "},"$":{"ha":697,"x_min":28,"x_max":701,"o":"m 47 47 q 28 64 28 47 q 51 125 28 78 q 84 194 75 172 q 98 229 93 215 q 106 251 103 243 q 114 269 108 260 q 138 289 125 289 q 161 283 150 289 q 140 211 146 235 q 243 114 176 144 l 342 457 q 268 538 294 506 q 217 624 242 571 q 193 731 193 678 q 284 935 193 860 q 499 1011 375 1011 l 535 1136 q 563 1147 538 1147 q 589 1133 589 1147 l 589 1131 l 553 1007 q 654 975 604 1001 l 667 1006 q 675 1014 668 1014 q 701 999 686 1014 q 665 811 665 893 l 665 790 q 646 781 665 781 q 626 803 626 781 q 619 853 626 826 q 532 931 585 910 l 436 599 q 501 535 478 558 q 554 469 524 511 q 613 296 613 392 q 524 101 613 168 q 308 33 435 33 q 276 35 286 33 l 240 -92 q 212 -101 238 -101 q 186 -87 186 -101 l 224 43 q 90 113 149 61 q 67 56 72 79 q 47 47 61 47 m 481 242 q 456 322 481 283 q 383 413 432 360 l 294 97 q 319 96 303 96 q 433 135 385 96 q 481 242 481 174 m 479 940 q 363 897 415 939 q 311 789 311 856 q 393 640 311 722 l 479 940 z "},"%":{"ha":1058,"x_min":89,"x_max":1049,"o":"m 169 -12 q 125 -46 142 -46 q 89 -22 108 -46 l 971 947 q 1008 974 996 974 q 1049 950 1031 974 l 169 -12 m 986 250 q 910 69 986 149 q 726 -11 835 -11 q 597 44 646 -11 q 547 178 547 100 q 622 365 547 285 q 808 446 696 446 q 936 386 886 446 q 986 250 986 326 m 599 188 q 642 111 599 139 q 753 83 685 83 q 878 124 821 83 q 935 242 935 164 q 894 323 935 292 q 788 354 854 354 q 660 309 721 354 q 599 188 599 264 m 579 740 q 503 559 579 639 q 319 479 428 479 q 190 535 239 479 q 140 668 140 590 q 215 856 140 775 q 401 936 289 936 q 529 876 479 936 q 579 740 579 817 m 192 678 q 235 601 192 629 q 346 574 278 574 q 471 614 414 574 q 528 732 528 654 q 488 813 528 782 q 381 844 447 844 q 253 799 314 844 q 192 678 192 754 z "},"&":{"ha":1124,"x_min":50,"x_max":1146,"o":"m 193 631 q 284 837 193 742 q 486 932 375 932 q 578 898 546 932 q 611 809 611 864 q 580 705 611 754 q 514 631 549 656 q 869 686 714 631 q 992 765 947 714 q 1038 885 1038 815 q 1029 940 1038 917 q 1071 947 1046 947 q 1121 924 1096 947 q 1146 852 1146 901 q 1115 758 1146 803 q 1033 683 1085 713 q 831 614 943 635 q 763 361 818 485 q 615 153 708 238 q 958 -29 835 -29 q 1028 -12 999 -29 q 1074 20 1058 4 q 1094 36 1089 36 q 1111 19 1111 36 q 1040 -56 1111 1 q 901 -112 969 -112 q 722 -62 832 -112 q 514 74 611 -12 q 242 -18 376 -18 q 50 163 50 -18 q 106 321 50 244 q 240 444 161 397 q 193 631 193 551 m 507 753 q 481 810 507 786 q 401 833 454 833 q 316 789 347 833 q 285 688 285 744 q 324 540 285 631 q 434 350 363 449 q 575 189 506 251 q 711 529 711 315 q 707 596 711 563 q 568 585 618 585 q 446 588 518 585 q 507 753 507 669 m 167 224 q 208 112 167 157 q 324 67 250 67 q 474 114 397 67 q 261 400 344 243 q 167 224 167 322 z "},"'":{"ha":417,"x_min":233,"x_max":482,"o":"m 404 767 q 344 803 404 803 q 328 803 336 803 q 304 849 304 817 q 335 921 304 894 q 408 947 367 947 q 469 911 449 947 q 482 865 482 886 q 479 828 482 843 q 401 682 460 738 q 243 578 342 626 l 233 604 q 347 676 297 633 q 404 767 404 726 z "},"(":{"ha":753,"x_min":88,"x_max":929,"o":"m 543 -506 q 556 -521 556 -506 q 549 -551 556 -536 q 531 -565 543 -565 q 217 -383 346 -565 q 88 90 88 -201 q 160 515 88 303 q 347 887 232 728 q 614 1145 463 1046 q 917 1244 765 1244 q 929 1229 929 1244 q 922 1199 929 1214 q 903 1185 915 1185 q 642 1080 774 1185 q 413 817 510 975 q 254 464 315 658 q 193 97 193 269 q 292 -333 193 -161 q 543 -506 392 -506 z "},")":{"ha":663,"x_min":-231,"x_max":617,"o":"m 511 611 q 410 1021 511 857 q 151 1185 310 1185 q 139 1203 139 1185 q 163 1244 139 1244 q 483 1074 350 1244 q 617 624 617 904 q 565 274 617 453 q 425 -51 513 96 q 231 -316 338 -199 q 5 -499 124 -433 q -219 -565 -114 -565 q -231 -549 -231 -565 q -207 -506 -231 -507 q 40 -399 -90 -506 q 272 -133 169 -293 q 443 230 375 28 q 511 611 511 432 z "},"*":{"ha":610,"x_min":117,"x_max":679,"o":"m 178 891 q 179 899 178 891 q 194 919 181 907 q 219 932 208 932 q 235 928 231 932 l 385 800 l 426 1025 q 441 1040 428 1033 q 465 1046 454 1046 q 486 1024 486 1046 q 481 992 486 1015 q 429 799 444 861 l 643 915 q 657 919 651 919 q 679 896 679 919 q 658 868 679 878 l 442 768 l 618 672 q 631 650 631 664 q 616 623 631 636 q 590 610 601 610 q 569 614 578 610 l 414 735 l 375 506 q 342 485 369 485 q 314 504 314 485 l 371 731 l 156 608 q 142 606 150 606 q 117 631 117 606 q 136 663 117 656 l 360 765 l 185 868 q 178 891 175 875 z "},"+":{"ha":656,"x_min":17,"x_max":644,"o":"m 425 701 q 438 701 431 701 l 371 386 l 589 390 q 644 349 644 390 q 640 324 644 338 l 357 324 l 297 40 q 250 3 289 3 q 240 3 244 3 l 225 7 q 289 324 263 194 l 60 324 q 26 338 36 324 q 19 368 17 353 l 21 383 q 301 386 76 383 l 351 636 q 425 701 364 701 z "},",":{"ha":361,"x_min":83,"x_max":282,"o":"m 221 -51 q 154 -1 221 -1 q 136 -3 146 -1 q 100 56 100 15 q 122 119 100 96 q 185 142 144 142 q 254 106 226 142 q 282 22 282 69 q 234 -124 282 -68 q 99 -228 186 -179 l 83 -201 q 181 -129 142 -172 q 221 -51 221 -86 z "},"-":{"ha":347,"x_min":8,"x_max":333,"o":"m 8 315 q 51 315 14 315 q 180 334 89 315 q 293 353 271 353 q 333 319 333 353 q 331 297 333 314 q 183 273 275 294 q 64 251 92 251 q 24 267 36 251 q 11 300 13 283 l 8 315 z "},".":{"ha":361,"x_min":101,"x_max":260,"o":"m 260 64 q 260 47 260 64 q 237 6 260 31 q 181 -18 214 -18 q 125 5 149 -18 q 101 60 101 28 q 123 116 101 92 q 177 140 144 140 q 235 119 210 140 q 260 64 260 97 z "},"/":{"ha":806,"x_min":24,"x_max":1003,"o":"m 103 -157 q 60 -190 79 -190 q 24 -167 42 -190 l 926 1036 q 961 1064 947 1064 q 1003 1040 988 1064 l 103 -157 z "},":":{"ha":361,"x_min":115,"x_max":376,"o":"m 274 64 q 274 47 274 64 q 251 6 274 31 q 195 -18 228 -18 q 139 5 163 -18 q 115 60 115 28 q 137 116 115 92 q 191 140 158 140 q 249 119 224 140 q 274 64 274 97 m 376 529 q 376 513 376 529 q 353 472 376 496 q 298 447 331 447 q 242 470 265 447 q 218 525 218 493 q 240 581 218 557 q 294 606 261 606 q 351 584 326 606 q 376 529 376 563 z "},";":{"ha":361,"x_min":83,"x_max":376,"o":"m 376 529 q 376 513 376 529 q 353 472 376 496 q 298 447 331 447 q 242 470 265 447 q 218 525 218 493 q 240 581 218 557 q 294 606 261 606 q 351 584 326 606 q 376 529 376 563 m 221 -51 q 154 -1 221 -1 q 136 -3 146 -1 q 100 56 100 15 q 122 119 100 96 q 185 142 144 142 q 254 106 226 142 q 282 22 282 69 q 234 -124 282 -68 q 99 -228 186 -179 l 83 -201 q 181 -129 142 -172 q 221 -51 221 -86 z "},"<":{"ha":631,"x_min":26,"x_max":604,"o":"m 604 556 q 149 326 321 451 q 291 214 183 283 q 506 97 399 144 q 431 61 489 61 q 272 121 372 61 q 99 244 172 181 q 26 324 26 307 q 131 406 26 340 q 360 532 235 472 q 530 592 485 592 q 588 580 575 592 q 604 556 601 568 z "},"=":{"ha":728,"x_min":26,"x_max":697,"o":"m 697 464 q 693 436 697 453 l 115 436 q 75 478 75 436 l 76 493 l 642 500 q 697 464 697 500 m 650 236 q 644 208 650 224 l 67 208 q 26 250 26 208 l 28 265 l 593 272 q 650 236 650 272 z "},">":{"ha":653,"x_min":38,"x_max":614,"o":"m 38 97 q 278 201 165 144 q 492 326 435 281 q 449 368 478 342 q 331 452 419 394 q 136 556 242 510 q 211 592 153 592 q 369 532 269 592 q 542 409 469 472 q 614 329 614 346 q 510 247 614 313 q 282 121 407 181 q 112 61 157 61 q 53 73 67 61 q 38 97 40 85 z "},"?":{"ha":656,"x_min":113,"x_max":615,"o":"m 153 186 q 125 255 125 186 q 165 375 125 324 q 263 454 206 426 q 376 506 319 482 q 474 567 433 531 q 514 648 514 603 q 471 717 514 693 q 376 751 428 742 q 278 788 324 760 q 232 854 233 815 q 242 919 231 893 q 264 956 253 944 l 274 965 q 357 895 297 925 q 472 850 417 865 q 572 799 528 835 q 615 702 615 764 q 582 586 615 640 q 499 501 549 532 q 392 439 450 469 q 285 384 335 408 q 203 321 236 360 q 169 232 169 282 l 176 197 q 153 186 165 186 m 271 64 q 271 47 271 64 q 248 6 271 31 q 192 -18 225 -18 q 136 5 160 -18 q 113 60 113 28 q 134 116 113 92 q 188 140 156 140 q 246 119 221 140 q 271 64 271 97 z "},"@":{"ha":1356,"x_min":83,"x_max":1332,"o":"m 894 564 q 947 589 922 564 q 985 614 971 614 q 1000 597 1000 614 q 993 574 1000 583 q 937 469 976 550 q 851 249 897 388 q 806 85 806 111 q 829 68 806 68 q 1122 200 1003 68 q 1242 488 1242 332 q 1154 692 1242 611 q 905 774 1067 774 q 607 712 743 774 q 378 555 471 650 q 229 345 285 460 q 174 126 174 231 q 276 -97 174 -11 q 586 -182 378 -182 q 811 -147 711 -182 q 847 -136 843 -136 q 861 -150 861 -136 q 825 -185 861 -172 q 535 -236 679 -236 q 195 -145 307 -236 q 83 93 83 -54 q 150 341 83 211 q 328 581 217 471 q 600 762 439 690 q 947 833 761 833 q 1233 747 1133 833 q 1332 531 1332 660 q 1259 278 1332 401 q 1051 69 1186 154 q 760 -17 917 -17 q 683 29 683 -17 q 761 269 683 74 q 785 335 786 333 q 429 -21 529 -21 q 371 3 394 -21 q 347 71 347 28 q 365 181 347 114 q 417 324 382 247 q 497 467 451 400 q 607 580 543 535 q 727 625 671 625 q 818 610 783 625 q 871 579 853 594 q 894 564 889 564 m 835 482 q 780 538 821 510 q 694 567 739 567 q 592 485 649 567 q 499 302 535 403 q 464 144 464 201 q 499 88 464 88 q 664 238 538 88 q 835 482 790 389 z "},"A":{"ha":775,"x_min":-167,"x_max":807,"o":"m 608 1 l 431 -3 q 419 10 419 -3 q 440 44 419 44 l 517 44 q 551 79 551 44 q 532 235 551 110 q 506 415 513 361 q 411 417 468 417 q 281 413 354 417 q 90 67 158 207 q 99 46 82 46 l 192 46 q 201 23 201 46 q 179 0 201 0 l -1 1 l -156 -3 q -167 11 -167 -3 q -146 44 -167 44 l -81 44 q -28 75 -49 44 q 103 264 8 129 q 419 757 288 525 q 535 902 474 850 q 649 954 596 954 q 688 915 688 954 q 624 880 643 901 q 604 824 604 858 q 650 302 604 558 q 751 46 696 46 l 796 46 q 807 23 807 46 q 789 0 807 0 l 608 1 m 314 468 q 435 467 393 467 q 499 467 476 467 q 475 726 475 639 l 469 726 q 314 468 443 681 z "},"B":{"ha":878,"x_min":-21,"x_max":857,"o":"m 556 932 q 778 872 699 932 q 857 725 857 811 q 789 567 857 639 q 601 472 721 494 q 749 390 694 442 q 804 262 804 339 q 739 115 804 185 q 592 13 674 44 q 440 -19 511 -19 q 258 1 369 -19 q 90 21 146 21 q -21 6 35 21 q -19 17 -21 10 q 0 40 -18 25 q 58 63 18 56 q 133 119 99 69 q 196 288 167 168 l 338 858 q 143 804 249 856 q 136 824 136 811 q 149 851 136 838 q 194 880 163 865 q 272 906 225 894 q 556 932 372 932 m 671 225 q 592 392 671 322 q 378 467 513 461 q 356 378 372 449 q 325 260 339 308 q 283 161 311 213 q 221 93 254 110 l 219 89 q 272 94 238 94 q 388 82 307 94 q 527 69 468 69 q 628 117 586 69 q 671 225 671 165 m 474 521 q 640 585 575 521 q 706 721 706 650 q 658 834 706 792 q 519 876 611 876 q 463 813 478 876 l 393 532 q 474 521 438 521 z "},"C":{"ha":886,"x_min":24,"x_max":974,"o":"m 818 697 q 838 785 838 765 q 787 850 836 825 q 646 875 738 875 q 403 801 508 875 q 244 611 297 726 q 192 363 192 496 q 278 147 192 229 q 485 64 364 64 q 721 154 606 64 l 757 246 q 778 263 767 263 q 811 225 794 263 q 722 -6 764 139 q 699 -36 713 -36 q 664 -29 674 -36 l 672 11 q 661 22 672 22 q 585 3 658 22 q 453 -15 513 -15 q 147 82 269 -15 q 24 343 24 179 q 122 651 24 507 q 370 874 221 796 q 675 953 519 953 q 731 950 694 953 l 846 938 q 900 942 885 938 q 929 961 915 947 q 944 968 939 968 q 974 951 957 968 q 915 844 943 919 q 886 715 886 768 l 886 713 q 871 693 886 701 q 837 685 856 685 q 818 697 818 685 z "},"D":{"ha":958,"x_min":-51,"x_max":936,"o":"m 496 932 q 936 503 936 932 q 890 301 936 399 q 769 133 843 203 q 601 22 696 64 q 425 -19 507 -19 q 228 1 343 -19 q 58 21 114 21 q -51 6 3 21 q -33 39 -51 22 q 15 61 -15 56 q 95 119 63 69 q 153 288 128 168 l 272 858 q 79 804 183 856 q 72 829 72 811 q 109 871 71 847 q 248 913 147 894 q 496 932 349 932 m 471 71 q 692 188 590 71 q 793 476 793 304 q 461 876 793 876 q 407 813 421 876 q 358 578 385 714 q 317 380 331 442 q 283 246 303 318 q 242 141 263 174 q 193 94 221 108 l 192 90 q 244 96 210 96 q 348 83 279 96 q 471 71 417 71 z "},"E":{"ha":811,"x_min":-60,"x_max":861,"o":"m 643 -51 l 628 -53 q 603 -33 603 -53 q 617 18 603 -18 q 425 -19 519 -19 q 219 1 331 -19 q 51 21 107 21 q -60 6 -4 21 q -40 38 -60 21 q 20 63 -19 56 q 96 119 60 69 q 165 288 132 168 l 328 858 q 129 804 236 856 q 123 829 122 811 q 162 871 124 847 q 301 913 200 894 q 550 932 403 932 l 701 931 q 811 932 768 931 q 814 942 813 932 q 823 963 815 953 q 846 974 831 974 q 861 964 861 974 q 838 874 861 954 q 814 753 814 793 q 792 739 814 739 q 769 750 769 739 l 771 789 q 761 836 771 818 q 513 876 742 876 q 453 813 471 876 l 367 500 q 445 499 372 499 q 624 508 518 499 q 661 594 654 588 q 686 600 668 600 q 704 592 704 600 q 686 531 704 574 q 656 453 668 489 q 640 365 644 417 q 607 332 638 333 q 590 342 590 332 q 594 421 590 358 q 349 442 511 442 q 325 356 343 424 q 292 246 307 289 q 249 154 278 203 q 186 89 221 106 l 185 85 q 238 90 203 90 q 352 78 272 90 q 486 65 432 65 q 649 113 586 65 l 683 182 q 693 192 683 188 q 715 197 703 197 q 729 186 728 197 l 643 -51 z "},"F":{"ha":756,"x_min":-44,"x_max":806,"o":"m 497 932 l 649 931 q 758 932 715 931 q 761 942 760 932 q 789 974 763 974 q 799 969 793 974 q 806 958 806 964 q 790 878 806 951 q 774 767 774 806 l 774 753 q 751 739 774 739 q 729 750 729 739 q 726 790 728 763 q 714 836 725 818 q 463 876 692 876 q 408 813 422 876 l 342 485 q 420 483 347 483 q 599 493 493 483 q 633 581 624 572 q 654 585 636 585 q 674 574 672 585 q 659 517 674 561 q 635 440 644 474 q 625 372 625 406 q 624 333 625 339 q 599 317 619 317 q 576 326 578 317 l 575 353 q 575 406 575 381 q 328 426 490 426 q 315 374 326 422 q 297 304 303 325 q 276 237 292 283 q 249 164 261 190 q 174 54 213 86 q 260 47 206 54 q 347 40 314 40 q 326 10 343 25 q 289 -6 308 -6 l 67 21 q -44 6 11 21 q -26 39 -44 22 q 22 61 -8 56 q 101 119 69 69 q 160 288 133 168 l 279 858 q 88 804 190 856 q 79 825 79 814 q 264 915 79 883 q 497 932 361 932 z "},"G":{"ha":925,"x_min":11,"x_max":972,"o":"m 768 122 l 767 36 q 733 -115 767 -53 q 665 -176 700 -176 q 643 -162 651 -176 q 707 18 707 -43 q 696 29 707 29 q 658 18 689 29 q 463 -15 569 -15 q 136 78 261 -15 q 11 338 11 172 q 78 594 11 472 q 481 919 207 831 q 674 953 579 953 q 729 950 701 953 l 844 938 q 899 942 883 938 q 926 958 914 947 q 943 968 938 968 q 972 951 957 968 q 911 842 942 918 q 881 713 881 765 q 847 686 881 692 q 813 697 813 681 q 823 728 813 700 q 833 790 833 756 q 784 850 833 825 q 643 875 735 875 q 395 801 503 875 q 234 612 288 726 q 181 364 181 497 q 267 145 181 231 q 479 60 354 60 q 651 100 558 60 q 685 286 681 179 l 686 324 q 658 351 686 351 l 597 351 q 536 347 582 351 q 522 380 522 347 q 540 413 522 413 q 747 404 660 404 q 914 417 835 404 q 921 406 921 417 q 911 379 921 394 q 889 364 901 364 q 828 351 853 364 q 768 122 768 326 z "},"H":{"ha":1025,"x_min":-43,"x_max":1119,"o":"m 765 432 q 601 436 701 436 l 458 436 l 344 435 q 263 183 301 271 q 178 57 225 96 l 349 46 q 356 19 356 44 q 321 -6 356 -6 q 38 13 100 13 q -43 6 -25 13 q -42 22 -43 13 q -26 46 -42 31 q 21 61 -10 61 q 24 61 22 61 q 101 112 69 61 q 163 288 132 163 l 304 865 q 108 811 213 863 q 100 831 100 822 q 197 901 103 878 q 397 924 292 924 l 551 931 q 586 926 575 931 q 569 883 586 890 q 550 881 558 881 q 478 883 529 883 q 454 867 463 883 q 436 814 446 851 q 358 492 388 603 q 524 489 417 489 q 783 506 631 489 l 874 876 q 838 881 858 881 q 790 875 817 881 q 781 902 781 888 q 788 922 781 917 q 817 928 796 928 l 956 921 q 1051 926 1018 921 q 1092 932 1083 932 q 1110 927 1100 932 q 1119 908 1119 922 q 1110 883 1119 894 l 1046 883 q 1022 867 1031 883 q 1004 814 1014 851 q 863 261 911 411 q 750 57 815 111 q 836 50 782 57 q 924 43 890 43 q 901 10 919 25 q 863 -6 882 -6 l 635 21 q 539 6 592 21 q 540 19 539 11 q 558 44 542 28 q 614 65 575 60 q 676 115 653 71 q 731 288 700 158 l 765 432 z "},"I":{"ha":547,"x_min":-18,"x_max":601,"o":"m 572 932 q 601 914 601 932 q 594 897 601 906 q 583 883 586 888 l 503 883 q 479 867 488 883 q 461 814 471 851 q 320 261 368 411 q 207 57 272 111 q 293 50 239 57 q 381 43 347 43 q 358 10 376 25 q 319 -6 339 -6 l 92 21 q -18 6 36 21 q -17 19 -18 11 q 1 44 -15 28 q 49 64 18 60 q 131 119 99 71 q 192 288 163 167 l 333 865 q 138 811 242 863 q 129 831 129 822 q 253 907 132 882 q 572 932 375 932 z "},"J":{"ha":483,"x_min":-317,"x_max":571,"o":"m -250 -379 q -317 -317 -317 -379 q -269 -240 -317 -264 q -131 -289 -212 -289 q 25 -104 -44 -289 q 306 865 107 118 q 110 811 214 863 q 101 831 101 822 q 226 907 106 882 q 542 932 346 932 q 571 914 571 932 q 563 897 571 906 q 553 883 556 888 l 472 883 q 449 868 457 883 q 429 814 440 853 q 210 43 265 196 q 57 -219 151 -119 q -250 -379 -90 -379 z "},"K":{"ha":922,"x_min":-51,"x_max":961,"o":"m 711 913 l 789 911 q 942 922 871 911 q 961 901 961 922 l 956 875 q 849 838 892 875 q 510 532 711 706 l 510 528 q 601 435 558 497 q 673 308 644 374 q 724 179 701 242 q 763 77 747 117 q 786 38 778 38 l 888 46 q 896 17 896 28 q 694 -3 896 -3 l 668 -3 q 615 91 651 -3 q 522 297 579 185 q 401 443 465 408 q 325 381 392 435 q 174 57 253 121 q 260 50 206 57 q 347 43 314 43 q 324 10 343 25 q 286 -6 306 -6 l 58 21 q -51 6 3 21 q -50 19 -51 11 q -32 44 -49 28 q 15 64 -15 60 q 97 119 65 71 q 158 288 128 167 q 299 874 304 874 q 171 851 247 874 q 167 869 167 863 q 385 921 167 921 l 465 925 q 522 911 522 925 l 514 886 q 480 888 501 888 q 450 872 458 888 q 432 818 442 856 q 350 475 375 574 q 422 531 365 488 q 503 594 478 574 q 572 651 528 614 q 728 801 653 718 q 763 861 763 840 q 731 875 763 875 q 689 871 722 875 q 711 913 689 913 z "},"L":{"ha":775,"x_min":-36,"x_max":753,"o":"m 611 -33 q 628 18 611 -25 q 442 -19 536 -19 q 239 1 347 -19 q 75 21 131 21 q -36 6 19 21 q -15 38 -36 21 q 39 61 7 56 q 210 292 138 78 l 399 861 q 207 804 318 856 q 201 823 201 810 q 218 851 201 836 q 271 882 235 867 q 358 908 307 897 q 651 936 476 936 q 618 892 650 892 q 542 854 554 892 l 397 442 q 378 388 394 435 q 354 319 363 342 q 326 251 346 296 q 290 181 307 207 q 201 90 246 110 l 200 86 q 274 101 244 101 q 364 87 304 101 q 476 72 424 72 q 671 118 604 72 l 707 192 q 717 202 707 197 q 740 207 728 207 q 753 196 753 207 l 650 -51 q 611 -33 611 -51 z "},"M":{"ha":1246,"x_min":-43,"x_max":1354,"o":"m 954 1 l 758 -3 q 751 8 751 -3 q 776 44 756 44 l 833 44 q 888 79 878 44 q 977 423 901 124 q 1067 776 1053 722 q 551 103 779 369 q 524 92 542 90 q 500 107 507 93 q 544 171 531 150 q 426 740 464 442 q 310 440 411 694 q 182 74 186 122 q 207 46 181 46 l 286 46 q 298 33 299 46 q 288 10 297 21 q 268 0 279 0 l 119 3 l -35 -3 q -42 21 -43 -3 q -22 44 -40 44 l 21 44 q 83 79 63 44 q 111 142 88 85 q 236 443 151 240 q 385 863 385 786 q 365 903 385 896 q 304 911 346 911 q 263 935 263 911 l 267 960 q 563 939 528 946 q 554 808 554 883 q 578 601 554 732 q 625 383 601 471 l 649 296 q 1082 942 1025 790 q 1169 940 1111 940 q 1344 947 1228 940 q 1352 944 1350 949 q 1354 932 1354 939 l 1353 914 q 1336 888 1353 888 l 1275 890 q 1218 844 1233 890 q 1101 427 1151 653 q 1050 85 1050 201 q 1053 53 1050 60 q 1068 46 1056 46 l 1136 46 q 1150 32 1150 46 q 1142 10 1149 21 q 1125 0 1135 0 q 954 1 999 1 z "},"N":{"ha":1038,"x_min":-40,"x_max":1171,"o":"m 322 49 q 257 -4 296 -4 l 69 21 q -40 6 15 21 q -20 42 -40 22 q 39 69 0 63 q 110 122 78 76 q 172 288 143 168 l 318 813 q 276 856 299 842 q 238 873 253 871 q 191 875 222 875 q 117 858 160 875 q 62 840 75 840 q 49 858 49 840 q 83 883 61 868 q 163 924 104 899 q 274 950 221 950 q 373 920 328 950 q 458 827 418 890 q 533 694 499 764 q 757 308 651 464 q 845 661 807 550 q 917 828 883 772 q 999 921 951 885 q 1109 957 1047 957 q 1171 908 1171 957 q 1142 842 1171 871 q 992 766 1057 842 q 894 579 928 690 q 829 192 829 361 q 860 40 829 119 l 869 15 q 854 -4 869 -4 q 375 713 781 -4 q 251 251 296 383 q 140 63 207 119 q 231 56 172 63 q 322 49 289 49 z "},"O":{"ha":878,"x_min":19,"x_max":867,"o":"m 86 600 q 119 673 86 600 q 277 848 153 746 q 553 950 401 950 q 785 852 704 950 q 867 608 867 754 q 803 322 867 461 q 613 85 739 182 q 331 -12 488 -12 q 97 78 175 -12 q 19 312 19 169 q 86 600 19 454 m 719 597 q 719 657 719 597 q 673 792 719 717 q 527 868 626 868 q 342 785 428 868 q 213 583 256 701 q 169 344 169 465 q 220 143 169 222 q 371 64 271 64 q 553 149 471 64 q 677 356 635 235 q 719 597 719 478 z "},"P":{"ha":769,"x_min":-49,"x_max":771,"o":"m 297 -6 q 20 15 89 15 q -49 8 -49 15 q 18 57 -49 53 q 92 113 63 60 q 138 288 121 167 l 218 858 q 31 804 129 856 q 22 831 22 811 q 58 873 21 850 q 193 914 94 896 q 436 932 292 932 q 583 904 510 932 q 714 812 657 876 q 771 663 771 747 q 669 487 771 558 q 431 415 568 415 q 304 433 364 415 q 292 371 303 428 q 274 281 282 314 q 250 197 265 249 q 174 54 222 97 q 258 48 206 54 q 347 40 310 42 q 328 8 343 22 q 297 -6 314 -6 m 404 474 q 556 528 493 474 q 618 672 618 583 q 554 818 618 760 q 406 876 490 876 q 356 813 365 876 l 311 490 q 404 474 357 474 z "},"Q":{"ha":939,"x_min":82,"x_max":1374,"o":"m 417 165 q 510 190 474 165 q 525 178 525 190 q 474 124 525 154 q 351 94 422 94 q 153 181 225 94 q 82 390 82 267 q 148 642 82 513 q 335 860 214 771 q 594 950 456 950 q 844 860 763 950 q 925 622 925 771 q 863 385 925 521 q 706 128 801 249 q 478 -78 610 7 q 222 -162 347 -162 q 159 -142 183 -162 q 135 -94 135 -122 q 185 -13 135 -47 q 330 21 236 21 q 527 -22 424 21 q 724 -124 631 -64 q 908 -244 818 -185 q 1238 -390 1122 -390 q 1290 -375 1269 -390 q 1310 -335 1310 -360 q 1269 -285 1310 -311 q 1182 -258 1229 -258 q 1213 -207 1186 -231 q 1278 -183 1240 -183 q 1345 -208 1317 -183 q 1374 -275 1374 -232 q 1317 -417 1374 -357 q 1167 -476 1261 -476 q 975 -431 1074 -476 q 793 -322 876 -386 q 629 -194 710 -258 q 303 -40 435 -40 q 235 -67 235 -40 q 261 -83 235 -83 q 481 -9 379 -83 q 645 175 583 65 q 742 401 707 285 q 776 611 776 517 q 589 879 776 879 q 405 806 488 879 q 280 627 322 733 q 238 414 238 521 q 283 236 238 307 q 417 165 329 165 z "},"R":{"ha":872,"x_min":-44,"x_max":886,"o":"m 650 208 q 733 96 685 151 q 810 40 781 40 q 874 63 840 40 q 886 47 886 58 q 837 6 886 28 q 740 -17 788 -17 q 658 4 693 -17 q 590 69 624 25 q 492 222 536 142 l 378 421 q 329 433 351 425 q 316 382 326 425 q 299 312 306 339 q 278 240 292 285 q 250 165 264 196 q 179 54 217 86 q 244 49 197 54 q 332 42 292 43 q 312 10 328 25 q 279 -4 296 -4 q 22 15 85 15 q -44 8 -42 15 q -24 43 -44 31 q 24 57 -4 56 q 154 288 114 64 q 258 857 246 719 q 72 803 174 854 q 67 831 67 811 q 106 873 68 850 q 243 914 143 896 q 473 932 343 932 q 705 863 603 932 q 807 684 807 794 q 717 501 807 574 q 501 417 628 429 q 586 313 547 374 l 650 208 m 431 474 q 585 530 521 474 q 656 679 650 586 q 596 822 656 767 q 454 876 536 876 q 400 813 414 876 l 339 490 q 431 474 385 474 z "},"S":{"ha":694,"x_min":24,"x_max":697,"o":"m 661 739 q 642 729 661 729 q 622 742 622 729 q 622 762 622 746 q 615 801 622 778 q 476 889 564 889 q 360 847 413 889 q 307 739 307 806 q 414 564 307 663 q 502 478 458 524 q 577 372 546 433 q 608 244 608 311 q 519 49 608 117 q 303 -18 431 -18 q 86 61 176 -18 q 63 4 68 28 q 43 -4 57 -4 q 24 13 24 -4 q 33 42 24 24 q 89 163 76 125 q 103 203 101 200 q 108 216 104 207 q 116 228 113 225 q 125 235 119 231 q 157 232 135 242 q 136 160 142 183 q 213 78 163 111 q 322 44 264 44 q 428 83 381 44 q 476 190 476 122 q 375 367 476 265 q 290 455 332 410 q 219 559 249 500 q 189 679 189 618 q 281 884 189 808 q 496 960 372 960 q 650 924 582 960 l 663 954 q 672 963 667 963 q 697 947 681 963 q 661 760 661 839 q 661 739 661 749 z "},"T":{"ha":808,"x_min":3,"x_max":908,"o":"m 325 1 l 129 -3 q 121 11 121 -3 q 139 44 119 44 l 199 44 q 247 58 233 44 q 267 108 260 71 l 399 743 q 410 831 411 801 q 285 861 410 861 q 163 840 203 861 q 122 769 122 819 q 146 669 122 719 q 58 622 106 622 q 3 695 3 622 q 90 847 3 768 q 307 926 176 926 q 611 914 457 926 q 772 901 765 901 q 881 954 857 901 q 898 969 888 969 q 908 964 908 969 q 881 881 908 936 q 829 826 853 826 q 563 843 732 826 l 422 168 q 414 84 414 122 q 429 46 414 46 l 510 46 q 515 38 515 46 q 503 0 515 1 q 325 1 379 1 z "},"U":{"ha":894,"x_min":4,"x_max":1006,"o":"m 860 932 l 1000 936 q 1006 928 1006 936 l 1006 924 q 999 899 1006 908 q 986 889 992 889 l 947 889 q 879 747 917 889 q 711 267 793 417 q 612 121 665 185 q 481 18 558 57 q 311 -21 403 -21 q 114 52 193 -21 q 35 247 35 125 q 122 750 42 451 q 149 882 149 844 l 4 888 q 40 940 4 940 q 245 933 189 933 q 359 939 301 933 q 429 944 417 944 q 435 932 435 944 q 428 905 435 919 q 411 890 421 890 l 360 890 q 310 877 325 890 q 289 826 296 864 q 216 528 247 688 q 185 274 185 368 q 235 126 190 176 q 358 75 279 75 q 506 123 438 75 q 617 249 574 171 q 692 415 660 326 q 739 597 724 504 q 771 860 771 778 q 757 888 769 888 l 669 885 l 672 900 q 689 935 676 935 l 860 932 z "},"V":{"ha":694,"x_min":-3,"x_max":757,"o":"m 324 896 q 282 885 296 896 q 219 487 219 739 q 242 103 219 235 l 250 103 q 503 468 376 247 q 629 838 629 689 q 597 881 629 881 l 542 869 q 569 910 542 899 q 718 938 638 938 q 757 908 757 938 q 634 562 757 790 q 364 153 511 333 q 153 -26 217 -26 q 103 86 121 -26 q 86 317 86 199 q 90 514 86 436 q 99 651 94 592 q 110 759 104 711 q 119 835 115 807 q 124 867 124 864 q 110 882 124 882 l -3 872 q 20 912 1 893 q 58 931 39 931 q 364 946 256 931 l 331 896 l 324 896 z "},"W":{"ha":1061,"x_min":-11,"x_max":1176,"o":"m 207 424 l 210 126 l 215 126 q 460 500 338 258 q 582 847 582 742 q 556 869 582 869 l 508 869 q 500 881 500 869 q 521 914 504 914 q 660 919 599 919 l 749 926 q 664 138 664 636 l 671 138 q 863 393 781 263 q 985 624 944 524 q 1064 881 1054 794 q 1056 894 1064 894 l 975 894 q 964 905 964 894 q 972 927 964 915 q 986 939 979 939 q 1151 936 1111 936 q 1176 903 1176 936 q 1051 589 1125 742 q 904 329 976 436 q 763 140 832 222 q 645 18 693 58 q 578 -22 597 -22 q 538 233 538 -22 q 576 614 538 488 q 401 277 493 421 q 169 -11 308 133 q 133 -24 157 -24 q 104 -11 108 -24 q 96 91 96 26 q 105 397 96 156 q 114 846 114 638 q 107 869 114 864 q 82 874 100 875 l -11 864 q 33 925 3 925 q 167 932 124 932 l 364 943 q 371 931 371 943 q 355 906 371 918 q 321 892 339 893 q 231 765 254 892 q 207 424 207 639 z "},"X":{"ha":986,"x_min":-128,"x_max":1054,"o":"m 874 932 l 1029 942 q 1054 917 1054 942 q 1036 892 1054 892 l 997 892 q 952 878 974 892 q 894 829 931 865 q 758 700 858 793 q 560 511 657 607 q 576 443 564 497 q 596 360 588 389 q 619 281 604 332 q 651 201 635 231 q 692 139 668 172 q 811 78 736 78 q 872 103 843 78 q 903 128 900 128 q 910 124 907 128 q 914 117 914 121 q 853 31 914 82 q 711 -19 793 -19 q 479 336 563 -19 q 461 419 474 360 q 226 193 324 307 q 129 49 129 79 q 136 42 129 42 l 222 42 q 233 32 233 42 q 232 24 233 26 q 204 -7 225 -7 q 36 1 38 1 l -118 -6 q -128 5 -128 -6 q -120 28 -128 15 q -101 40 -112 40 l -75 40 q -31 56 -57 40 q 13 88 -4 71 q 449 476 235 310 q 210 854 378 854 q 143 833 178 854 q 107 811 108 811 q 100 823 100 811 q 128 865 100 835 q 211 923 157 894 q 313 951 265 951 q 389 939 360 951 q 438 902 418 926 q 472 839 457 878 q 528 636 503 763 q 531 628 529 632 q 544 571 533 622 q 570 596 554 581 q 627 653 586 611 q 700 729 668 694 q 782 856 782 821 q 739 896 782 896 q 696 908 696 896 q 714 942 696 942 l 874 932 z "},"Y":{"ha":742,"x_min":4,"x_max":933,"o":"m 79 -4 q 74 2 74 -4 q 76 14 75 8 q 83 32 76 19 q 100 44 90 44 l 131 44 q 241 208 192 44 q 290 537 290 371 q 251 798 290 703 q 131 893 213 893 q 74 879 101 893 q 35 851 47 865 l 22 838 q 4 854 4 842 q 63 918 4 881 q 179 956 121 956 q 450 621 450 956 q 443 508 450 571 q 639 733 576 638 q 713 882 701 828 q 703 890 713 890 l 664 890 q 658 901 657 890 q 667 923 658 911 q 683 935 675 935 l 839 933 l 933 939 q 892 892 924 892 q 832 867 851 892 q 429 419 683 679 q 344 94 396 242 l 326 46 l 454 54 q 418 0 438 0 q 231 1 263 1 l 79 -4 z "},"Z":{"ha":797,"x_min":-117,"x_max":856,"o":"m 193 118 q 210 118 193 118 q 382 97 228 118 q 592 75 536 75 q 672 90 647 75 q 736 156 697 104 q 750 167 743 167 q 772 150 764 167 q 503 -31 678 -31 q 241 -5 432 -31 q -6 21 50 21 q -117 6 -61 21 q -62 56 -111 35 q 68 186 -37 67 q 657 874 178 308 q 344 860 596 860 q 164 829 207 860 q 144 707 144 804 q 115 701 129 701 q 90 725 90 701 q 111 947 111 856 q 117 966 111 960 q 136 974 124 972 q 160 938 143 946 q 243 929 178 929 l 719 929 q 817 938 790 929 q 846 946 843 946 q 856 939 856 946 q 835 908 856 929 q 269 242 364 350 q 142 117 175 133 l 140 113 q 193 118 158 118 z "},"[":{"ha":706,"x_min":-3,"x_max":896,"o":"m 507 -551 l -3 -551 l 375 1231 l 886 1231 q 896 1219 896 1231 q 894 1200 896 1208 q 872 1167 886 1167 l 464 1167 l 113 -489 l 521 -489 q 529 -521 535 -489 q 507 -551 521 -551 z "},"\\":{"ha":450,"x_min":1,"x_max":467,"o":"m 1 1040 q 44 1064 25 1064 q 75 1036 64 1064 l 467 -167 q 419 -190 438 -190 q 390 -157 400 -190 l 1 1040 z "},"]":{"ha":706,"x_min":-181,"x_max":719,"o":"m -169 -551 q -181 -537 -181 -551 q -178 -521 -181 -531 q -156 -489 -172 -489 l 251 -489 l 603 1167 l 194 1167 q 185 1199 178 1167 q 208 1231 192 1231 l 719 1231 l 340 -551 l -169 -551 z "},"^":{"ha":722,"x_min":122,"x_max":739,"o":"m 149 349 q 122 353 136 349 q 487 856 421 760 q 565 956 553 953 q 608 847 581 956 l 732 411 q 739 388 739 397 q 738 374 739 378 q 672 349 733 351 l 535 818 l 532 818 l 226 394 q 149 349 188 349 z "},"_":{"ha":694,"x_min":-3,"x_max":693,"o":"m 636 -106 q 693 -143 693 -106 q 689 -169 693 -154 l 39 -169 q 7 -156 17 -169 q -1 -128 -3 -142 l 0 -112 l 636 -106 z "},"`":{"ha":283,"x_min":7,"x_max":286,"o":"m 7 939 q 20 974 7 961 q 63 988 33 988 q 116 958 93 988 q 183 845 139 929 q 257 723 228 761 q 286 679 286 685 q 270 667 283 667 q 253 671 257 667 q 7 939 7 869 z "},"a":{"ha":675,"x_min":0,"x_max":707,"o":"m 640 607 q 660 628 640 607 q 693 650 679 650 q 707 635 707 650 q 698 610 707 625 q 665 560 689 596 q 603 454 642 525 q 517 261 565 383 q 468 115 468 139 q 483 92 468 92 q 570 156 504 92 q 648 219 636 219 q 659 206 660 219 q 613 139 658 192 q 499 34 568 86 q 382 -18 431 -18 q 348 -6 361 -18 q 335 28 335 6 q 355 103 335 50 q 408 233 375 157 q 451 335 442 310 q 78 -21 176 -21 q 22 1 44 -21 q 0 70 0 24 q 33 208 0 117 q 120 393 67 299 q 256 556 174 488 q 421 625 338 625 q 550 579 499 625 q 574 564 568 564 q 640 607 601 564 m 510 482 q 457 538 497 510 q 372 567 417 567 q 265 482 328 567 q 162 295 203 397 q 121 140 121 193 q 153 88 121 88 q 326 238 192 88 q 510 482 460 389 z "},"b":{"ha":639,"x_min":38,"x_max":646,"o":"m 51 88 q 38 123 38 104 q 57 188 38 142 q 105 316 76 233 q 158 472 133 399 q 215 628 183 544 q 284 779 247 713 q 365 903 321 846 q 589 1021 460 1021 q 646 983 643 1021 q 631 953 646 967 q 590 933 617 939 q 538 949 563 949 q 363 737 469 949 q 196 281 257 525 q 535 628 435 628 q 594 602 569 628 q 619 531 619 576 q 603 419 619 485 q 556 277 588 353 q 481 135 524 201 q 376 26 438 69 q 247 -18 314 -18 q 51 88 144 -18 m 146 125 q 203 69 161 97 q 290 40 246 40 q 387 120 333 40 q 473 298 440 200 q 506 458 506 396 q 467 519 506 519 q 308 369 429 519 q 146 125 188 218 z "},"c":{"ha":465,"x_min":10,"x_max":525,"o":"m 335 211 q 350 196 350 211 q 313 130 350 181 q 212 29 275 79 q 94 -21 149 -21 q 35 8 61 -21 q 10 88 10 38 q 36 226 10 139 q 109 403 63 313 q 232 560 156 494 q 393 625 308 625 q 525 549 525 625 q 503 510 525 526 q 449 492 481 493 q 350 567 414 567 q 246 488 300 567 q 159 312 192 410 q 126 169 126 214 q 162 88 126 88 q 235 119 197 88 q 301 181 274 150 q 335 211 328 211 z "},"d":{"ha":703,"x_min":0,"x_max":1001,"o":"m 944 933 q 886 949 914 949 q 810 888 858 949 q 711 733 761 826 q 490 217 563 453 q 465 113 465 135 q 482 92 465 92 q 565 156 503 92 q 640 219 628 219 q 653 206 653 219 q 610 139 653 192 q 501 34 567 86 q 386 -18 435 -18 q 350 -6 364 -18 q 336 31 336 7 q 414 269 336 79 l 440 332 l 438 335 q 82 -21 182 -21 q 24 3 47 -21 q 0 71 0 28 q 17 181 0 114 q 69 324 35 247 q 150 467 104 400 q 260 580 196 535 q 397 625 324 625 q 533 569 471 625 q 943 1021 729 1021 q 1001 983 1001 1021 q 986 953 1001 967 q 944 933 971 939 m 488 482 q 433 538 474 510 q 347 567 392 567 q 244 485 301 567 q 152 302 188 403 q 117 144 117 201 q 151 88 117 88 q 317 238 190 88 q 488 482 443 389 z "},"e":{"ha":467,"x_min":-14,"x_max":503,"o":"m 324 204 q 338 189 338 204 q 315 147 338 179 q 256 76 292 114 q 169 9 221 39 q 73 -21 117 -21 q 8 6 29 -21 q -14 78 -14 33 q 40 290 -14 164 q 192 520 93 415 q 397 625 292 625 q 473 608 443 625 q 503 554 503 590 q 380 408 503 492 q 136 288 257 325 q 106 139 106 190 q 139 88 106 88 q 306 193 214 88 q 324 204 315 204 m 353 567 q 249 497 304 567 q 153 328 193 426 q 389 529 389 450 q 353 567 389 567 z "},"f":{"ha":400,"x_min":-293,"x_max":776,"o":"m -187 -387 q -261 -363 -231 -387 q -293 -304 -292 -339 q -257 -250 -293 -269 q -217 -283 -231 -274 q -138 -314 -179 -314 q -60 -266 -97 -314 q 13 -123 -22 -218 q 78 70 49 -28 q 151 311 108 168 q 231 554 194 454 l 118 554 q 108 568 108 554 q 126 600 108 600 q 258 633 244 600 q 424 928 339 836 q 639 1021 508 1021 q 733 1003 689 1021 q 776 940 776 985 q 757 892 776 911 q 701 868 738 872 q 575 947 636 947 q 465 868 514 947 q 354 608 417 789 l 504 608 q 515 592 513 608 q 493 554 515 554 l 336 554 q 281 390 317 503 q 214 184 244 276 q 137 -20 183 92 q 45 -208 90 -132 q -61 -335 0 -283 q -187 -387 -122 -387 z "},"g":{"ha":506,"x_min":-133,"x_max":653,"o":"m 108 -33 l 125 -33 q 29 92 29 40 q 169 176 29 122 q 95 228 132 186 q 58 338 58 271 q 130 527 58 429 q 301 625 201 625 q 438 535 400 625 q 493 677 451 617 q 596 738 535 738 q 638 722 622 738 q 653 682 653 706 q 608 613 653 636 q 552 638 589 638 q 484 577 515 638 q 453 460 453 517 q 438 352 453 404 q 376 244 424 300 q 254 175 328 188 q 175 151 218 169 q 132 110 132 132 q 292 -19 132 81 q 400 -109 350 -56 q 450 -210 450 -162 q 359 -333 450 -278 q 151 -387 268 -387 q -50 -331 33 -387 q -133 -192 -133 -275 q -53 -80 -133 -126 q 108 -33 26 -33 m 338 -240 q 322 -199 338 -217 q 298 -171 307 -181 q 269 -144 289 -161 q 239 -119 249 -128 q 169 -67 196 -85 q 125 -62 147 -62 q 19 -97 61 -62 q -24 -189 -24 -132 q 40 -290 -24 -246 q 189 -335 104 -335 q 338 -240 338 -335 m 214 215 q 292 267 258 215 q 356 490 356 360 q 301 582 356 582 q 201 486 246 582 q 156 303 156 390 q 214 215 156 215 z "},"h":{"ha":619,"x_min":10,"x_max":621,"o":"m 513 949 q 393 819 463 949 q 267 536 324 690 q 192 322 210 382 l 194 322 q 428 596 329 536 q 526 625 478 625 q 594 600 574 625 q 614 536 614 575 q 567 394 614 497 q 472 201 519 292 q 424 94 424 111 q 439 78 424 78 q 472 88 454 78 q 499 106 489 97 q 528 133 508 114 l 549 154 q 556 157 554 157 q 569 139 569 157 q 496 44 569 110 q 374 -21 422 -21 q 315 36 315 -21 q 399 272 315 86 q 483 492 483 458 q 453 525 483 525 q 321 431 407 525 q 114 60 221 319 q 108 44 111 54 q 101 28 104 33 q 95 14 99 22 q 88 1 92 6 q 81 -8 85 -4 q 53 -18 72 -18 q 10 -3 33 -18 q 119 410 54 219 q 242 722 183 600 q 386 932 301 843 q 560 1021 471 1021 q 605 1010 589 1021 q 621 981 621 999 q 568 933 621 944 q 513 949 535 949 z "},"i":{"ha":367,"x_min":13,"x_max":422,"o":"m 326 664 q 338 638 338 664 q 240 386 338 613 q 143 113 143 160 q 157 92 143 92 q 215 126 179 92 q 257 160 250 160 q 271 146 271 160 q 242 94 271 132 q 160 19 213 57 q 60 -18 107 -18 q 26 -5 40 -18 q 13 31 13 8 q 98 287 13 83 q 183 500 183 490 q 124 465 171 492 q 58 419 76 438 q 36 440 36 422 q 78 486 36 458 q 193 561 121 514 q 313 656 265 608 q 326 664 321 664 m 422 842 q 422 827 422 842 q 403 792 422 813 q 354 772 383 772 q 304 792 325 772 q 283 841 283 811 q 303 891 283 871 q 353 911 324 911 q 403 891 383 911 q 422 842 422 871 z "},"j":{"ha":350,"x_min":-328,"x_max":467,"o":"m 232 500 q 101 419 132 450 q 81 438 81 422 q 123 485 81 457 q 238 561 165 514 q 340 636 311 608 q 375 664 369 664 q 385 638 386 664 q 278 345 385 613 q 110 -44 171 78 q -228 -387 -61 -387 q -299 -364 -271 -387 q -328 -307 -328 -340 q -289 -250 -328 -274 q -221 -302 -246 -290 q -174 -314 -196 -314 q -4 -114 -92 -314 q 122 210 43 -6 q 232 500 200 425 m 447 794 q 436 783 447 794 q 397 772 426 772 q 348 791 368 772 q 328 839 328 810 q 348 890 328 868 q 398 911 368 911 q 447 892 428 911 q 467 844 467 872 q 447 794 467 815 z "},"k":{"ha":683,"x_min":-29,"x_max":690,"o":"m 619 933 q 560 949 589 949 q 480 888 531 949 q 375 728 429 826 q 206 383 282 556 l 210 383 q 383 569 297 514 q 535 625 469 625 q 602 601 576 625 q 628 540 628 578 q 540 408 628 471 q 279 317 451 344 q 392 124 304 221 q 562 26 479 26 q 644 82 644 26 q 635 106 644 96 q 607 115 626 115 q 569 97 588 115 q 541 108 551 97 q 531 137 531 118 q 550 174 531 156 q 603 192 569 192 q 664 165 638 192 q 690 92 690 138 q 645 15 690 47 q 540 -18 600 -18 q 315 71 408 -18 q 178 308 221 160 l 174 308 q 131 190 164 286 q 69 38 97 94 q 17 -18 42 -18 q -29 -6 -11 -18 q 132 447 17 183 q 270 722 197 597 q 438 934 343 847 q 621 1021 532 1021 q 678 986 678 1021 q 619 933 678 944 m 460 521 q 211 343 371 521 l 213 340 q 430 399 356 357 q 507 483 504 442 q 460 521 507 521 z "},"l":{"ha":360,"x_min":39,"x_max":613,"o":"m 504 949 q 361 769 447 949 q 214 390 275 589 q 153 121 153 192 q 173 92 153 92 q 250 156 193 92 q 320 219 307 219 q 333 205 333 219 q 297 138 333 190 q 199 34 260 86 q 89 -18 139 -18 q 39 39 39 -18 q 62 190 39 82 q 131 440 85 299 q 238 712 178 582 q 381 931 297 842 q 551 1021 465 1021 q 597 1009 581 1021 q 613 981 613 997 q 560 933 613 944 q 504 949 526 949 z "},"m":{"ha":1040,"x_min":18,"x_max":1029,"o":"m 375 -21 q 328 -3 346 -21 q 403 164 347 46 q 543 490 543 454 q 518 525 543 525 q 383 431 475 525 q 135 60 276 318 q 86 -14 103 -6 q 61 -18 79 -18 q 18 -3 43 -18 q 116 251 19 15 q 214 504 213 488 q 152 469 210 501 q 74 419 94 438 q 53 440 53 424 q 97 484 53 456 q 217 560 142 513 q 323 636 293 608 q 360 664 353 664 q 368 647 368 664 q 338 557 368 629 q 267 400 307 485 q 218 288 228 315 l 222 288 q 274 356 229 296 q 349 450 319 417 q 425 531 378 483 q 600 625 518 625 q 682 557 682 625 q 565 288 682 489 l 569 288 q 622 356 576 296 q 696 450 667 417 q 772 531 725 483 q 947 625 865 625 q 1029 557 1029 625 q 966 405 1029 511 q 840 203 903 299 q 776 93 776 108 q 788 78 775 78 q 813 83 800 78 q 839 97 825 88 q 862 114 853 107 q 886 136 871 121 q 915 157 910 157 q 929 140 929 157 q 842 46 926 113 q 708 -21 758 -21 q 658 24 658 -21 q 774 267 658 71 q 890 494 890 464 q 865 525 890 525 q 740 440 819 525 q 589 252 660 354 q 455 65 518 150 q 375 -21 392 -21 z "},"n":{"ha":663,"x_min":10,"x_max":649,"o":"m 303 664 q 314 641 314 664 q 253 458 314 618 q 189 288 192 299 l 193 288 q 226 335 197 293 q 272 398 256 378 q 320 459 288 418 q 378 524 353 500 q 438 574 404 547 q 567 625 503 625 q 649 547 649 625 q 593 400 649 504 q 482 202 538 296 q 426 93 426 108 q 442 78 426 78 q 514 117 472 78 q 539 139 524 125 q 563 157 558 157 q 576 140 576 157 q 497 46 576 113 q 366 -21 418 -21 q 314 28 314 -21 q 414 270 314 78 q 514 494 514 463 q 486 525 514 525 q 350 431 440 525 q 114 44 238 310 q 106 28 108 33 l 99 14 q 78 -15 86 -11 q 52 -18 69 -18 q 10 -3 35 -18 q 90 251 10 15 q 169 504 169 488 q 128 481 158 497 q 35 419 65 444 q 13 440 13 422 q 55 485 13 457 q 169 560 97 513 q 289 656 240 607 q 303 664 297 664 z "},"o":{"ha":472,"x_min":18,"x_max":454,"o":"m 380 146 q 362 109 380 146 q 285 23 344 72 q 161 -26 225 -26 q 58 28 97 -26 q 18 176 18 82 q 52 373 18 271 q 156 550 86 475 q 311 625 226 625 q 415 576 375 625 q 454 450 454 526 q 435 297 454 374 q 380 146 415 219 m 142 46 q 260 132 199 46 q 356 318 321 218 q 392 475 392 418 q 328 561 392 561 q 212 474 272 561 q 115 285 151 388 q 79 136 79 183 q 97 67 79 89 q 142 46 115 46 z "},"p":{"ha":694,"x_min":-158,"x_max":678,"o":"m 0 258 q 232 476 0 326 q 272 620 250 531 q 294 760 294 710 l 292 781 q 322 782 299 782 q 365 761 344 782 q 386 700 386 740 q 349 533 386 660 q 588 625 518 625 q 678 507 678 625 q 608 272 678 415 q 528 134 574 199 q 417 26 483 69 q 291 -18 351 -18 q 176 36 231 -18 q 89 -297 89 -240 l 89 -300 q 110 -335 92 -335 l 210 -335 q 225 -355 225 -335 q 192 -375 225 -375 q 7 -374 56 -374 l -146 -375 q -158 -357 -158 -375 q -132 -335 -158 -335 l -81 -335 q -47 -308 -56 -335 q 60 -12 -33 -268 q 208 411 154 244 q 19 231 67 315 l 17 231 q 0 258 0 242 m 496 521 q 331 471 431 521 q 213 131 315 422 q 272 73 231 104 q 336 42 313 42 q 430 112 376 42 q 520 275 483 182 q 557 431 557 368 q 496 521 557 521 z "},"q":{"ha":661,"x_min":0,"x_max":736,"o":"m 306 -219 q 282 -309 282 -283 q 300 -335 282 -335 l 400 -335 q 413 -350 413 -335 q 376 -375 413 -375 q 190 -374 240 -374 l 38 -375 q 28 -358 28 -375 q 57 -335 31 -335 l 108 -335 q 144 -308 131 -335 q 454 332 211 -167 l 451 335 q 158 14 256 82 q 76 -21 110 -21 q 21 3 42 -21 q 0 71 0 26 q 33 205 0 115 q 118 390 65 294 q 255 555 171 485 q 426 625 339 625 q 550 579 493 625 q 574 564 568 564 q 590 571 579 564 q 617 592 601 578 q 645 618 632 606 q 676 649 658 631 q 703 675 694 667 q 722 683 713 683 q 736 668 736 683 q 722 640 736 660 q 617 479 661 560 q 306 -219 485 264 m 510 482 q 459 539 496 511 q 375 567 422 567 q 265 483 328 567 q 162 294 203 399 q 121 129 121 190 q 153 88 121 88 q 326 238 192 88 q 510 482 460 389 z "},"r":{"ha":493,"x_min":28,"x_max":574,"o":"m 372 540 q 388 561 372 540 q 439 603 404 582 q 507 625 474 625 q 557 606 540 625 q 574 562 574 588 q 556 515 574 536 q 508 483 539 493 q 433 515 478 515 q 310 371 389 515 q 167 60 231 226 q 138 0 151 18 q 92 -18 124 -18 q 36 -3 61 -18 q 112 251 38 15 q 186 504 186 488 q 126 470 183 503 q 49 419 69 438 q 28 438 28 422 q 71 484 28 456 q 188 560 114 513 q 311 656 263 608 q 325 664 319 664 q 336 648 336 664 q 312 565 336 632 q 256 412 288 497 q 213 293 224 326 l 217 293 q 263 371 232 317 q 317 462 294 425 q 372 540 340 499 z "},"s":{"ha":431,"x_min":4,"x_max":424,"o":"m 311 171 q 311 129 311 171 q 247 32 311 88 q 101 -24 183 -24 q 29 -1 54 -24 q 4 50 4 21 q 24 96 4 79 q 74 113 44 113 q 158 40 110 40 q 203 60 186 40 q 219 111 219 79 q 160 268 219 167 q 101 417 101 369 q 170 567 101 510 q 318 625 239 625 q 398 603 372 625 q 424 547 424 582 q 402 503 419 518 q 338 485 385 488 q 311 541 332 521 q 261 561 290 561 q 207 538 232 561 q 182 481 182 515 q 202 407 182 446 q 247 336 222 368 q 311 171 311 254 z "},"t":{"ha":404,"x_min":19,"x_max":464,"o":"m 289 554 q 147 126 147 161 q 164 92 147 92 q 247 156 186 92 q 321 219 308 219 q 333 206 333 219 q 293 141 333 193 q 186 35 253 89 q 67 -18 119 -18 q 34 -5 49 -18 q 19 35 19 8 q 44 140 19 63 q 117 359 68 218 q 185 554 167 500 l 67 554 q 57 567 57 554 q 63 590 57 581 q 76 600 68 600 q 190 615 161 600 q 251 765 228 635 q 299 776 271 776 q 351 740 351 776 q 340 700 351 732 q 308 608 314 625 l 453 608 q 464 594 464 608 q 458 567 464 579 q 443 554 451 554 l 289 554 z "},"u":{"ha":682,"x_min":-8,"x_max":675,"o":"m 353 28 q 431 242 353 90 q 471 322 464 306 l 467 322 q 422 265 461 315 q 361 189 383 215 q 295 117 339 163 q 219 46 251 71 q 63 -19 133 -19 q -8 47 -8 -19 q 190 406 -8 118 q 257 517 257 503 q 243 532 257 532 q 210 522 229 532 q 181 503 192 513 q 122 456 139 472 q 115 453 117 453 q 104 475 103 453 q 190 564 106 497 q 325 631 275 631 q 375 586 375 631 q 253 340 375 542 q 132 110 132 139 q 157 81 132 81 q 299 178 201 81 q 558 550 410 289 q 571 572 563 557 q 583 594 579 588 q 594 611 588 601 q 631 628 608 628 q 675 613 653 628 q 570 353 674 597 q 467 88 467 110 q 490 65 467 65 q 544 95 514 65 q 585 169 574 125 q 593 174 588 174 q 608 158 608 174 q 542 42 608 104 q 403 -21 476 -21 q 353 28 353 -21 z "},"v":{"ha":624,"x_min":21,"x_max":600,"o":"m 57 104 q 156 411 57 201 q 189 500 189 482 q 174 518 189 518 q 43 415 135 518 q 33 413 38 413 q 25 419 29 413 q 21 435 21 426 q 56 490 21 444 q 153 580 92 535 q 256 625 214 625 q 308 617 297 625 q 318 578 318 608 q 240 388 318 549 q 163 182 163 226 q 233 94 163 94 q 424 211 329 94 q 518 468 518 328 q 478 575 518 522 q 503 611 485 597 q 544 625 521 625 q 600 542 600 625 q 565 385 600 479 q 474 201 531 292 q 337 47 418 111 q 174 -18 256 -18 q 57 104 57 -18 z "},"w":{"ha":901,"x_min":40,"x_max":890,"o":"m 533 -18 q 455 6 497 -18 q 392 82 413 29 q 150 -18 267 -18 q 58 90 58 -18 q 172 408 58 185 q 211 500 211 482 q 197 518 211 518 q 61 415 158 518 q 53 413 58 413 q 40 428 40 413 q 78 490 40 443 q 179 581 117 536 q 294 625 242 625 q 335 618 325 625 q 346 590 346 611 q 257 385 346 551 q 168 160 168 218 q 233 94 168 94 q 375 144 299 94 q 369 217 369 181 q 384 318 369 254 q 426 447 399 382 q 500 557 453 513 q 603 601 547 601 q 658 528 658 601 q 603 347 658 454 q 463 150 547 240 q 586 94 497 94 q 762 190 699 94 q 825 402 825 286 q 771 575 825 518 q 794 610 776 596 q 835 625 811 625 q 890 482 890 625 q 851 265 890 376 q 728 67 813 153 q 533 -18 643 -18 m 582 454 q 549 497 582 497 q 469 433 504 497 q 433 274 433 368 q 443 196 433 231 q 540 322 499 249 q 582 454 582 394 z "},"x":{"ha":714,"x_min":-54,"x_max":774,"o":"m 694 625 q 774 561 774 625 q 740 483 774 519 q 661 446 706 446 q 640 450 647 446 q 649 501 649 475 q 626 526 649 526 q 393 321 589 526 q 519 123 504 140 q 540 106 533 106 q 571 214 571 106 l 571 225 q 582 238 571 238 q 608 168 608 238 q 588 40 608 99 q 529 -18 567 -18 q 485 7 510 -18 q 324 244 446 50 q 88 8 169 58 q 11 -18 44 -18 q -38 4 -22 -18 q -54 62 -54 26 q -31 124 -54 97 q 33 151 -8 151 q 51 150 46 151 q 50 126 50 139 q 82 81 50 81 q 304 276 121 81 q 200 451 274 326 l 182 482 q 165 496 174 496 q 135 379 135 496 l 135 368 q 118 357 135 357 q 95 428 96 357 q 117 563 94 500 q 177 625 139 625 q 261 547 215 625 q 375 353 276 519 q 421 407 385 364 q 485 481 457 450 q 553 547 514 511 q 694 625 632 625 z "},"y":{"ha":528,"x_min":-265,"x_max":506,"o":"m 63 433 l 64 385 q 51 371 64 371 q 25 456 25 371 q 51 583 25 542 q 121 625 76 625 q 286 505 228 625 q 344 208 344 385 q 322 13 344 93 q 422 390 422 218 q 378 579 422 508 q 450 625 408 625 q 506 500 506 625 q 428 133 506 349 q 213 -247 351 -82 q 58 -374 146 -326 q -110 -422 -29 -422 q -228 -401 -192 -422 q -265 -343 -265 -379 q -206 -279 -265 -297 q -187 -292 -201 -282 q -167 -306 -174 -301 q -147 -317 -161 -310 q -125 -328 -133 -324 q -74 -336 -101 -336 q 114 -264 38 -336 q 258 157 258 -128 q 213 399 258 297 q 113 500 168 500 q 76 485 86 500 q 63 433 65 469 z "},"z":{"ha":610,"x_min":-46,"x_max":642,"o":"m 642 583 q 190 146 642 503 q 334 99 267 136 q 449 61 401 61 q 611 160 533 61 q 625 133 625 156 q 555 38 625 96 q 408 -21 485 -21 q 249 12 331 -21 q 111 44 168 44 q 25 6 50 44 q 7 -12 14 -11 q -22 -18 -8 -18 q -46 14 -46 -18 q 89 135 -46 67 q 278 292 146 179 q 501 479 410 404 q 238 435 333 435 q 110 482 143 435 q 97 526 97 499 q 135 599 97 554 q 163 583 140 596 q 199 565 186 569 q 242 553 213 561 q 389 539 292 539 q 567 543 486 539 l 628 610 q 642 583 642 600 z "},"{":{"ha":607,"x_min":53,"x_max":869,"o":"m 342 218 q 285 -57 342 125 q 229 -326 229 -239 q 282 -453 229 -412 q 471 -493 335 -493 q 499 -518 499 -493 q 493 -549 499 -532 q 476 -565 488 -565 q 222 -492 301 -565 q 142 -297 142 -418 q 192 -44 142 -212 q 242 215 242 124 q 107 336 242 336 l 67 333 q 53 352 53 333 q 60 390 53 371 q 82 410 68 408 q 122 407 104 407 q 258 453 208 407 q 329 574 308 500 q 363 736 350 647 q 401 915 376 825 q 472 1078 426 1004 q 615 1198 517 1151 q 861 1244 714 1244 q 869 1224 869 1244 q 858 1188 869 1204 q 825 1172 847 1172 q 561 1083 639 1172 q 474 876 494 1008 q 456 753 464 815 q 435 631 449 692 q 396 521 421 571 q 321 432 371 471 q 197 375 271 393 l 196 368 q 342 218 342 363 z "},"|":{"ha":283,"x_min":67,"x_max":392,"o":"m 88 -210 q 67 -204 79 -210 l 324 1001 q 371 1046 332 1046 l 392 1040 l 131 -168 q 88 -210 121 -210 z "},"}":{"ha":558,"x_min":-261,"x_max":567,"o":"m 425 375 q 278 533 278 381 q 328 768 278 608 q 378 1010 378 928 q 325 1132 378 1092 q 136 1172 272 1172 q 108 1197 108 1172 q 114 1228 108 1211 q 131 1244 119 1244 q 385 1171 306 1244 q 465 976 465 1097 q 422 753 465 900 q 379 528 379 606 q 514 407 379 407 l 554 410 q 567 374 567 410 q 539 333 567 338 q 499 336 517 336 q 353 281 400 336 q 285 122 307 226 q 255 -39 278 89 q 225 -203 232 -167 q 73 -462 192 -358 q -253 -565 -46 -565 q -261 -545 -261 -565 q -250 -509 -261 -525 q -217 -493 -239 -493 q -12 -453 -79 -493 q 46 -410 22 -432 q 86 -350 69 -387 q 124 -225 111 -287 q 160 -24 136 -162 q 192 149 185 114 q 269 303 211 242 q 424 368 326 364 l 425 375 z "},"~":{"ha":636,"x_min":101,"x_max":672,"o":"m 335 431 l 463 419 q 639 536 592 419 q 656 547 643 547 q 672 532 672 547 q 672 525 672 529 q 595 390 654 444 q 451 335 536 335 q 381 343 425 335 q 314 351 336 351 q 208 320 257 351 q 136 231 160 289 q 119 219 132 219 q 101 238 101 219 q 101 246 101 242 q 185 380 122 329 q 335 431 249 431 z "},"":{"ha":440,"x_min":78,"x_max":393,"o":"m 269 368 q 299 339 299 368 q 281 235 299 310 q 225 -174 225 15 q 238 -308 225 -254 q 129 -347 168 -347 q 78 -276 78 -347 q 149 35 78 -175 q 236 356 221 246 q 269 368 253 368 m 258 488 q 247 499 258 488 q 235 543 235 511 q 258 599 235 575 q 314 622 282 622 q 369 599 346 622 q 393 543 393 575 q 369 488 393 511 q 314 464 346 464 q 258 488 282 464 z "},"":{"ha":563,"x_min":43,"x_max":558,"o":"m 368 392 q 383 372 383 392 q 315 275 383 353 q 179 171 247 197 q 115 -1 125 18 q 74 -33 104 -33 q 51 -28 63 -33 l 118 160 q 65 192 88 164 q 43 266 43 221 q 63 385 43 311 q 119 538 83 458 q 214 689 156 618 q 339 788 272 760 l 406 972 q 447 1010 419 1010 q 479 1000 460 1010 q 408 804 449 918 q 426 806 417 806 q 558 729 558 806 q 536 690 558 707 q 482 672 514 674 q 383 747 447 747 q 279 669 333 747 q 192 492 225 590 q 160 350 160 394 q 195 268 160 268 q 269 299 231 268 q 334 361 307 331 q 368 392 361 392 z "},"":{"ha":822,"x_min":21,"x_max":838,"o":"m 549 506 q 553 502 553 506 q 549 481 553 499 q 544 448 544 463 q 532 433 544 433 l 397 446 l 397 424 q 325 160 397 289 q 396 136 353 153 q 584 103 488 103 q 735 181 681 103 q 751 189 742 189 q 760 179 760 189 q 757 169 760 178 q 723 113 736 133 q 678 56 710 93 q 517 -18 614 -18 q 422 -1 463 -18 q 339 46 382 15 q 274 88 296 76 q 85 -18 183 -18 q 38 -3 56 -18 q 21 33 21 11 q 83 134 21 97 q 222 171 144 171 q 246 169 228 171 q 268 280 268 214 q 240 443 268 346 q 160 440 240 443 q 151 453 151 440 q 158 476 151 465 q 172 488 164 488 q 200 485 181 488 q 231 483 219 483 q 217 583 217 536 q 326 836 217 722 q 581 950 436 950 q 785 849 701 950 q 803 867 800 864 q 818 876 810 876 q 832 872 826 876 q 838 862 838 867 q 836 856 838 857 q 719 656 763 765 q 708 650 718 650 q 690 656 699 650 q 681 669 681 661 q 694 704 681 676 q 714 750 708 732 q 710 765 713 756 q 699 796 708 774 q 675 835 689 818 q 635 867 661 853 q 575 882 608 882 q 426 815 488 882 q 365 656 365 747 q 377 563 365 617 q 392 488 389 510 l 549 506 m 97 29 q 214 107 158 29 q 167 110 194 110 q 106 94 140 110 q 71 53 71 79 q 97 29 71 29 z "},"":{"ha":803,"x_min":0,"x_max":818,"o":"m 101 404 q 214 678 101 550 l 150 740 q 131 781 131 760 q 190 844 131 819 q 250 744 204 811 l 265 722 q 476 796 365 796 q 657 722 588 796 q 785 844 751 808 q 818 789 818 828 q 781 740 818 764 l 689 678 q 717 553 717 626 q 604 281 717 408 l 669 218 q 688 179 688 200 q 629 114 688 139 l 554 236 q 341 163 453 163 q 163 236 229 163 q 35 114 67 150 q 0 160 0 131 q 39 218 0 190 l 129 281 q 101 404 101 336 m 361 247 q 553 335 474 247 q 632 542 632 424 q 582 668 632 625 q 458 711 532 711 q 267 624 346 711 q 188 418 188 536 q 238 291 188 335 q 361 247 288 247 z "},"":{"ha":1046,"x_min":42,"x_max":1097,"o":"m 932 932 l 1088 935 q 1097 923 1097 935 q 1092 900 1097 911 q 1078 889 1086 889 l 1043 889 q 978 867 1008 889 q 752 684 885 800 q 561 497 619 568 l 717 500 q 760 494 747 500 q 772 472 772 488 q 768 440 772 457 l 528 440 l 497 281 l 672 283 q 716 277 703 283 q 729 255 729 271 q 724 224 729 239 l 483 224 q 458 72 458 99 q 475 46 458 46 l 556 46 q 563 35 563 46 q 546 0 563 0 l 374 1 l 181 -3 q 174 19 174 -3 q 190 44 179 44 l 250 44 q 299 58 285 44 q 321 108 314 71 l 346 224 l 146 224 q 106 263 106 224 l 107 276 q 358 278 257 276 q 389 440 390 433 l 190 440 q 150 478 150 440 l 151 493 q 367 494 278 493 q 189 801 326 588 q 133 873 154 856 q 92 890 113 890 l 47 890 q 42 903 42 890 q 47 925 42 915 q 57 935 51 935 l 228 932 l 425 935 q 432 912 432 935 q 415 889 432 889 l 318 888 q 356 821 318 881 q 508 526 472 639 q 667 694 547 575 q 806 837 788 813 q 824 876 824 861 q 814 890 825 890 l 760 890 q 750 901 750 890 q 756 924 750 913 q 769 935 761 935 l 932 932 z "},"":{"ha":353,"x_min":50,"x_max":375,"o":"m 71 -210 q 50 -204 63 -210 l 154 292 q 174 316 158 308 q 204 322 190 324 l 218 322 l 114 -168 q 71 -210 104 -210 m 264 533 q 247 515 261 519 q 226 510 233 510 q 217 510 219 510 l 203 511 l 307 1001 q 354 1046 315 1046 l 375 1040 l 264 533 z "},"":{"ha":779,"x_min":-26,"x_max":786,"o":"m 126 546 q 212 781 126 683 q 449 922 297 878 q 625 992 543 992 q 747 965 707 992 q 786 899 786 939 q 699 796 786 842 q 565 922 660 922 q 480 872 510 922 q 450 760 450 821 q 483 621 450 700 q 557 475 517 542 q 631 316 597 408 q 664 142 664 224 q 306 -224 664 -143 q 229 -265 279 -246 q 118 -283 179 -283 q 15 -252 57 -283 q -26 -176 -26 -221 q 56 -64 -26 -115 q 108 -158 65 -117 q 192 -200 151 -200 q 290 -138 258 -200 q 321 -1 321 -76 q 290 149 321 74 q 224 277 260 224 q 157 403 188 331 q 126 546 126 476 m 236 639 q 331 383 236 540 q 394 241 365 325 q 424 78 424 157 q 349 -169 424 -47 q 494 -61 443 -137 q 546 105 546 15 q 517 278 546 194 q 455 423 489 361 q 392 563 421 485 q 364 718 364 640 q 408 864 364 796 q 236 639 236 775 z "},"":{"ha":403,"x_min":33,"x_max":407,"o":"m 155 792 q 145 782 155 792 q 104 771 135 771 q 53 792 74 771 q 33 844 33 814 q 54 893 33 874 q 103 913 75 913 q 153 892 132 913 q 175 843 175 872 q 155 792 175 814 m 387 792 q 377 782 387 792 q 336 771 367 771 q 285 792 306 771 q 265 843 265 814 q 287 892 265 872 q 336 913 308 913 q 385 892 364 913 q 407 843 407 872 q 387 792 407 814 z "},"":{"ha":971,"x_min":56,"x_max":915,"o":"m 130 613 q 167 673 130 613 q 330 804 204 732 q 603 876 456 876 q 833 790 751 876 q 915 554 915 703 q 762 192 915 350 q 396 33 608 33 q 147 125 238 33 q 56 356 56 217 q 130 613 56 494 m 586 828 q 258 692 401 828 q 114 372 114 557 q 193 162 114 242 q 406 82 272 82 q 723 222 586 82 q 860 546 860 361 q 788 752 860 676 q 586 828 717 828 m 572 217 q 463 197 507 197 q 294 251 361 197 q 226 392 226 304 q 338 628 226 531 q 581 726 449 726 q 611 725 601 726 l 672 718 q 710 726 699 718 q 728 735 721 735 q 749 721 735 735 q 716 661 732 703 q 700 593 700 619 q 676 574 700 574 q 651 583 651 574 q 657 603 653 590 q 661 631 661 617 q 559 674 661 674 q 392 594 457 674 q 328 407 328 514 q 372 292 328 336 q 479 249 417 249 q 600 294 542 249 l 618 343 q 637 357 622 357 q 660 335 651 357 q 622 238 635 289 q 592 186 610 186 q 569 192 575 186 l 572 217 z "},"":{"ha":381,"x_min":19,"x_max":408,"o":"m 117 543 l 256 538 q 365 551 313 538 q 367 531 369 543 q 322 485 360 499 q 242 472 283 472 l 93 479 q 25 472 46 479 q 19 493 19 483 q 117 543 19 543 m 219 618 q 283 778 219 633 l 281 779 q 89 593 140 593 q 49 635 49 593 q 75 746 49 678 q 153 874 101 814 q 261 935 206 935 q 317 919 293 935 l 339 906 q 371 928 353 906 q 394 951 389 951 q 408 935 408 951 q 402 917 408 928 q 388 890 396 906 q 360 840 379 875 q 319 749 342 804 q 297 682 297 693 q 306 671 297 671 q 344 699 317 671 q 378 726 371 726 q 385 713 385 726 q 332 648 385 700 q 243 594 279 596 q 219 618 219 594 m 296 864 q 244 896 282 896 q 165 822 207 896 q 124 696 124 747 q 139 674 124 674 q 215 743 158 674 q 296 864 271 813 z "},"":{"ha":529,"x_min":13,"x_max":538,"o":"m 118 307 q 173 231 139 272 q 222 167 207 189 q 236 133 236 144 q 233 111 236 122 q 208 82 231 100 q 122 194 171 138 q 43 278 74 250 l 13 307 q 304 532 168 407 q 283 450 332 496 q 205 383 257 425 q 118 307 153 340 m 526 532 q 538 508 538 518 q 508 452 538 479 q 427 383 479 425 q 340 307 375 340 q 395 231 361 272 q 444 167 429 189 q 458 133 458 144 q 456 111 458 122 q 431 82 453 100 q 344 194 393 138 q 265 278 296 250 l 235 307 q 526 532 390 407 z "},"":{"ha":686,"x_min":21,"x_max":686,"o":"m 308 494 l 668 500 q 686 482 686 500 q 672 419 686 468 l 619 196 q 546 153 610 153 l 614 440 q 61 435 472 435 q 21 478 21 435 l 22 494 l 308 494 z "},"":{"ha":971,"x_min":56,"x_max":915,"o":"m 130 613 q 167 673 130 613 q 330 804 204 732 q 603 876 456 876 q 833 790 751 876 q 915 554 915 703 q 762 192 915 350 q 396 33 608 33 q 147 125 238 33 q 56 356 56 217 q 130 613 56 494 m 472 443 q 456 446 458 443 l 449 421 q 383 251 418 296 q 418 248 393 251 q 460 244 443 244 q 422 208 449 208 q 303 219 356 219 q 242 211 250 219 q 283 253 242 249 q 350 374 331 257 q 407 678 400 601 q 310 646 372 678 q 301 665 301 657 q 371 708 303 686 q 519 729 439 729 q 657 692 599 729 q 715 590 715 654 q 671 487 715 526 q 558 438 626 447 q 594 389 569 426 l 629 332 q 672 273 646 303 q 716 243 697 243 q 760 264 735 243 q 860 535 860 393 q 788 752 860 676 q 586 828 717 828 q 258 692 401 828 q 114 372 114 557 q 193 162 114 242 q 406 82 272 82 q 708 207 576 82 q 668 201 692 201 q 588 251 626 201 q 472 443 550 301 m 463 488 q 517 479 483 479 q 585 508 551 479 q 621 585 619 538 q 592 660 622 632 q 518 688 561 688 q 494 657 501 688 l 463 488 z "},"":{"ha":358,"x_min":10,"x_max":369,"o":"m 314 871 q 369 835 369 871 q 365 807 369 822 l 53 807 q 19 822 29 807 q 11 850 10 836 l 14 864 l 314 871 z "},"":{"ha":371,"x_min":19,"x_max":375,"o":"m 233 933 q 335 893 296 933 q 375 783 375 853 q 309 650 375 714 q 170 586 243 586 q 58 625 97 586 q 19 734 19 664 q 84 869 19 804 q 233 933 149 933 m 67 742 q 67 716 67 742 q 96 660 67 690 q 176 631 125 631 q 278 677 228 631 q 328 776 328 724 q 298 858 328 828 q 215 888 268 888 q 115 841 163 888 q 67 742 67 794 z "},"":{"ha":678,"x_min":6,"x_max":665,"o":"m 488 696 q 500 696 493 696 l 450 463 l 610 467 q 665 425 665 467 q 661 400 665 414 l 438 400 l 399 218 q 375 186 393 194 q 342 181 357 178 l 326 185 q 347 286 332 211 q 369 400 361 361 l 189 400 q 156 415 165 400 q 147 444 146 431 l 150 460 q 381 463 208 460 l 414 631 q 488 696 426 696 m 651 28 q 647 1 651 17 l 49 1 q 15 17 25 1 q 8 47 6 32 l 10 63 l 596 69 q 651 28 651 69 z "},"":{"ha":469,"x_min":17,"x_max":439,"o":"m 344 840 q 290 893 344 893 q 224 865 253 893 q 194 805 194 838 q 201 758 194 772 q 151 733 176 733 q 113 746 126 733 q 99 779 99 758 q 169 884 99 835 q 301 933 239 933 q 401 908 364 933 q 439 837 439 882 q 413 749 439 792 q 338 667 386 706 q 154 547 263 607 l 157 543 q 193 544 168 544 q 382 582 319 544 l 394 619 q 409 628 397 628 q 426 624 421 628 q 432 619 432 621 q 388 464 406 543 q 369 456 388 456 q 351 464 351 456 l 357 486 l 25 486 q 17 494 17 486 q 44 517 18 503 q 119 565 71 532 q 220 644 167 599 q 309 743 274 690 q 344 840 344 796 z "},"":{"ha":435,"x_min":32,"x_max":411,"o":"m 178 414 q 279 459 239 414 q 319 564 319 504 q 253 671 319 640 q 175 647 193 647 q 157 660 157 647 q 183 686 157 676 q 242 696 208 696 q 302 754 275 715 q 329 833 329 793 q 276 903 329 903 q 222 885 247 903 q 196 847 196 867 q 204 813 196 828 q 171 792 192 792 q 138 801 150 792 q 125 825 125 810 q 178 901 125 868 q 288 933 232 933 q 377 909 343 933 q 411 843 411 885 q 372 758 411 801 q 283 688 333 715 q 400 574 400 653 q 327 441 400 496 q 158 386 254 386 q 67 407 103 386 q 32 458 32 428 q 74 504 32 504 q 103 497 85 504 q 123 436 103 458 q 178 414 143 414 z "},"":{"ha":331,"x_min":40,"x_max":319,"o":"m 74 671 q 56 667 69 667 q 40 679 43 667 q 69 723 40 685 q 143 845 99 761 q 210 958 188 929 q 264 988 233 988 q 319 939 319 988 q 74 671 319 869 z "},"":{"ha":783,"x_min":-6,"x_max":789,"o":"m 467 28 q 544 242 467 90 q 585 322 578 306 l 581 322 q 515 238 565 306 q 423 121 464 171 q 325 26 382 71 q 224 -18 268 -18 q 175 -3 199 -18 q 119 -276 119 -132 q 121 -326 119 -301 q 93 -328 107 -328 q 22 -302 49 -328 q -6 -226 -6 -276 q 53 -18 -6 -147 q 183 220 113 111 q 312 419 253 329 q 371 521 371 510 q 357 532 371 532 q 324 522 343 532 q 294 503 306 513 q 236 456 253 472 q 229 453 231 453 q 218 475 217 453 q 304 564 219 497 q 439 631 389 631 q 489 586 489 631 q 367 340 489 542 q 246 110 246 139 q 271 81 246 81 q 413 178 315 81 q 672 550 524 289 q 685 572 676 557 q 697 594 693 588 q 708 611 701 601 q 744 628 722 628 q 789 613 767 628 q 684 353 788 597 q 581 88 581 110 q 604 65 581 65 q 658 95 628 65 q 699 169 688 125 q 707 174 701 174 q 722 158 722 174 q 656 42 722 104 q 517 -21 590 -21 q 467 28 467 -21 z "},"":{"ha":725,"x_min":-61,"x_max":864,"o":"m 678 932 l 854 935 q 864 925 861 935 q 843 889 864 889 l 760 889 q 694 767 731 889 l 538 246 q 414 -71 478 46 q 244 -252 350 -187 q 46 -317 138 -317 q -32 -295 -3 -317 q -61 -235 -61 -274 q -4 -157 -61 -182 q 66 -205 22 -183 q 146 -226 110 -226 q 392 233 251 -226 l 586 885 q 532 881 533 883 q 388 443 435 575 q 290 426 338 426 q 157 469 201 426 q 108 583 113 513 l 110 619 q 124 688 113 657 q 518 932 197 932 l 678 932 z "},"":{"ha":271,"x_min":43,"x_max":225,"o":"m 79 413 q 97 428 79 413 q 152 443 115 443 q 207 420 189 443 q 225 381 225 397 q 188 293 225 325 q 115 261 151 261 q 60 285 78 261 q 43 326 43 308 q 79 413 43 382 z "},"":{"ha":285,"x_min":32,"x_max":261,"o":"m 157 -69 q 231 -87 201 -69 q 261 -136 261 -106 q 219 -213 261 -187 q 137 -239 176 -239 q 65 -221 97 -239 q 32 -178 32 -203 q 33 -168 32 -174 q 65 -140 40 -140 q 94 -160 90 -140 q 97 -199 72 -182 q 131 -208 113 -208 q 197 -158 186 -208 q 199 -137 199 -150 q 180 -111 199 -124 q 141 -99 161 -99 q 110 -99 121 -99 q 93 -100 99 -100 l 153 0 l 192 0 l 151 -69 q 157 -69 154 -69 z "},"":{"ha":383,"x_min":29,"x_max":390,"o":"m 246 928 l 385 931 q 390 925 390 931 q 388 906 390 919 q 378 892 386 892 l 308 892 q 293 876 294 892 l 233 600 q 226 547 226 564 q 229 526 226 529 q 239 524 232 524 l 300 524 q 304 504 308 524 q 293 485 300 485 l 163 486 l 33 483 q 29 489 29 483 q 33 508 29 494 q 40 522 36 522 l 110 522 q 126 538 122 522 l 182 801 q 192 867 192 843 q 179 890 192 890 l 119 890 q 113 910 108 890 q 125 929 117 929 l 246 928 z "},"":{"ha":358,"x_min":10,"x_max":375,"o":"m 178 596 q 104 629 129 596 q 79 714 79 663 q 135 876 79 800 q 274 953 190 953 q 349 920 324 953 q 375 835 375 888 q 319 673 375 750 q 178 596 263 596 m 200 636 q 274 699 242 636 q 306 826 306 763 q 254 907 306 907 q 180 843 213 907 q 147 708 147 779 q 200 636 147 636 m 106 543 l 244 538 q 354 551 301 538 q 357 540 357 546 q 231 472 347 472 l 82 479 q 14 472 35 479 q 10 493 10 483 l 10 500 q 106 543 18 543 z "},"":{"ha":542,"x_min":22,"x_max":546,"o":"m 440 307 q 387 383 421 342 q 338 447 353 425 q 324 481 324 469 q 326 503 324 492 q 351 532 329 514 q 438 420 389 476 q 517 336 486 364 l 546 307 q 256 82 392 207 q 276 164 228 118 q 354 231 303 189 q 440 307 406 272 m 33 82 q 22 106 22 96 q 51 162 22 135 q 132 231 81 189 q 218 307 183 272 q 165 383 199 342 q 116 447 131 425 q 101 481 101 469 q 104 503 101 492 q 129 532 107 514 q 215 420 167 476 q 294 336 264 364 l 324 307 q 33 82 169 207 z "},"":{"ha":1006,"x_min":46,"x_max":1006,"o":"m 125 -15 q 81 -46 97 -46 q 46 -22 65 -46 l 928 947 q 967 974 953 974 q 1006 950 988 974 q 221 90 546 446 l 125 -15 m 300 928 l 439 931 q 444 911 444 931 q 432 892 444 892 l 363 892 q 347 876 349 892 l 288 600 q 281 544 281 565 q 293 524 281 524 l 354 524 q 358 504 358 524 q 347 485 358 485 l 217 486 l 88 483 q 83 489 83 483 q 94 522 83 522 l 164 522 q 181 538 176 522 l 236 801 q 246 868 246 846 q 233 890 246 890 l 174 890 q 167 910 167 890 q 179 929 167 929 l 300 928 m 683 -89 l 576 -92 q 574 -77 572 -92 q 581 -62 575 -62 l 621 -62 q 642 -39 638 -62 l 667 79 l 454 79 q 446 94 446 79 q 464 125 446 108 l 807 457 q 838 436 838 457 q 775 186 808 347 l 763 126 l 835 126 q 844 114 844 126 q 825 79 844 79 l 753 79 l 722 -60 l 764 -58 q 769 -73 769 -58 q 760 -89 769 -87 l 683 -89 m 715 318 l 515 125 l 676 125 l 719 317 l 715 318 z "},"":{"ha":1006,"x_min":46,"x_max":1006,"o":"m 126 -12 q 126 -14 126 -14 q 125 -15 125 -14 q 81 -46 97 -46 q 46 -22 65 -46 l 928 947 q 967 974 953 974 q 1006 950 988 974 l 126 -12 m 806 354 q 751 407 806 407 q 683 378 713 407 q 654 316 654 349 q 661 272 654 283 q 613 247 639 247 q 574 260 588 247 q 560 292 560 272 q 629 399 560 350 q 762 447 699 447 q 863 422 825 447 q 900 350 900 396 q 874 262 900 304 q 797 181 847 219 q 615 61 718 118 l 617 57 q 653 58 628 58 q 842 96 782 58 l 856 133 q 876 142 858 142 q 893 133 893 142 q 849 -22 867 57 q 838 -31 847 -31 q 822 -28 828 -31 q 813 -22 813 -24 l 818 0 l 486 0 q 479 9 478 0 q 490 24 481 18 q 683 161 582 76 q 771 258 736 206 q 806 354 806 310 m 299 928 l 438 931 q 443 911 443 931 q 431 892 443 892 l 361 892 q 346 876 347 892 l 286 600 q 279 544 279 565 q 292 524 279 524 l 353 524 q 357 504 357 524 q 346 485 357 485 l 215 486 l 86 483 q 82 489 82 483 q 93 522 82 522 l 163 522 q 179 538 175 522 l 235 801 q 244 868 244 846 q 232 890 244 890 l 172 890 q 165 910 165 890 q 178 929 165 929 l 299 928 z "},"":{"ha":1011,"x_min":46,"x_max":1011,"o":"m 132 -12 q 86 -46 101 -46 q 51 -22 71 -46 l 933 947 q 972 974 958 974 q 1011 950 993 974 l 132 -12 m 192 414 q 293 459 253 414 q 333 564 333 504 q 267 671 333 640 q 189 647 207 647 q 171 660 171 647 q 197 686 171 676 q 256 696 222 696 q 316 754 289 715 q 343 833 343 793 q 290 903 343 903 q 235 885 261 903 q 210 847 210 867 q 218 813 210 828 q 185 792 206 792 q 151 801 164 792 q 139 825 139 810 q 192 901 139 868 q 301 933 246 933 q 391 909 357 933 q 425 843 425 885 q 386 758 425 801 q 297 688 347 715 q 414 574 414 653 q 341 441 414 496 q 172 386 268 386 q 81 407 117 386 q 46 458 46 428 q 88 504 46 504 q 117 497 99 504 q 137 436 117 458 q 192 414 157 414 m 690 -89 l 583 -92 q 581 -77 579 -92 q 588 -62 582 -62 l 628 -62 q 649 -39 644 -62 l 674 79 l 461 79 q 453 94 453 79 q 471 125 453 108 l 814 457 q 844 436 844 457 q 782 186 815 347 l 769 126 l 842 126 q 851 114 851 126 q 832 79 851 79 l 760 79 l 729 -60 l 771 -58 q 776 -73 776 -58 q 767 -89 776 -87 l 690 -89 m 722 318 l 522 125 l 683 125 l 726 317 l 722 318 z "},"":{"ha":558,"x_min":46,"x_max":492,"o":"m 451 285 q 479 216 479 285 q 445 99 479 147 q 363 26 411 50 q 264 -19 314 1 q 147 -157 147 -71 q 190 -223 147 -199 q 285 -256 233 -247 q 383 -293 338 -265 q 429 -360 428 -321 q 419 -424 431 -399 q 397 -461 408 -450 l 388 -471 q 304 -401 364 -431 q 189 -356 244 -371 q 90 -305 133 -340 q 46 -215 46 -269 q 86 -76 46 -133 q 183 13 126 -18 q 297 72 240 44 q 435 239 435 138 l 428 274 q 451 285 439 285 m 333 407 q 333 424 333 407 q 356 465 333 440 q 412 489 379 489 q 468 466 444 489 q 492 411 492 443 q 470 355 492 379 q 416 331 449 331 q 358 352 383 331 q 333 407 333 374 z "},"":{"ha":775,"x_min":-167,"x_max":807,"o":"m 628 1041 q 594 1062 628 1041 q 530 1108 560 1083 q 500 1156 500 1133 q 513 1192 500 1179 q 556 1206 526 1206 q 616 1176 586 1206 q 688 1086 646 1147 q 749 1005 729 1025 q 768 979 768 985 q 752 967 765 967 q 718 983 739 967 q 628 1041 697 999 m 608 1 l 431 -3 q 419 10 419 -3 q 440 44 419 44 l 517 44 q 551 79 551 44 q 532 235 551 110 q 506 415 513 361 q 411 417 468 417 q 281 413 354 417 q 90 67 158 207 q 99 46 82 46 l 192 46 q 201 23 201 46 q 179 0 201 0 l -1 1 q -156 -3 -1 1 q -167 11 -167 -3 q -146 44 -167 44 l -81 44 q -28 75 -49 44 q 103 264 8 129 q 419 757 288 525 q 535 902 474 850 q 649 954 596 954 q 688 915 688 954 q 624 880 643 901 q 604 824 604 858 q 650 302 604 558 q 751 46 696 46 l 796 46 q 807 23 807 46 q 789 0 807 0 l 608 1 m 314 468 q 435 467 393 467 q 499 467 476 467 q 475 726 475 639 l 469 726 q 314 468 443 681 z "},"":{"ha":775,"x_min":-167,"x_max":807,"o":"m 709 1107 q 694 1094 709 1107 q 610 1040 679 1082 q 521 981 542 997 q 487 965 500 965 q 471 978 474 965 q 490 1003 471 983 q 551 1085 510 1024 q 623 1175 593 1146 q 683 1204 653 1204 q 739 1156 739 1204 q 709 1107 739 1132 m 608 1 l 431 -3 q 419 10 419 -3 q 440 44 419 44 l 517 44 q 551 79 551 44 q 532 235 551 110 q 506 415 513 361 q 411 417 468 417 q 281 413 354 417 q 90 67 158 207 q 99 46 82 46 l 192 46 q 201 23 201 46 q 179 0 201 0 l -1 1 l -156 -3 q -167 11 -167 -3 q -146 44 -167 44 l -81 44 q -28 75 -49 44 q 103 264 8 129 q 419 757 288 525 q 535 902 474 850 q 649 954 596 954 q 688 915 688 954 q 624 880 643 901 q 604 824 604 858 q 650 302 604 558 q 751 46 696 46 l 796 46 q 807 23 807 46 q 789 0 807 0 l 608 1 m 314 468 q 435 467 393 467 q 499 467 476 467 q 475 726 475 639 l 469 726 q 314 468 443 681 z "},"":{"ha":775,"x_min":-167,"x_max":807,"o":"m 481 975 q 457 964 468 964 q 443 975 446 964 l 615 1167 q 652 1185 633 1185 q 685 1167 671 1185 l 785 975 q 766 965 778 965 q 746 975 754 965 l 635 1092 l 481 975 m 608 1 l 431 -3 q 419 10 419 -3 q 440 44 419 44 l 517 44 q 551 79 551 44 q 532 235 551 110 q 506 415 513 361 q 411 417 468 417 q 281 413 354 417 q 90 67 158 207 q 99 46 82 46 l 192 46 q 201 23 201 46 q 179 0 201 0 l -1 1 l -156 -3 q -167 11 -167 -3 q -146 44 -167 44 l -81 44 q -28 75 -49 44 q 103 264 8 129 q 419 757 288 525 q 535 902 474 850 q 649 954 596 954 q 688 915 688 954 q 624 880 643 901 q 604 824 604 858 q 650 302 604 558 q 751 46 696 46 l 796 46 q 807 23 807 46 q 789 0 807 0 l 608 1 m 314 468 q 435 467 393 467 q 499 467 476 467 q 475 726 475 639 l 469 726 q 314 468 443 681 z "},"":{"ha":775,"x_min":-167,"x_max":813,"o":"m 782 1163 q 798 1171 783 1171 q 813 1156 813 1171 q 811 1149 813 1153 q 672 1014 775 1014 q 606 1022 647 1014 q 539 1031 564 1031 q 426 972 457 1031 q 411 963 422 963 q 396 986 390 963 q 455 1081 413 1046 q 532 1117 497 1117 q 608 1108 567 1117 q 683 1100 649 1100 q 740 1110 717 1100 q 782 1163 764 1121 m 608 1 l 431 -3 q 419 10 419 -3 q 440 44 419 44 l 517 44 q 551 79 551 44 q 532 235 551 110 q 506 415 513 361 q 411 417 468 417 q 281 413 354 417 q 90 67 158 207 q 99 46 82 46 l 192 46 q 201 23 201 46 q 179 0 201 0 l -1 1 l -156 -3 q -167 11 -167 -3 q -146 44 -167 44 l -81 44 q -28 75 -49 44 q 103 264 8 129 q 419 757 288 525 q 535 902 474 850 q 649 954 596 954 q 688 915 688 954 q 624 880 643 901 q 604 824 604 858 q 650 302 604 558 q 751 46 696 46 l 796 46 q 807 23 807 46 q 789 0 807 0 q 608 1 789 0 m 314 468 q 435 467 393 467 q 499 467 476 467 q 475 726 475 639 l 469 726 q 314 468 443 681 z "},"":{"ha":775,"x_min":-167,"x_max":807,"o":"m 572 1060 q 572 1047 572 1060 q 553 1013 572 1033 q 506 993 533 993 q 460 1013 478 993 q 442 1060 442 1032 q 461 1106 442 1088 q 506 1124 481 1124 q 552 1105 532 1124 q 572 1060 572 1086 m 778 1060 q 778 1046 778 1060 q 760 1013 778 1032 q 713 993 742 993 q 666 1013 685 993 q 647 1060 647 1033 q 667 1106 647 1088 q 713 1124 686 1124 q 758 1106 739 1124 q 778 1060 778 1088 m 608 1 l 431 -3 q 419 10 419 -3 q 440 44 419 44 l 517 44 q 551 79 551 44 q 532 235 551 110 q 506 415 513 361 q 411 417 468 417 q 281 413 354 417 q 90 67 158 207 q 99 46 82 46 l 192 46 q 201 23 201 46 q 179 0 201 0 q -1 1 179 0 l -156 -3 q -167 11 -167 -3 q -146 44 -167 44 l -81 44 q -28 75 -49 44 q 103 264 8 129 q 419 757 288 525 q 535 902 474 850 q 649 954 596 954 q 688 915 688 954 q 624 880 643 901 q 604 824 604 858 q 650 302 604 558 q 751 46 696 46 l 796 46 q 807 23 807 46 q 789 0 807 0 l 608 1 m 314 468 q 435 467 393 467 q 499 467 476 467 q 475 726 475 639 l 469 726 q 314 468 443 681 z "},"":{"ha":775,"x_min":-167,"x_max":807,"o":"m 688 1097 q 688 1073 688 1097 q 655 1018 688 1050 q 576 986 622 986 q 495 1019 529 986 q 461 1097 461 1051 q 494 1174 461 1142 q 573 1206 528 1206 q 653 1174 618 1206 q 688 1097 688 1143 m 503 1096 q 503 1081 503 1096 q 524 1043 503 1065 q 576 1021 546 1021 q 626 1044 606 1021 q 647 1097 647 1067 q 626 1149 647 1126 q 574 1172 604 1172 q 523 1149 543 1172 q 503 1096 503 1126 m 608 1 l 431 -3 q 419 10 419 -3 q 440 44 419 44 l 517 44 q 551 79 551 44 q 532 235 551 110 q 506 415 513 361 q 411 417 468 417 q 281 413 354 417 q 90 67 158 207 q 99 46 82 46 l 192 46 q 201 23 201 46 q 179 0 201 0 q -1 1 179 0 l -156 -3 q -167 11 -167 -3 q -146 44 -167 44 l -81 44 q -28 75 -49 44 q 103 264 8 129 q 419 757 288 525 q 535 902 474 850 q 649 954 596 954 q 688 915 688 954 q 624 880 643 901 q 604 824 604 858 q 650 302 604 558 q 751 46 696 46 l 796 46 q 807 23 807 46 q 789 0 807 0 l 608 1 m 314 468 q 435 467 393 467 q 499 467 476 467 q 475 726 475 639 l 469 726 q 314 468 443 681 z "},"":{"ha":1231,"x_min":-264,"x_max":1271,"o":"m 651 935 l 824 932 l 1222 932 l 1231 961 q 1252 974 1233 974 q 1271 963 1271 974 q 1261 921 1271 958 q 1235 750 1235 808 q 1213 739 1235 739 q 1190 751 1192 739 q 1161 851 1190 835 q 932 881 1096 879 q 893 866 907 881 q 872 817 879 851 l 796 489 q 967 497 883 490 q 1057 508 1050 504 l 1090 590 q 1115 600 1096 600 q 1133 590 1133 600 q 1128 572 1133 589 q 1078 343 1088 444 q 1055 332 1075 332 q 1035 339 1035 332 l 1036 424 q 788 444 1008 439 q 711 82 711 142 q 728 56 711 56 l 796 56 q 974 72 889 56 q 1104 114 1060 88 l 1132 190 q 1157 201 1136 201 q 1178 193 1178 201 q 1169 161 1178 190 q 1115 -31 1129 36 q 1093 -40 1114 -40 q 1072 -32 1072 -40 l 1081 0 l 738 0 l 428 -3 q 419 10 419 -3 q 439 44 419 44 l 499 44 q 547 58 533 44 q 569 108 561 71 l 647 444 q 376 439 454 444 q 206 269 307 365 q 52 119 104 172 q 0 51 0 67 q 11 46 0 46 l 93 46 q 105 32 104 46 q 99 9 106 18 q 83 0 93 0 l -82 1 l -251 -3 q -264 11 -264 -3 q -264 18 -264 15 q -244 44 -264 44 q -108 75 -143 44 q 313 468 24 190 q 736 861 601 746 q 736 876 738 864 q 721 889 735 889 l 640 889 q 633 901 633 889 q 651 935 633 935 m 719 758 q 436 497 581 638 q 657 489 544 489 l 719 758 z "},"":{"ha":886,"x_min":24,"x_max":974,"o":"m 818 697 q 838 785 838 765 q 787 850 836 825 q 646 875 738 875 q 403 801 508 875 q 244 611 297 726 q 192 363 192 496 q 278 147 192 229 q 485 64 364 64 q 721 154 606 64 l 757 246 q 778 263 767 263 q 811 225 794 263 q 722 -6 764 139 q 699 -36 713 -36 q 664 -29 674 -36 l 672 11 q 661 22 672 22 q 585 3 658 22 q 453 -15 513 -15 q 147 82 269 -15 q 24 343 24 179 q 122 651 24 507 q 370 874 221 796 q 675 953 519 953 q 731 950 694 953 l 846 938 q 900 942 885 938 q 929 961 915 947 q 944 968 939 968 q 974 951 957 968 q 915 844 943 919 q 886 715 886 768 l 886 713 q 871 693 886 701 q 837 685 856 685 q 818 697 818 685 m 451 -69 q 526 -87 496 -69 q 556 -136 556 -106 q 513 -213 556 -187 q 431 -239 471 -239 q 359 -221 392 -239 q 326 -178 326 -203 q 328 -168 326 -174 q 360 -140 335 -140 q 389 -160 385 -140 q 392 -199 367 -182 q 425 -208 407 -208 q 492 -158 481 -208 q 493 -137 493 -150 q 474 -111 493 -124 q 435 -99 456 -99 q 404 -99 415 -99 q 388 -100 393 -100 l 447 0 l 486 0 l 446 -69 q 451 -69 449 -69 z "},"":{"ha":811,"x_min":-60,"x_max":861,"o":"m 501 1041 q 466 1062 501 1041 q 402 1108 432 1083 q 372 1156 372 1133 q 385 1192 372 1179 q 428 1206 399 1206 q 488 1176 458 1206 q 560 1086 518 1147 q 621 1005 601 1025 q 640 979 640 985 q 624 967 638 967 q 590 983 611 967 q 501 1041 569 999 m 643 -51 l 628 -53 q 603 -33 603 -53 q 617 18 603 -18 q 425 -19 519 -19 q 219 1 331 -19 q 51 21 107 21 q -60 6 -4 21 q -40 38 -60 21 q 20 63 -19 56 q 96 119 60 69 q 165 288 132 168 l 328 858 q 129 804 236 856 q 123 829 122 811 q 162 871 124 847 q 301 913 200 894 q 550 932 403 932 l 701 931 q 811 932 768 931 q 814 942 813 932 q 823 963 815 953 q 846 974 831 974 q 861 964 861 974 q 838 874 861 954 q 814 753 814 793 q 792 739 814 739 q 769 750 769 739 l 771 789 q 761 836 771 818 q 513 876 742 876 q 453 813 471 876 l 367 500 q 445 499 372 499 q 624 508 518 499 q 661 594 654 588 q 686 600 668 600 q 704 592 704 600 q 686 531 704 574 q 656 453 668 489 q 640 365 644 417 q 607 332 638 333 q 590 342 590 332 q 594 421 590 358 q 349 442 511 442 q 325 356 343 424 q 292 246 307 289 q 249 154 278 203 q 186 89 221 106 l 185 85 q 238 90 203 90 q 352 78 272 90 q 486 65 432 65 q 649 113 586 65 l 683 182 q 693 192 683 188 q 715 197 703 197 q 729 186 728 197 l 643 -51 z "},"":{"ha":811,"x_min":-60,"x_max":861,"o":"m 709 1107 q 694 1094 709 1107 q 610 1040 679 1082 q 521 981 542 997 q 487 965 500 965 q 471 978 474 965 q 490 1003 471 983 q 551 1085 510 1024 q 623 1175 593 1146 q 683 1204 653 1204 q 739 1156 739 1204 q 709 1107 739 1132 m 643 -51 l 628 -53 q 603 -33 603 -53 q 617 18 603 -18 q 425 -19 519 -19 q 219 1 331 -19 q 51 21 107 21 q -60 6 -4 21 q -40 38 -60 21 q 20 63 -19 56 q 96 119 60 69 q 165 288 132 168 l 328 858 q 129 804 236 856 q 123 829 122 811 q 162 871 124 847 q 301 913 200 894 q 550 932 403 932 l 701 931 q 811 932 768 931 q 814 942 813 932 q 823 963 815 953 q 846 974 831 974 q 861 964 861 974 q 838 874 861 954 q 814 753 814 793 q 792 739 814 739 q 769 750 769 739 l 771 789 q 761 836 771 818 q 513 876 742 876 q 453 813 471 876 l 367 500 q 445 499 372 499 q 624 508 518 499 q 661 594 654 588 q 686 600 668 600 q 704 592 704 600 q 686 531 704 574 q 656 453 668 489 q 640 365 644 417 q 607 332 638 333 q 590 342 590 332 q 594 421 590 358 q 349 442 511 442 q 325 356 343 424 q 292 246 307 289 q 249 154 278 203 q 186 89 221 106 l 185 85 q 238 90 203 90 q 352 78 272 90 q 486 65 432 65 q 649 113 586 65 l 683 182 q 693 192 683 188 q 715 197 703 197 q 729 186 728 197 l 643 -51 z "},"":{"ha":811,"x_min":-60,"x_max":861,"o":"m 419 981 q 396 969 407 969 q 382 981 385 969 l 554 1172 q 591 1190 572 1190 q 624 1172 610 1190 l 724 981 q 705 971 717 971 q 685 981 693 971 l 574 1097 l 419 981 m 643 -51 l 628 -53 q 603 -33 603 -53 q 617 18 603 -18 q 425 -19 519 -19 q 219 1 331 -19 q 51 21 107 21 q -60 6 -4 21 q -40 38 -60 21 q 20 63 -19 56 q 96 119 60 69 q 165 288 132 168 l 328 858 q 129 804 236 856 q 123 829 122 811 q 162 871 124 847 q 301 913 200 894 q 550 932 403 932 l 701 931 q 811 932 768 931 q 814 942 813 932 q 823 963 815 953 q 846 974 831 974 q 861 964 861 974 q 838 874 861 954 q 814 753 814 793 q 792 739 814 739 q 769 750 769 739 l 771 789 q 761 836 771 818 q 513 876 742 876 q 453 813 471 876 l 367 500 q 445 499 372 499 q 624 508 518 499 q 661 594 654 588 q 686 600 668 600 q 704 592 704 600 q 686 531 704 574 q 656 453 668 489 q 640 365 644 417 q 607 332 638 333 q 590 342 590 332 q 594 421 590 358 q 349 442 511 442 q 325 356 343 424 q 292 246 307 289 q 249 154 278 203 q 186 89 221 106 l 185 85 q 238 90 203 90 q 352 78 272 90 q 486 65 432 65 q 649 113 586 65 l 683 182 q 693 192 683 188 q 715 197 703 197 q 729 186 728 197 l 643 -51 z "},"":{"ha":811,"x_min":-60,"x_max":861,"o":"m 540 1060 q 540 1047 540 1060 q 521 1013 540 1033 q 474 993 501 993 q 428 1013 446 993 q 410 1060 410 1032 q 429 1106 410 1088 q 474 1124 449 1124 q 520 1105 500 1124 q 540 1060 540 1086 m 746 1060 q 746 1046 746 1060 q 728 1013 746 1032 q 681 993 710 993 q 634 1013 653 993 q 615 1060 615 1033 q 635 1106 615 1088 q 681 1124 654 1124 q 726 1106 707 1124 q 746 1060 746 1088 m 643 -51 l 628 -53 q 603 -33 603 -53 q 617 18 603 -18 q 425 -19 519 -19 q 219 1 331 -19 q 51 21 107 21 q -60 6 -4 21 q -40 38 -60 21 q 20 63 -19 56 q 96 119 60 69 q 165 288 132 168 l 328 858 q 129 804 236 856 q 123 829 122 811 q 162 871 124 847 q 301 913 200 894 q 550 932 403 932 l 701 931 q 811 932 768 931 q 814 942 813 932 q 823 963 815 953 q 846 974 831 974 q 861 964 861 974 q 838 874 861 954 q 814 753 814 793 q 792 739 814 739 q 769 750 769 739 l 771 789 q 761 836 771 818 q 513 876 742 876 q 453 813 471 876 l 367 500 q 445 499 372 499 q 624 508 518 499 q 661 594 654 588 q 686 600 668 600 q 704 592 704 600 q 686 531 704 574 q 656 453 668 489 q 640 365 644 417 q 607 332 638 333 q 590 342 590 332 q 594 421 590 358 q 349 442 511 442 q 325 356 343 424 q 292 246 307 289 q 249 154 278 203 q 186 89 221 106 l 185 85 q 238 90 203 90 q 352 78 272 90 q 486 65 432 65 q 649 113 586 65 l 683 182 q 693 192 683 188 q 715 197 703 197 q 729 186 728 197 l 643 -51 z "},"":{"ha":547,"x_min":-18,"x_max":601,"o":"m 355 1041 q 320 1062 355 1041 q 256 1108 286 1083 q 226 1156 226 1133 q 240 1192 226 1179 q 283 1206 253 1206 q 342 1176 313 1206 q 414 1086 372 1147 q 475 1005 456 1025 q 494 979 494 985 q 478 967 492 967 q 444 983 465 967 q 355 1041 424 999 m 572 932 q 601 914 601 932 q 594 897 601 906 q 583 883 586 888 l 503 883 q 479 867 488 883 q 461 814 471 851 q 320 261 368 411 q 207 57 272 111 q 293 50 239 57 q 381 43 347 43 q 358 10 376 25 q 319 -6 339 -6 l 92 21 q -18 6 36 21 q -17 19 -18 11 q 1 44 -15 28 q 49 64 18 60 q 131 119 99 71 q 192 288 163 167 l 333 865 q 138 811 242 863 q 129 831 129 822 q 253 907 132 882 q 572 932 375 932 z "},"":{"ha":547,"x_min":-18,"x_max":636,"o":"m 606 1110 q 591 1097 606 1110 q 508 1042 576 1085 q 418 984 439 1000 q 384 968 397 968 q 368 981 371 968 q 388 1006 368 986 q 449 1088 407 1026 q 520 1178 490 1149 q 581 1207 550 1207 q 636 1158 636 1207 q 606 1110 636 1135 m 572 932 q 601 914 601 932 q 594 897 601 906 q 583 883 586 888 l 503 883 q 479 867 488 883 q 461 814 471 851 q 320 261 368 411 q 207 57 272 111 q 293 50 239 57 q 381 43 347 43 q 358 10 376 25 q 319 -6 339 -6 l 92 21 q -18 6 36 21 q -17 19 -18 11 q 1 44 -15 28 q 49 64 18 60 q 131 119 99 71 q 192 288 163 167 l 333 865 q 138 811 242 863 q 129 831 129 822 q 253 907 132 882 q 572 932 375 932 z "},"":{"ha":547,"x_min":-18,"x_max":601,"o":"m 286 983 q 263 972 274 972 q 249 983 251 972 l 421 1175 q 458 1193 439 1193 q 490 1175 476 1193 l 590 983 q 572 974 583 974 q 551 983 560 974 l 440 1100 l 286 983 m 572 932 q 601 914 601 932 q 594 897 601 906 q 583 883 586 888 l 503 883 q 479 867 488 883 q 461 814 471 851 q 320 261 368 411 q 207 57 272 111 q 293 50 239 57 q 381 43 347 43 q 358 10 376 25 q 319 -6 339 -6 l 92 21 q -18 6 36 21 q -17 19 -18 11 q 1 44 -15 28 q 49 64 18 60 q 131 119 99 71 q 192 288 163 167 l 333 865 q 138 811 242 863 q 129 831 129 822 q 253 907 132 882 q 572 932 375 932 z "},"":{"ha":547,"x_min":-18,"x_max":604,"o":"m 399 1060 q 399 1047 399 1060 q 379 1013 399 1033 q 332 993 360 993 q 286 1013 304 993 q 268 1060 268 1032 q 288 1106 268 1088 q 333 1124 307 1124 q 378 1105 358 1124 q 399 1060 399 1086 m 604 1060 q 604 1046 604 1060 q 586 1013 604 1032 q 540 993 568 993 q 492 1013 511 993 q 474 1060 474 1033 q 493 1106 474 1088 q 539 1124 513 1124 q 585 1106 565 1124 q 604 1060 604 1088 m 572 932 q 601 914 601 932 q 594 897 601 906 q 583 883 586 888 l 503 883 q 479 867 488 883 q 461 814 471 851 q 320 261 368 411 q 207 57 272 111 q 293 50 239 57 q 381 43 347 43 q 358 10 376 25 q 319 -6 339 -6 l 92 21 q -18 6 36 21 q -17 19 -18 11 q 1 44 -15 28 q 49 64 18 60 q 131 119 99 71 q 192 288 163 167 l 333 865 q 138 811 242 863 q 129 831 129 822 q 253 907 132 882 q 572 932 375 932 z "},"":{"ha":958,"x_min":-51,"x_max":936,"o":"m 496 932 q 936 503 936 932 q 890 301 936 399 q 769 133 843 203 q 601 22 696 64 q 425 -19 507 -19 q 228 1 343 -19 q 58 21 114 21 q -51 6 3 21 q -33 39 -51 22 q 15 61 -15 56 q 95 119 63 69 q 153 288 128 168 l 185 440 q 104 432 121 432 q 76 448 88 432 q 61 481 64 464 l 60 496 q 199 504 124 496 l 272 858 q 79 804 183 856 q 72 829 72 811 q 109 871 71 847 q 248 913 147 894 q 496 932 349 932 m 471 71 q 692 188 590 71 q 793 476 793 304 q 461 876 793 876 q 407 813 421 876 q 347 526 385 707 q 460 542 454 542 q 500 508 500 542 q 497 486 500 503 q 335 465 419 481 q 268 201 297 285 q 193 94 239 118 l 192 90 q 244 96 210 96 q 348 83 279 96 q 471 71 417 71 z "},"":{"ha":1038,"x_min":-40,"x_max":1171,"o":"m 785 983 l 628 1000 q 515 942 546 1000 q 500 932 511 932 q 485 956 479 932 q 544 1051 501 1015 q 621 1086 586 1086 q 708 1078 656 1086 q 795 1069 761 1069 q 853 1080 829 1069 q 894 1132 876 1090 q 908 1140 897 1140 q 924 1118 931 1140 q 785 983 888 983 m 322 49 q 257 -4 296 -4 l 69 21 q -40 6 15 21 q -20 42 -40 22 q 39 69 0 63 q 110 122 78 76 q 172 288 143 168 l 318 813 q 276 856 299 842 q 238 873 253 871 q 191 875 222 875 q 117 858 160 875 q 62 840 75 840 q 49 858 49 840 q 83 883 61 868 q 163 924 104 899 q 274 950 221 950 q 373 920 328 950 q 458 827 418 890 q 533 694 499 764 q 757 308 651 464 q 845 661 807 550 q 917 828 883 772 q 999 921 951 885 q 1109 957 1047 957 q 1171 908 1171 957 q 1142 842 1171 871 q 992 766 1057 842 q 894 579 928 690 q 829 192 829 361 q 860 40 829 119 l 869 15 q 854 -4 869 -4 q 375 713 781 -4 q 251 251 296 383 q 140 63 207 119 q 231 56 172 63 q 322 49 289 49 z "},"":{"ha":878,"x_min":19,"x_max":867,"o":"m 528 1058 q 494 1079 528 1058 q 430 1125 460 1100 q 400 1173 400 1150 q 413 1209 400 1196 q 456 1222 426 1222 q 516 1193 486 1222 q 588 1103 546 1164 q 649 1022 629 1042 q 668 996 668 1001 q 652 983 665 983 q 618 999 639 983 q 528 1058 597 1015 m 86 600 q 119 673 86 600 q 277 848 153 746 q 553 950 401 950 q 785 852 704 950 q 867 608 867 754 q 803 322 867 461 q 613 85 739 182 q 331 -12 488 -12 q 97 78 175 -12 q 19 312 19 169 q 86 600 19 454 m 719 597 q 719 657 719 597 q 673 792 719 717 q 527 868 626 868 q 342 785 428 868 q 213 583 256 701 q 169 344 169 465 q 220 143 169 222 q 371 64 271 64 q 553 149 471 64 q 677 356 635 235 q 719 597 719 478 z "},"":{"ha":878,"x_min":19,"x_max":867,"o":"m 794 1115 q 779 1103 794 1115 q 695 1048 764 1090 q 606 990 626 1006 q 572 974 585 974 q 556 986 558 974 q 575 1012 556 992 q 636 1093 594 1032 q 708 1183 678 1154 q 767 1213 738 1213 q 824 1164 824 1213 q 794 1115 824 1140 m 86 600 q 119 673 86 600 q 277 848 153 746 q 553 950 401 950 q 785 852 704 950 q 867 608 867 754 q 803 322 867 461 q 613 85 739 182 q 331 -12 488 -12 q 97 78 175 -12 q 19 312 19 169 q 86 600 19 454 m 719 597 q 719 657 719 597 q 673 792 719 717 q 527 868 626 868 q 342 785 428 868 q 213 583 256 701 q 169 344 169 465 q 220 143 169 222 q 371 64 271 64 q 553 149 471 64 q 677 356 635 235 q 719 597 719 478 z "},"":{"ha":878,"x_min":19,"x_max":867,"o":"m 456 986 q 432 975 443 975 q 418 986 421 975 l 590 1178 q 627 1196 608 1196 q 660 1178 646 1196 l 760 986 q 741 976 753 976 q 721 986 729 976 l 610 1103 l 456 986 m 86 600 q 119 673 86 600 q 277 848 153 746 q 553 950 401 950 q 785 852 704 950 q 867 608 867 754 q 803 322 867 461 q 613 85 739 182 q 331 -12 488 -12 q 97 78 175 -12 q 19 312 19 169 q 86 600 19 454 m 719 597 q 719 657 719 597 q 673 792 719 717 q 527 868 626 868 q 342 785 428 868 q 213 583 256 701 q 169 344 169 465 q 220 143 169 222 q 371 64 271 64 q 553 149 471 64 q 677 356 635 235 q 719 597 719 478 z "},"":{"ha":878,"x_min":19,"x_max":867,"o":"m 368 963 q 353 986 347 963 q 412 1081 369 1046 q 489 1117 454 1117 q 565 1108 524 1117 q 640 1100 606 1100 q 697 1110 674 1100 q 739 1163 721 1121 q 753 1171 742 1171 q 768 1149 775 1171 q 629 1014 732 1014 q 563 1022 604 1014 q 496 1031 521 1031 q 383 972 414 1031 q 368 963 378 963 m 86 600 q 119 673 86 600 q 277 848 153 746 q 553 950 401 950 q 785 852 704 950 q 867 608 867 754 q 803 322 867 461 q 613 85 739 182 q 331 -12 488 -12 q 97 78 175 -12 q 19 312 19 169 q 86 600 19 454 m 719 597 q 719 657 719 597 q 673 792 719 717 q 527 868 626 868 q 342 785 428 868 q 213 583 256 701 q 169 344 169 465 q 220 143 169 222 q 371 64 271 64 q 553 149 471 64 q 677 356 635 235 q 719 597 719 478 z "},"":{"ha":878,"x_min":19,"x_max":867,"o":"m 529 1060 q 529 1047 529 1060 q 510 1013 529 1033 q 463 993 490 993 q 417 1013 435 993 q 399 1060 399 1032 q 418 1106 399 1088 q 463 1124 438 1124 q 509 1105 489 1124 q 529 1060 529 1086 m 735 1060 q 735 1046 735 1060 q 717 1013 735 1032 q 670 993 699 993 q 623 1013 642 993 q 604 1060 604 1033 q 624 1106 604 1088 q 669 1124 643 1124 q 715 1106 696 1124 q 735 1060 735 1088 m 86 600 q 119 673 86 600 q 277 848 153 746 q 553 950 401 950 q 785 852 704 950 q 867 608 867 754 q 803 322 867 461 q 613 85 739 182 q 331 -12 488 -12 q 97 78 175 -12 q 19 312 19 169 q 86 600 19 454 m 719 597 q 719 657 719 597 q 673 792 719 717 q 527 868 626 868 q 342 785 428 868 q 213 583 256 701 q 169 344 169 465 q 220 143 169 222 q 371 64 271 64 q 553 149 471 64 q 677 356 635 235 q 719 597 719 478 z "},"":{"ha":689,"x_min":21,"x_max":714,"o":"m 54 76 q 21 113 31 76 l 317 356 l 117 608 q 165 644 135 644 q 193 626 179 644 l 371 399 l 643 626 q 679 644 667 644 q 714 608 706 644 l 404 356 l 599 113 q 552 78 568 79 q 518 99 536 76 l 351 313 l 96 99 q 54 76 67 76 z "},"":{"ha":878,"x_min":-50,"x_max":929,"o":"m 786 850 q 867 610 867 760 q 803 322 867 461 q 613 85 739 182 q 332 -12 488 -12 q 165 25 236 -12 l 29 -157 q -12 -190 7 -190 q -50 -167 -32 -190 l 118 57 q 19 313 19 143 q 86 600 19 454 q 277 848 153 746 q 533 950 401 950 q 743 890 664 950 l 853 1036 q 888 1064 874 1064 q 929 1040 914 1064 l 786 850 m 671 794 q 525 868 622 868 q 342 785 428 868 q 213 583 256 701 q 169 353 169 465 q 204 172 169 242 l 671 794 m 553 149 q 594 192 553 149 q 677 356 635 235 q 719 575 719 478 q 700 735 719 672 l 238 119 q 380 64 289 64 q 553 149 471 64 z "},"":{"ha":894,"x_min":4,"x_max":1006,"o":"m 458 1041 q 423 1062 458 1041 q 359 1108 389 1083 q 329 1156 329 1133 q 342 1192 329 1179 q 385 1206 356 1206 q 445 1176 415 1206 q 517 1086 475 1147 q 578 1005 558 1025 q 597 979 597 985 q 581 967 594 967 q 547 983 568 967 q 458 1041 526 999 m 860 932 l 1000 936 q 1006 928 1006 936 l 1006 924 q 999 899 1006 908 q 986 889 992 889 l 947 889 q 879 747 917 889 q 711 267 793 417 q 612 121 665 185 q 481 18 558 57 q 311 -21 403 -21 q 114 52 193 -21 q 35 247 35 125 q 122 750 42 451 q 149 882 149 844 l 4 888 q 40 940 4 940 q 245 933 189 933 q 359 939 301 933 q 429 944 417 944 q 435 932 435 944 q 428 905 435 919 q 411 890 421 890 l 360 890 q 310 877 325 890 q 289 826 296 864 q 216 528 247 688 q 185 274 185 368 q 235 126 190 176 q 358 75 279 75 q 506 123 438 75 q 617 249 574 171 q 692 415 660 326 q 739 597 724 504 q 771 860 771 778 q 757 888 769 888 l 669 885 l 672 900 q 689 935 676 935 l 860 932 z "},"":{"ha":894,"x_min":4,"x_max":1006,"o":"m 758 1107 q 743 1094 758 1107 q 659 1040 728 1082 q 569 981 590 997 q 535 965 549 965 q 519 978 522 965 q 539 1003 519 983 q 600 1085 558 1024 q 672 1175 642 1146 q 731 1204 701 1204 q 788 1156 788 1204 q 758 1107 788 1132 m 860 932 l 1000 936 q 1006 928 1006 936 l 1006 924 q 999 899 1006 908 q 986 889 992 889 l 947 889 q 879 747 917 889 q 711 267 793 417 q 612 121 665 185 q 481 18 558 57 q 311 -21 403 -21 q 114 52 193 -21 q 35 247 35 125 q 122 750 42 451 q 149 882 149 844 l 4 888 q 40 940 4 940 q 245 933 189 933 q 359 939 301 933 q 429 944 417 944 q 435 932 435 944 q 428 905 435 919 q 411 890 421 890 l 360 890 q 310 877 325 890 q 289 826 296 864 q 216 528 247 688 q 185 274 185 368 q 235 126 190 176 q 358 75 279 75 q 506 123 438 75 q 617 249 574 171 q 692 415 660 326 q 739 597 724 504 q 771 860 771 778 q 757 888 769 888 l 669 885 l 672 900 q 689 935 676 935 l 860 932 z "},"":{"ha":894,"x_min":4,"x_max":1006,"o":"m 428 986 q 404 975 415 975 q 390 986 393 975 l 563 1178 q 599 1196 581 1196 q 632 1178 618 1196 l 732 986 q 713 976 725 976 q 693 986 701 976 l 582 1103 l 428 986 m 860 932 l 1000 936 q 1006 928 1006 936 l 1006 924 q 999 899 1006 908 q 986 889 992 889 l 947 889 q 879 747 917 889 q 711 267 793 417 q 612 121 665 185 q 481 18 558 57 q 311 -21 403 -21 q 114 52 193 -21 q 35 247 35 125 q 122 750 42 451 q 149 882 149 844 l 4 888 q 40 940 4 940 q 245 933 189 933 q 359 939 301 933 q 429 944 417 944 q 435 932 435 944 q 428 905 435 919 q 411 890 421 890 l 360 890 q 310 877 325 890 q 289 826 296 864 q 216 528 247 688 q 185 274 185 368 q 235 126 190 176 q 358 75 279 75 q 506 123 438 75 q 617 249 574 171 q 692 415 660 326 q 739 597 724 504 q 771 860 771 778 q 757 888 769 888 l 669 885 l 672 900 q 689 935 676 935 l 860 932 z "},"":{"ha":894,"x_min":4,"x_max":1006,"o":"m 536 1060 q 536 1047 536 1060 q 517 1013 536 1033 q 469 993 497 993 q 424 1013 442 993 q 406 1060 406 1032 q 425 1106 406 1088 q 470 1124 444 1124 q 516 1105 496 1124 q 536 1060 536 1086 m 742 1060 q 742 1046 742 1060 q 724 1013 742 1032 q 677 993 706 993 q 630 1013 649 993 q 611 1060 611 1033 q 631 1106 611 1088 q 676 1124 650 1124 q 722 1106 703 1124 q 742 1060 742 1088 m 860 932 l 1000 936 q 1006 928 1006 936 l 1006 924 q 999 899 1006 908 q 986 889 992 889 l 947 889 q 879 747 917 889 q 711 267 793 417 q 612 121 665 185 q 481 18 558 57 q 311 -21 403 -21 q 114 52 193 -21 q 35 247 35 125 q 122 750 42 451 q 149 882 149 844 l 4 888 q 40 940 4 940 q 245 933 189 933 q 359 939 301 933 q 429 944 417 944 q 435 932 435 944 q 428 905 435 919 q 411 890 421 890 l 360 890 q 310 877 325 890 q 289 826 296 864 q 216 528 247 688 q 185 274 185 368 q 235 126 190 176 q 358 75 279 75 q 506 123 438 75 q 617 249 574 171 q 692 415 660 326 q 739 597 724 504 q 771 860 771 778 q 757 888 769 888 l 669 885 l 672 900 q 689 935 676 935 l 860 932 z "},"":{"ha":742,"x_min":4,"x_max":933,"o":"m 709 1107 q 694 1094 709 1107 q 610 1040 679 1082 q 521 981 542 997 q 487 965 500 965 q 471 978 474 965 q 490 1003 471 983 q 551 1085 510 1024 q 623 1175 593 1146 q 683 1204 653 1204 q 739 1156 739 1204 q 709 1107 739 1132 m 79 -4 q 74 2 74 -4 q 76 14 75 8 q 83 32 76 19 q 100 44 90 44 l 131 44 q 241 208 192 44 q 290 537 290 371 q 251 798 290 703 q 131 893 213 893 q 74 879 101 893 q 35 851 47 865 l 22 838 q 4 854 4 842 q 63 918 4 881 q 179 956 121 956 q 450 621 450 956 q 443 508 450 571 q 639 733 576 638 q 713 882 701 828 q 703 890 713 890 l 664 890 q 658 901 657 890 q 667 923 658 911 q 683 935 675 935 l 839 933 l 933 939 q 892 892 924 892 q 832 867 851 892 q 429 419 683 679 q 344 94 396 242 l 326 46 l 454 54 q 418 0 438 0 q 231 1 263 1 l 79 -4 z "},"":{"ha":797,"x_min":-18,"x_max":788,"o":"m 85 831 q 205 907 85 882 q 522 932 325 932 q 553 914 553 932 q 545 894 553 903 q 536 883 538 886 l 456 883 q 433 867 440 883 q 418 814 425 851 l 410 769 l 438 769 q 688 700 588 769 q 788 515 788 631 q 688 332 788 399 q 447 265 589 265 q 311 285 374 265 q 203 57 265 111 q 290 50 235 57 q 378 43 344 43 q 356 10 374 26 q 319 -6 339 -6 l 90 21 q -18 6 33 21 q -17 19 -18 11 q -1 44 -17 28 q 44 64 15 60 q 124 118 94 71 q 176 288 153 165 l 288 865 q 94 811 196 863 q 85 831 85 824 m 442 713 q 394 679 410 713 q 326 342 336 383 q 424 324 374 324 q 572 374 514 324 q 636 517 631 424 q 580 658 636 604 q 442 713 524 713 z "},"":{"ha":749,"x_min":-293,"x_max":749,"o":"m 503 511 q 503 488 503 511 q 544 359 503 464 q 586 171 586 254 q 522 32 586 88 q 376 -24 458 -24 q 304 -1 329 -24 q 279 50 279 21 q 299 96 279 79 q 349 113 319 113 q 433 40 385 40 q 478 60 461 40 q 494 111 494 79 q 458 303 494 183 q 422 474 422 422 q 456 588 422 525 q 529 694 489 650 q 636 882 636 813 q 622 928 636 908 q 582 947 607 947 q 381 682 479 947 q 292 422 338 564 q 197 138 247 281 q 92 -122 147 -4 q -35 -314 38 -240 q -187 -387 -107 -387 q -261 -363 -231 -387 q -293 -304 -292 -339 q -257 -250 -293 -269 q -217 -283 -231 -274 q -137 -314 -179 -314 q -53 -257 -94 -314 q 20 -106 -12 -200 q 90 108 53 -11 q 163 353 128 228 q 245 597 197 478 q 345 811 293 717 q 469 963 397 906 q 625 1019 542 1019 q 715 983 682 1019 q 749 897 749 947 q 724 808 749 847 q 662 737 699 768 q 589 674 625 706 q 528 601 553 643 q 503 511 503 558 z "},"":{"ha":675,"x_min":0,"x_max":707,"o":"m 640 607 q 660 628 640 607 q 693 650 679 650 q 707 635 707 650 q 698 610 707 625 q 665 560 689 596 q 603 454 642 525 q 517 261 565 383 q 468 115 468 139 q 483 92 468 92 q 570 156 504 92 q 648 219 636 219 q 659 206 660 219 q 613 139 658 192 q 499 34 568 86 q 382 -18 431 -18 q 348 -6 361 -18 q 335 28 335 6 q 355 103 335 50 q 408 233 375 157 q 451 335 442 310 q 78 -21 176 -21 q 22 1 44 -21 q 0 70 0 24 q 33 208 0 117 q 120 393 67 299 q 256 556 174 488 q 421 625 338 625 q 550 579 499 625 q 574 564 568 564 q 640 607 601 564 m 510 482 q 457 538 497 510 q 372 567 417 567 q 265 482 328 567 q 162 295 203 397 q 121 140 121 193 q 153 88 121 88 q 326 238 192 88 q 510 482 460 389 m 293 939 q 306 974 293 961 q 349 988 319 988 q 402 958 379 988 q 469 845 425 929 q 543 723 514 761 q 572 679 572 685 q 556 667 569 667 q 539 671 543 667 q 293 939 293 869 z "},"":{"ha":675,"x_min":0,"x_max":740,"o":"m 640 607 q 660 628 640 607 q 693 650 679 650 q 707 635 707 650 q 698 610 707 625 q 665 560 689 596 q 603 454 642 525 q 517 261 565 383 q 468 115 468 139 q 483 92 468 92 q 570 156 504 92 q 648 219 636 219 q 659 206 660 219 q 613 139 658 192 q 499 34 568 86 q 382 -18 431 -18 q 348 -6 361 -18 q 335 28 335 6 q 355 103 335 50 q 408 233 375 157 q 451 335 442 310 q 78 -21 176 -21 q 22 1 44 -21 q 0 70 0 24 q 33 208 0 117 q 120 393 67 299 q 256 556 174 488 q 421 625 338 625 q 550 579 499 625 q 574 564 568 564 q 640 607 601 564 m 510 482 q 457 538 497 510 q 372 567 417 567 q 265 482 328 567 q 162 295 203 397 q 121 140 121 193 q 153 88 121 88 q 326 238 192 88 q 510 482 460 389 m 494 671 q 477 667 490 667 q 461 679 464 667 q 490 723 461 685 q 564 845 519 761 q 631 958 608 929 q 683 988 654 988 q 740 939 740 988 q 494 671 740 869 z "},"":{"ha":675,"x_min":0,"x_max":707,"o":"m 640 607 q 660 628 640 607 q 693 650 679 650 q 707 635 707 650 q 698 610 707 625 q 665 560 689 596 q 603 454 642 525 q 517 261 565 383 q 468 115 468 139 q 483 92 468 92 q 570 156 504 92 q 648 219 636 219 q 659 206 660 219 q 613 139 658 192 q 499 34 568 86 q 382 -18 431 -18 q 348 -6 361 -18 q 335 28 335 6 q 355 103 335 50 q 408 233 375 157 q 451 335 442 310 q 78 -21 176 -21 q 22 1 44 -21 q 0 70 0 24 q 33 208 0 117 q 120 393 67 299 q 256 556 174 488 q 421 625 338 625 q 550 579 499 625 q 574 564 568 564 q 640 607 601 564 m 510 482 q 457 538 497 510 q 372 567 417 567 q 265 482 328 567 q 162 295 203 397 q 121 140 121 193 q 153 88 121 88 q 326 238 192 88 q 510 482 460 389 m 314 751 q 287 740 299 740 q 272 751 275 740 l 474 956 q 514 975 493 975 q 550 956 535 975 l 660 751 q 639 742 651 742 q 617 751 626 742 l 494 876 l 314 751 z "},"":{"ha":675,"x_min":0,"x_max":769,"o":"m 640 607 q 660 628 640 607 q 693 650 679 650 q 707 635 707 650 q 698 610 707 625 q 665 560 689 596 q 603 454 642 525 q 517 261 565 383 q 468 115 468 139 q 483 92 468 92 q 570 156 504 92 q 648 219 636 219 q 659 206 660 219 q 613 139 658 192 q 499 34 568 86 q 382 -18 431 -18 q 348 -6 361 -18 q 335 28 335 6 q 355 103 335 50 q 408 233 375 157 q 451 335 442 310 q 78 -21 176 -21 q 22 1 44 -21 q 0 70 0 24 q 33 208 0 117 q 120 393 67 299 q 256 556 174 488 q 421 625 338 625 q 550 579 499 625 q 574 564 568 564 q 640 607 601 564 m 510 482 q 457 538 497 510 q 372 567 417 567 q 265 482 328 567 q 162 295 203 397 q 121 140 121 193 q 153 88 121 88 q 326 238 192 88 q 510 482 460 389 m 271 731 q 253 749 253 731 q 253 757 253 753 q 331 893 276 850 q 426 936 385 936 q 513 927 467 936 q 590 918 558 918 q 643 922 621 918 q 692 949 665 926 q 735 1015 718 972 q 754 1026 739 1026 q 769 1013 769 1026 q 768 1001 769 1007 q 692 862 743 904 q 585 819 640 819 q 511 828 557 819 q 426 838 465 838 q 349 819 386 838 q 288 742 311 800 q 271 731 283 731 z "},"":{"ha":675,"x_min":0,"x_max":707,"o":"m 640 607 q 660 628 640 607 q 693 650 679 650 q 707 635 707 650 q 698 610 707 625 q 665 560 689 596 q 603 454 642 525 q 517 261 565 383 q 468 115 468 139 q 483 92 468 92 q 570 156 504 92 q 648 219 636 219 q 659 206 660 219 q 613 139 658 192 q 499 34 568 86 q 382 -18 431 -18 q 348 -6 361 -18 q 335 28 335 6 q 355 103 335 50 q 408 233 375 157 q 451 335 442 310 q 78 -21 176 -21 q 22 1 44 -21 q 0 70 0 24 q 33 208 0 117 q 120 393 67 299 q 256 556 174 488 q 421 625 338 625 q 550 579 499 625 q 574 564 568 564 q 640 607 601 564 m 510 482 q 457 538 497 510 q 372 567 417 567 q 265 482 328 567 q 162 295 203 397 q 121 140 121 193 q 153 88 121 88 q 326 238 192 88 q 510 482 460 389 m 410 792 q 400 782 410 792 q 360 771 390 771 q 309 792 329 771 q 289 844 289 814 q 310 893 289 874 q 359 913 331 913 q 409 892 388 913 q 431 843 431 872 q 410 792 431 814 m 642 792 q 632 782 642 792 q 592 771 622 771 q 541 792 561 771 q 521 843 521 814 q 542 892 521 872 q 592 913 564 913 q 641 892 619 913 q 663 843 663 872 q 642 792 663 814 z "},"":{"ha":675,"x_min":0,"x_max":707,"o":"m 640 607 q 660 628 640 607 q 693 650 679 650 q 707 635 707 650 q 698 610 707 625 q 665 560 689 596 q 603 454 642 525 q 517 261 565 383 q 468 115 468 139 q 483 92 468 92 q 570 156 504 92 q 648 219 636 219 q 659 206 660 219 q 613 139 658 192 q 499 34 568 86 q 382 -18 431 -18 q 348 -6 361 -18 q 335 28 335 6 q 355 103 335 50 q 408 233 375 157 q 451 335 442 310 q 78 -21 176 -21 q 22 1 44 -21 q 0 70 0 24 q 33 208 0 117 q 120 393 67 299 q 256 556 174 488 q 421 625 338 625 q 550 579 499 625 q 574 564 568 564 q 640 607 601 564 m 510 482 q 457 538 497 510 q 372 567 417 567 q 265 482 328 567 q 162 295 203 397 q 121 140 121 193 q 153 88 121 88 q 326 238 192 88 q 510 482 460 389 m 619 856 q 619 830 619 856 q 582 766 619 803 q 490 729 544 729 q 398 767 436 729 q 360 856 360 804 q 398 944 360 907 q 488 981 436 981 q 580 945 540 981 q 619 856 619 910 m 407 855 q 407 837 407 855 q 432 794 407 819 q 491 769 457 769 q 549 795 525 769 q 572 856 572 821 q 548 916 572 890 q 488 942 524 942 q 430 916 453 942 q 407 855 407 890 z "},"":{"ha":857,"x_min":0,"x_max":894,"o":"m 715 204 q 729 189 729 204 q 706 147 729 179 q 648 76 683 114 q 560 9 613 39 q 465 -21 508 -21 q 399 6 421 -21 q 378 78 378 33 q 456 333 378 186 l 451 335 q 78 -21 176 -21 q 22 1 44 -21 q 0 70 0 24 q 33 208 0 117 q 120 393 67 299 q 256 556 174 488 q 421 625 338 625 q 533 586 492 625 q 554 574 549 574 q 603 638 569 574 q 654 703 638 703 q 668 688 668 703 q 601 538 668 656 l 604 536 q 789 625 682 625 q 865 608 835 625 q 894 554 894 590 q 772 408 894 492 q 528 288 649 325 q 497 139 497 190 q 531 88 497 88 q 697 193 606 88 q 715 204 707 204 m 510 482 q 457 538 497 510 q 372 567 417 567 q 265 482 328 567 q 162 295 203 397 q 121 140 121 193 q 153 88 121 88 q 326 238 192 88 q 510 482 460 389 m 744 567 q 640 497 696 567 q 544 328 585 426 q 781 529 781 450 q 744 567 781 567 z "},"":{"ha":465,"x_min":-35,"x_max":525,"o":"m 335 211 q 301 181 328 211 q 235 119 274 150 q 162 88 197 88 q 126 169 126 88 q 159 312 126 214 q 246 488 192 410 q 350 567 300 567 q 449 492 414 567 q 503 510 481 493 q 525 549 525 526 q 393 625 525 625 q 232 560 308 625 q 109 403 156 494 q 36 226 63 313 q 10 88 10 139 q 35 8 10 38 q 94 -21 61 -21 q 212 29 149 -21 q 313 130 275 79 q 350 196 350 181 q 335 211 350 211 m 90 -69 q 165 -87 135 -69 q 194 -136 194 -106 q 152 -213 194 -187 q 70 -239 110 -239 q -2 -221 31 -239 q -35 -178 -35 -203 q -33 -168 -35 -174 q -1 -140 -26 -140 q 28 -160 24 -140 q 31 -199 6 -182 q 64 -208 46 -208 q 131 -158 119 -208 q 132 -137 132 -150 q 113 -111 132 -124 q 74 -99 94 -99 q 43 -99 54 -99 q 26 -100 32 -100 l 86 0 l 125 0 l 85 -69 q 90 -69 88 -69 z "},"":{"ha":465,"x_min":-14,"x_max":511,"o":"m 324 204 q 338 189 338 204 q 315 147 338 179 q 256 76 292 114 q 169 9 221 39 q 73 -21 117 -21 q 8 6 29 -21 q -14 78 -14 33 q 40 290 -14 164 q 192 520 93 415 q 397 625 292 625 q 473 608 443 625 q 503 554 503 590 q 380 408 503 492 q 136 288 257 325 q 106 139 106 190 q 139 88 106 88 q 306 193 214 88 q 324 204 315 204 m 353 567 q 249 497 304 567 q 153 328 193 426 q 389 529 389 450 q 353 567 389 567 m 232 939 q 245 974 232 961 q 288 988 258 988 q 341 958 318 988 q 408 845 364 929 q 482 723 453 761 q 511 679 511 685 q 495 667 508 667 q 478 671 482 667 q 232 939 232 869 z "},"":{"ha":465,"x_min":-14,"x_max":503,"o":"m 324 204 q 338 189 338 204 q 315 147 338 179 q 256 76 292 114 q 169 9 221 39 q 73 -21 117 -21 q 8 6 29 -21 q -14 78 -14 33 q 40 290 -14 164 q 192 520 93 415 q 397 625 292 625 q 473 608 443 625 q 503 554 503 590 q 380 408 503 492 q 136 288 257 325 q 106 139 106 190 q 139 88 106 88 q 306 193 214 88 q 324 204 315 204 m 353 567 q 249 497 304 567 q 153 328 193 426 q 389 529 389 450 q 353 567 389 567 m 253 671 q 235 667 249 667 q 219 679 222 667 q 249 723 219 685 q 322 845 278 761 q 390 958 367 929 q 442 988 413 988 q 499 939 499 988 q 253 671 499 869 z "},"":{"ha":465,"x_min":-14,"x_max":565,"o":"m 324 204 q 338 189 338 204 q 315 147 338 179 q 256 76 292 114 q 169 9 221 39 q 73 -21 117 -21 q 8 6 29 -21 q -14 78 -14 33 q 40 290 -14 164 q 192 520 93 415 q 397 625 292 625 q 473 608 443 625 q 503 554 503 590 q 380 408 503 492 q 136 288 257 325 q 106 139 106 190 q 139 88 106 88 q 306 193 214 88 q 324 204 315 204 m 353 567 q 249 497 304 567 q 153 328 193 426 q 389 529 389 450 q 353 567 389 567 m 219 751 q 192 740 204 740 q 178 751 181 740 l 379 956 q 419 975 399 975 q 456 956 440 975 l 565 751 q 544 742 557 742 q 522 751 532 742 l 400 876 l 219 751 z "},"":{"ha":465,"x_min":-14,"x_max":553,"o":"m 324 204 q 338 189 338 204 q 315 147 338 179 q 256 76 292 114 q 169 9 221 39 q 73 -21 117 -21 q 8 6 29 -21 q -14 78 -14 33 q 40 290 -14 164 q 192 520 93 415 q 397 625 292 625 q 473 608 443 625 q 503 554 503 590 q 380 408 503 492 q 136 288 257 325 q 106 139 106 190 q 139 88 106 88 q 306 193 214 88 q 324 204 315 204 m 353 567 q 249 497 304 567 q 153 328 193 426 q 389 529 389 450 q 353 567 389 567 m 301 792 q 291 782 301 792 q 250 771 281 771 q 199 792 219 771 q 179 844 179 814 q 200 893 179 874 q 249 913 221 913 q 299 892 278 913 q 321 843 321 872 q 301 792 321 814 m 533 792 q 523 782 533 792 q 482 771 513 771 q 431 792 451 771 q 411 843 411 814 q 433 892 411 872 q 482 913 454 913 q 531 892 510 913 q 553 843 553 872 q 533 792 553 814 z "},"":{"ha":414,"x_min":44,"x_max":414,"o":"m 214 1 l 51 -3 q 44 4 44 -3 q 49 25 44 11 q 57 39 53 39 l 138 39 q 160 63 154 39 l 229 389 q 242 485 242 446 q 219 524 242 524 l 192 524 q 185 544 182 524 q 197 565 189 565 q 353 639 263 565 q 392 664 383 664 q 405 660 400 664 q 408 647 410 656 q 390 574 407 639 q 353 413 374 510 l 300 164 q 288 74 288 106 q 303 42 288 42 l 371 42 q 376 18 383 42 q 365 0 374 0 l 214 1 m 135 972 q 148 1008 135 994 q 191 1021 161 1021 q 244 992 221 1021 q 311 878 267 963 q 385 756 356 794 q 414 713 414 718 q 398 700 411 700 q 381 704 385 700 q 135 972 135 903 z "},"":{"ha":414,"x_min":44,"x_max":493,"o":"m 214 1 l 51 -3 q 44 4 44 -3 q 49 25 44 11 q 57 39 53 39 l 138 39 q 160 63 154 39 l 229 389 q 242 485 242 446 q 219 524 242 524 l 192 524 q 185 544 182 524 q 197 565 189 565 q 353 639 263 565 q 392 664 383 664 q 405 660 400 664 q 408 647 410 656 q 390 574 407 639 q 353 413 374 510 l 300 164 q 288 74 288 106 q 303 42 288 42 l 371 42 q 376 18 383 42 q 365 0 374 0 l 214 1 m 247 682 q 230 678 243 678 q 214 690 217 678 q 243 734 214 696 q 317 856 272 772 q 384 969 361 940 q 436 999 407 999 q 493 950 493 999 q 247 682 493 881 z "},"":{"ha":414,"x_min":44,"x_max":510,"o":"m 214 1 l 51 -3 q 44 4 44 -3 q 49 25 44 11 q 57 39 53 39 l 138 39 q 160 63 154 39 l 229 389 q 242 485 242 446 q 219 524 242 524 l 192 524 q 185 544 182 524 q 197 565 189 565 q 353 639 263 565 q 392 664 383 664 q 405 660 400 664 q 408 647 410 656 q 390 574 407 639 q 353 413 374 510 l 300 164 q 288 74 288 106 q 303 42 288 42 l 371 42 q 376 18 383 42 q 365 0 374 0 l 214 1 m 164 751 q 137 740 149 740 q 122 751 125 740 l 324 956 q 364 975 343 975 q 400 956 385 975 l 510 751 q 489 742 501 742 q 467 751 476 742 l 344 876 l 164 751 z "},"":{"ha":414,"x_min":44,"x_max":547,"o":"m 214 1 l 51 -3 q 44 4 44 -3 q 49 25 44 11 q 57 39 53 39 l 138 39 q 160 63 154 39 l 229 389 q 242 485 242 446 q 219 524 242 524 l 192 524 q 185 544 182 524 q 197 565 189 565 q 353 639 263 565 q 392 664 383 664 q 405 660 400 664 q 408 647 410 656 q 390 574 407 639 q 353 413 374 510 l 300 164 q 288 74 288 106 q 303 42 288 42 l 371 42 q 376 18 383 42 q 365 0 374 0 l 214 1 m 295 792 q 285 782 295 792 q 244 771 275 771 q 194 792 214 771 q 174 844 174 814 q 194 893 174 874 q 244 913 215 913 q 294 892 272 913 q 315 843 315 872 q 295 792 315 814 m 527 792 q 517 782 527 792 q 476 771 507 771 q 426 792 446 771 q 406 843 406 814 q 427 892 406 872 q 476 913 449 913 q 526 892 504 913 q 547 843 547 872 q 527 792 547 814 z "},"":{"ha":653,"x_min":35,"x_max":678,"o":"m 493 860 q 621 488 621 694 q 507 131 621 281 q 219 -18 393 -18 q 82 38 129 -18 q 35 184 35 93 q 80 374 35 275 q 213 542 125 472 q 403 611 300 611 q 458 589 458 611 q 440 574 458 574 q 290 509 357 574 q 191 358 224 444 q 158 201 158 272 q 183 98 158 131 q 247 65 207 65 q 420 190 335 65 q 506 493 506 315 q 413 814 506 671 l 318 753 q 263 728 278 728 q 236 760 243 728 l 389 849 q 239 1018 326 943 q 236 1024 236 1021 q 266 1038 236 1038 q 353 998 296 1038 q 465 893 410 958 l 601 978 q 649 997 632 997 q 678 965 675 997 l 493 860 z "},"":{"ha":682,"x_min":29,"x_max":753,"o":"m 322 664 q 333 641 333 664 q 272 458 333 618 q 208 288 211 299 l 213 288 q 246 335 217 293 q 291 398 275 378 q 340 459 307 418 q 398 524 372 500 q 457 574 424 547 q 586 625 522 625 q 668 547 668 625 q 613 400 668 504 q 501 202 557 296 q 446 93 446 108 q 461 78 446 78 q 533 117 492 78 q 558 139 543 125 q 582 157 578 157 q 596 140 596 157 q 517 46 596 113 q 385 -21 438 -21 q 333 28 333 -21 q 433 270 333 78 q 533 494 533 463 q 506 525 533 525 q 369 431 460 525 q 133 44 257 310 q 125 28 128 33 l 118 14 q 97 -15 106 -11 q 72 -18 89 -18 q 29 -3 54 -18 q 109 251 29 15 q 189 504 189 488 q 147 481 178 497 q 54 419 85 444 q 32 440 32 422 q 74 485 32 457 q 188 560 117 513 q 308 656 260 607 q 322 664 317 664 m 254 731 q 236 749 236 731 q 236 757 236 753 q 314 893 260 850 q 409 936 368 936 q 496 927 450 936 q 573 918 542 918 q 626 922 604 918 q 675 949 649 926 q 718 1015 701 972 q 738 1026 722 1026 q 753 1013 753 1026 q 751 1001 753 1007 q 675 862 726 904 q 568 819 624 819 q 494 828 540 819 q 409 838 449 838 q 332 819 369 838 q 271 742 294 800 q 254 731 267 731 z "},"":{"ha":475,"x_min":22,"x_max":481,"o":"m 384 146 q 366 109 384 146 q 289 23 349 72 q 165 -26 229 -26 q 62 28 101 -26 q 22 176 22 82 q 56 373 22 271 q 160 550 90 475 q 315 625 231 625 q 419 576 379 625 q 458 450 458 526 q 439 297 458 374 q 384 146 419 219 m 146 46 q 264 132 203 46 q 360 318 325 218 q 396 475 396 418 q 332 561 396 561 q 216 474 276 561 q 119 285 156 388 q 83 136 83 183 q 101 67 83 89 q 146 46 119 46 m 201 939 q 215 974 201 961 q 258 988 228 988 q 310 958 288 988 q 378 845 333 929 q 451 723 422 761 q 481 679 481 685 q 465 667 478 667 q 447 671 451 667 q 201 939 201 869 z "},"":{"ha":475,"x_min":22,"x_max":551,"o":"m 384 146 q 366 109 384 146 q 289 23 349 72 q 165 -26 229 -26 q 62 28 101 -26 q 22 176 22 82 q 56 373 22 271 q 160 550 90 475 q 315 625 231 625 q 419 576 379 625 q 458 450 458 526 q 439 297 458 374 q 384 146 419 219 m 146 46 q 264 132 203 46 q 360 318 325 218 q 396 475 396 418 q 332 561 396 561 q 216 474 276 561 q 119 285 156 388 q 83 136 83 183 q 101 67 83 89 q 146 46 119 46 m 306 671 q 288 667 301 667 q 272 679 275 667 q 301 723 272 685 q 375 845 331 761 q 442 958 419 929 q 494 988 465 988 q 551 939 551 988 q 306 671 551 869 z "},"":{"ha":475,"x_min":22,"x_max":536,"o":"m 384 146 q 366 109 384 146 q 289 23 349 72 q 165 -26 229 -26 q 62 28 101 -26 q 22 176 22 82 q 56 373 22 271 q 160 550 90 475 q 315 625 231 625 q 419 576 379 625 q 458 450 458 526 q 439 297 458 374 q 384 146 419 219 m 146 46 q 264 132 203 46 q 360 318 325 218 q 396 475 396 418 q 332 561 396 561 q 216 474 276 561 q 119 285 156 388 q 83 136 83 183 q 101 67 83 89 q 146 46 119 46 m 190 751 q 163 740 175 740 q 149 751 151 740 l 350 956 q 390 975 369 975 q 426 956 411 975 l 536 751 q 515 742 528 742 q 493 751 503 742 l 371 876 l 190 751 z "},"":{"ha":475,"x_min":22,"x_max":629,"o":"m 384 146 q 366 109 384 146 q 289 23 349 72 q 165 -26 229 -26 q 62 28 101 -26 q 22 176 22 82 q 56 373 22 271 q 160 550 90 475 q 315 625 231 625 q 419 576 379 625 q 458 450 458 526 q 439 297 458 374 q 384 146 419 219 m 146 46 q 264 132 203 46 q 360 318 325 218 q 396 475 396 418 q 332 561 396 561 q 216 474 276 561 q 119 285 156 388 q 83 136 83 183 q 101 67 83 89 q 146 46 119 46 m 131 731 q 113 749 113 731 q 113 757 113 753 q 190 893 136 850 q 285 936 244 936 q 372 927 326 936 q 449 918 418 918 q 503 922 481 918 q 551 949 525 926 q 594 1015 578 972 q 614 1026 599 1026 q 629 1011 629 1026 q 628 1001 629 1007 q 551 862 603 904 q 444 819 500 819 q 371 828 417 819 q 285 838 325 838 q 208 819 246 838 q 147 742 171 800 q 131 731 143 731 z "},"":{"ha":475,"x_min":22,"x_max":561,"o":"m 384 146 q 366 109 384 146 q 289 23 349 72 q 165 -26 229 -26 q 62 28 101 -26 q 22 176 22 82 q 56 373 22 271 q 160 550 90 475 q 315 625 231 625 q 419 576 379 625 q 458 450 458 526 q 439 297 458 374 q 384 146 419 219 m 146 46 q 264 132 203 46 q 360 318 325 218 q 396 475 396 418 q 332 561 396 561 q 216 474 276 561 q 119 285 156 388 q 83 136 83 183 q 101 67 83 89 q 146 46 119 46 m 309 792 q 299 782 309 792 q 258 771 289 771 q 208 792 228 771 q 188 844 188 814 q 208 893 188 874 q 258 913 229 913 q 308 892 286 913 q 329 843 329 872 q 309 792 329 814 m 541 792 q 531 782 541 792 q 490 771 521 771 q 440 792 460 771 q 419 843 419 814 q 441 892 419 872 q 490 913 463 913 q 540 892 518 913 q 561 843 561 872 q 541 792 561 814 z "},"":{"ha":671,"x_min":26,"x_max":658,"o":"m 658 350 q 654 322 658 339 l 67 322 q 26 367 26 322 l 28 383 l 603 390 q 658 350 658 390 m 347 578 q 336 589 347 578 q 326 629 326 599 q 347 681 326 660 q 397 701 367 701 q 449 681 428 701 q 469 629 469 660 q 449 578 469 599 q 397 558 428 558 q 347 578 367 558 m 229 22 q 219 33 229 22 q 208 74 208 43 q 229 126 208 104 q 281 147 250 147 q 333 126 311 147 q 354 74 354 104 q 333 22 354 43 q 281 1 311 1 q 229 22 250 1 z "},"":{"ha":472,"x_min":-89,"x_max":567,"o":"m 380 146 q 362 109 380 146 q 285 23 344 72 q 162 -26 225 -26 q 61 22 99 -26 l -10 -76 q -51 -110 -32 -110 q -89 -86 -71 -110 l 31 82 q 18 197 18 122 q 52 373 18 271 q 156 550 86 475 q 311 625 226 625 q 397 593 361 625 l 490 725 q 525 753 511 753 q 567 729 551 753 l 433 544 q 454 437 454 500 q 435 297 454 374 q 380 146 415 219 m 142 46 q 260 132 199 46 q 356 318 321 218 q 392 475 392 418 q 328 561 392 561 q 212 474 272 561 q 115 285 151 388 q 79 136 79 183 q 97 67 79 89 q 142 46 115 46 z "},"":{"ha":690,"x_min":0,"x_max":683,"o":"m 361 28 q 439 242 361 90 q 479 322 472 306 l 475 322 q 431 265 469 315 q 369 189 392 215 q 303 117 347 163 q 228 46 260 71 q 71 -19 142 -19 q 0 47 0 -19 q 199 406 0 118 q 265 517 265 503 q 251 532 265 532 q 219 522 238 532 q 189 503 200 513 q 131 456 147 472 q 124 453 125 453 q 113 475 111 453 q 199 564 114 497 q 333 631 283 631 q 383 586 383 631 q 262 340 383 542 q 140 110 140 139 q 165 81 140 81 q 307 178 210 81 q 567 550 418 289 q 579 572 571 557 q 592 594 588 588 q 603 611 596 601 q 639 628 617 628 q 683 613 661 628 q 578 353 682 597 q 475 88 475 110 q 499 65 475 65 q 552 95 522 65 q 593 169 582 125 q 601 174 596 174 q 617 158 617 174 q 551 42 617 104 q 411 -21 485 -21 q 361 28 361 -21 m 356 939 q 369 974 356 961 q 412 988 382 988 q 465 958 442 988 q 532 845 488 929 q 606 723 576 761 q 635 679 635 685 q 619 667 632 667 q 601 671 606 667 q 356 939 356 869 z "},"":{"ha":690,"x_min":0,"x_max":683,"o":"m 361 28 q 439 242 361 90 q 479 322 472 306 l 475 322 q 431 265 469 315 q 369 189 392 215 q 303 117 347 163 q 228 46 260 71 q 71 -19 142 -19 q 0 47 0 -19 q 199 406 0 118 q 265 517 265 503 q 251 532 265 532 q 219 522 238 532 q 189 503 200 513 q 131 456 147 472 q 124 453 125 453 q 113 475 111 453 q 199 564 114 497 q 333 631 283 631 q 383 586 383 631 q 262 340 383 542 q 140 110 140 139 q 165 81 140 81 q 307 178 210 81 q 567 550 418 289 q 579 572 571 557 q 592 594 588 588 q 603 611 596 601 q 639 628 617 628 q 683 613 661 628 q 578 353 682 597 q 475 88 475 110 q 499 65 475 65 q 552 95 522 65 q 593 169 582 125 q 601 174 596 174 q 617 158 617 174 q 551 42 617 104 q 411 -21 485 -21 q 361 28 361 -21 m 435 671 q 417 667 431 667 q 401 679 404 667 q 431 723 401 685 q 504 845 460 761 q 572 958 549 929 q 625 988 594 988 q 681 939 681 988 q 435 671 681 869 z "},"":{"ha":690,"x_min":0,"x_max":694,"o":"m 361 28 q 439 242 361 90 q 479 322 472 306 l 475 322 q 431 265 469 315 q 369 189 392 215 q 303 117 347 163 q 228 46 260 71 q 71 -19 142 -19 q 0 47 0 -19 q 199 406 0 118 q 265 517 265 503 q 251 532 265 532 q 219 522 238 532 q 189 503 200 513 q 131 456 147 472 q 124 453 125 453 q 113 475 111 453 q 199 564 114 497 q 333 631 283 631 q 383 586 383 631 q 262 340 383 542 q 140 110 140 139 q 165 81 140 81 q 307 178 210 81 q 567 550 418 289 q 579 572 571 557 q 592 594 588 588 q 603 611 596 601 q 639 628 617 628 q 683 613 661 628 q 578 353 682 597 q 475 88 475 110 q 499 65 475 65 q 552 95 522 65 q 593 169 582 125 q 601 174 596 174 q 617 158 617 174 q 551 42 617 104 q 411 -21 485 -21 q 361 28 361 -21 m 349 751 q 322 740 333 740 q 307 751 310 740 l 508 956 q 549 975 528 975 q 585 956 569 975 l 694 751 q 674 742 686 742 q 651 751 661 742 l 529 876 l 349 751 z "},"":{"ha":690,"x_min":0,"x_max":704,"o":"m 361 28 q 439 242 361 90 q 479 322 472 306 l 475 322 q 431 265 469 315 q 369 189 392 215 q 303 117 347 163 q 228 46 260 71 q 71 -19 142 -19 q 0 47 0 -19 q 199 406 0 118 q 265 517 265 503 q 251 532 265 532 q 219 522 238 532 q 189 503 200 513 q 131 456 147 472 q 124 453 125 453 q 113 475 111 453 q 199 564 114 497 q 333 631 283 631 q 383 586 383 631 q 262 340 383 542 q 140 110 140 139 q 165 81 140 81 q 307 178 210 81 q 567 550 418 289 q 579 572 571 557 q 592 594 588 588 q 603 611 596 601 q 639 628 617 628 q 683 613 661 628 q 578 353 682 597 q 475 88 475 110 q 499 65 475 65 q 552 95 522 65 q 593 169 582 125 q 601 174 596 174 q 617 158 617 174 q 551 42 617 104 q 411 -21 485 -21 q 361 28 361 -21 m 452 792 q 442 782 452 792 q 401 771 432 771 q 351 792 371 771 q 331 844 331 814 q 351 893 331 874 q 401 913 372 913 q 451 892 429 913 q 472 843 472 872 q 452 792 472 814 m 684 792 q 674 782 684 792 q 633 771 664 771 q 583 792 603 771 q 563 843 563 814 q 584 892 563 872 q 633 913 606 913 q 683 892 661 913 q 704 843 704 872 q 684 792 704 814 z "},"":{"ha":528,"x_min":-265,"x_max":524,"o":"m 63 433 l 64 385 q 51 371 64 371 q 25 456 25 371 q 51 583 25 542 q 121 625 76 625 q 286 505 228 625 q 344 208 344 385 q 322 13 344 93 q 422 390 422 218 q 378 579 422 508 q 450 625 408 625 q 506 500 506 625 q 428 133 506 349 q 213 -247 351 -82 q 58 -374 146 -326 q -110 -422 -29 -422 q -228 -401 -192 -422 q -265 -343 -265 -379 q -206 -279 -265 -297 q -187 -292 -201 -282 q -167 -306 -174 -301 q -147 -317 -161 -310 q -125 -328 -133 -324 q -74 -336 -101 -336 q 114 -264 38 -336 q 258 157 258 -128 q 213 399 258 297 q 113 500 168 500 q 76 485 86 500 q 63 433 65 469 m 278 671 q 260 667 274 667 q 244 679 247 667 q 274 723 244 685 q 347 845 303 761 q 415 958 392 929 q 467 988 438 988 q 524 939 524 988 q 278 671 524 869 z "},"":{"ha":575,"x_min":-232,"x_max":628,"o":"m 567 1021 q 612 1009 596 1021 q 628 981 628 997 q 575 933 628 944 q 519 949 542 949 q 408 830 472 949 q 279 535 343 711 q 514 625 447 625 q 604 507 604 625 q 536 272 604 415 q 455 134 500 199 q 344 26 410 69 q 217 -18 278 -18 q 103 36 157 -18 q 15 -297 15 -240 l 15 -300 q 36 -335 18 -335 l 136 -335 q 151 -355 151 -335 q 118 -375 151 -375 q -67 -374 -18 -374 l -219 -375 q -232 -357 -232 -375 q -206 -335 -232 -335 l -154 -335 q -121 -308 -129 -335 q -13 -12 -107 -268 q 135 411 81 244 q 567 1021 344 1021 m 422 521 q 257 471 357 521 l 139 131 q 198 73 157 104 q 263 42 239 42 q 356 112 303 42 q 447 275 410 182 q 483 431 483 368 q 422 521 483 521 z "},"":{"ha":528,"x_min":-265,"x_max":506,"o":"m 63 433 l 64 385 q 51 371 64 371 q 25 456 25 371 q 51 583 25 542 q 121 625 76 625 q 286 505 228 625 q 344 208 344 385 q 322 13 344 93 q 422 390 422 218 q 378 579 422 508 q 450 625 408 625 q 506 500 506 625 q 428 133 506 349 q 213 -247 351 -82 q 58 -374 146 -326 q -110 -422 -29 -422 q -228 -401 -192 -422 q -265 -343 -265 -379 q -206 -279 -265 -297 q -187 -292 -201 -282 q -167 -306 -174 -301 q -147 -317 -161 -310 q -125 -328 -133 -324 q -74 -336 -101 -336 q 114 -264 38 -336 q 258 157 258 -128 q 213 399 258 297 q 113 500 168 500 q 76 485 86 500 q 63 433 65 469 m 235 792 q 225 782 235 792 q 185 771 215 771 q 134 792 154 771 q 114 844 114 814 q 135 893 114 874 q 184 913 156 913 q 234 892 213 913 q 256 843 256 872 q 235 792 256 814 m 467 792 q 457 782 467 792 q 417 771 447 771 q 366 792 386 771 q 346 843 346 814 q 367 892 346 872 q 417 913 389 913 q 466 892 444 913 q 488 843 488 872 q 467 792 488 814 z "},"":{"ha":382,"x_min":28,"x_max":353,"o":"m 342 664 q 353 638 353 664 q 256 386 353 613 q 158 113 158 160 q 172 92 158 92 q 230 126 194 92 q 272 160 265 160 q 286 146 286 160 q 257 94 286 132 q 175 19 228 57 q 75 -18 122 -18 q 42 -5 56 -18 q 28 31 28 8 q 113 287 28 83 q 199 500 199 490 q 139 465 186 492 q 74 419 92 438 q 51 440 51 422 q 94 486 51 458 q 208 561 136 514 q 328 656 281 608 q 342 664 336 664 z "},"":{"ha":775,"x_min":-36,"x_max":753,"o":"m 611 -33 q 628 18 611 -25 q 442 -19 536 -19 q 239 1 347 -19 q 75 21 131 21 q -36 6 19 21 q -15 38 -36 21 q 39 61 7 56 q 210 294 136 78 l 249 413 q 141 362 213 394 q 65 328 69 329 q 56 332 60 326 q 53 358 53 338 q 71 388 53 379 q 170 432 90 397 q 269 476 250 467 l 399 861 q 207 804 318 856 q 201 823 201 810 q 218 851 201 836 q 271 882 235 867 q 358 908 307 897 q 651 936 476 936 q 618 892 650 892 q 542 854 554 892 l 431 536 l 617 631 q 626 615 626 638 q 606 574 626 588 l 411 481 l 397 442 q 378 388 394 435 q 354 319 363 342 q 326 251 346 296 q 290 181 307 207 q 201 90 246 110 l 200 86 q 274 101 244 101 q 364 87 304 101 q 476 72 424 72 q 671 118 604 72 l 707 192 q 717 202 707 197 q 740 207 728 207 q 753 196 753 207 l 650 -51 q 611 -33 611 -51 z "},"":{"ha":367,"x_min":39,"x_max":619,"o":"m 511 949 q 404 838 467 949 q 283 567 342 728 l 378 624 q 382 625 379 625 q 392 605 392 625 q 361 565 392 585 q 264 517 331 544 q 160 121 160 221 q 180 92 160 92 q 257 156 200 92 q 327 219 314 219 q 340 205 340 219 q 303 138 340 190 q 206 34 267 86 q 96 -18 146 -18 q 46 34 46 -18 q 75 214 46 86 q 150 478 104 342 l 53 421 q 39 445 39 421 q 56 479 39 469 q 168 532 104 511 q 345 883 246 744 q 558 1021 444 1021 q 603 1009 588 1021 q 619 981 619 997 q 567 933 619 944 q 511 949 533 949 z "},"":{"ha":1279,"x_min":19,"x_max":1311,"o":"m 1115 144 l 1125 146 l 1142 192 q 1167 203 1146 203 q 1188 192 1188 203 q 1118 -24 1151 110 q 1104 -33 1117 -33 q 1086 -31 1092 -33 q 1075 -24 1075 -26 l 1086 15 q 593 69 901 60 q 324 -12 474 -12 q 97 78 175 -12 q 19 312 19 169 q 86 600 19 454 q 277 848 153 746 q 544 950 401 950 q 731 900 651 950 l 1260 935 l 1272 983 q 1292 992 1274 992 q 1311 979 1311 992 q 1288 750 1288 822 q 1268 740 1288 740 q 1247 758 1249 740 q 1228 814 1244 783 q 1067 843 1188 829 q 888 857 947 857 q 810 856 829 857 q 782 856 790 856 q 867 603 867 763 q 861 514 867 569 q 1051 526 985 517 q 1122 539 1117 536 l 1151 615 q 1176 625 1157 625 q 1194 613 1194 625 q 1140 365 1156 506 q 1119 354 1140 354 q 1099 363 1099 354 l 1099 426 q 993 451 1081 438 q 850 465 906 464 q 782 284 831 372 q 669 132 733 196 q 901 122 796 122 q 1115 144 1007 122 m 719 597 q 719 657 719 597 q 673 792 719 717 q 527 868 626 868 q 342 785 428 868 q 213 583 256 701 q 169 344 169 465 q 220 143 169 222 q 371 64 271 64 q 553 149 471 64 q 677 356 635 235 q 719 597 719 478 z "},"":{"ha":758,"x_min":22,"x_max":810,"o":"m 631 204 q 644 189 644 204 q 622 147 644 179 q 563 76 599 114 q 476 9 528 39 q 369 -21 424 -21 q 303 39 315 -21 l 296 40 q 158 -26 239 -26 q 62 28 101 -26 q 22 176 22 82 q 56 373 22 271 q 160 550 90 475 q 315 625 231 625 q 411 583 372 625 q 453 467 450 542 l 458 467 q 572 583 507 540 q 694 625 638 625 q 810 554 810 625 q 687 408 810 492 q 443 288 564 325 q 413 139 413 190 q 446 88 413 88 q 613 193 519 88 q 631 204 622 204 m 146 46 q 245 107 194 46 q 336 260 296 168 l 349 290 q 396 475 396 407 q 332 561 396 561 q 216 474 276 561 q 119 285 156 388 q 83 136 83 183 q 101 67 83 89 q 146 46 119 46 m 660 567 q 556 497 611 567 q 460 328 500 426 q 696 529 696 450 q 660 567 696 567 z "},"":{"ha":694,"x_min":24,"x_max":738,"o":"m 700 1200 q 724 1211 713 1211 q 738 1200 735 1211 l 565 1008 q 528 990 547 990 q 496 1008 510 990 l 396 1200 q 415 1210 403 1210 q 435 1200 426 1210 l 546 1083 l 700 1200 m 661 739 q 642 729 661 729 q 622 742 622 729 q 622 762 622 746 q 615 801 622 778 q 476 889 564 889 q 360 847 413 889 q 307 739 307 806 q 414 564 307 663 q 502 478 458 524 q 577 372 546 433 q 608 244 608 311 q 519 49 608 117 q 303 -18 431 -18 q 86 61 176 -18 q 63 4 68 28 q 43 -4 57 -4 q 24 13 24 -4 q 33 42 24 24 q 89 163 76 125 q 103 203 101 200 q 108 216 104 207 q 116 228 113 225 q 125 235 119 231 q 157 232 135 242 q 136 160 142 183 q 213 78 163 111 q 322 44 264 44 q 428 83 381 44 q 476 190 476 122 q 375 367 476 265 q 290 455 332 410 q 219 559 249 500 q 189 679 189 618 q 281 884 189 808 q 496 960 372 960 q 650 924 582 960 l 663 954 q 672 963 667 963 q 697 947 681 963 q 661 760 661 839 q 661 739 661 749 z "},"":{"ha":431,"x_min":4,"x_max":518,"o":"m 481 863 q 504 874 493 874 q 518 863 515 874 l 346 671 q 309 653 328 653 q 276 671 290 653 l 176 863 q 195 872 183 872 q 215 863 207 872 l 326 746 l 481 863 m 311 171 q 311 129 311 171 q 247 32 311 88 q 101 -24 183 -24 q 29 -1 54 -24 q 4 50 4 21 q 24 96 4 79 q 74 113 44 113 q 158 40 110 40 q 203 60 186 40 q 219 111 219 79 q 160 268 219 167 q 101 417 101 369 q 170 567 101 510 q 318 625 239 625 q 398 603 372 625 q 424 547 424 582 q 402 503 419 518 q 338 485 385 488 q 311 541 332 521 q 261 561 290 561 q 207 538 232 561 q 182 481 182 515 q 202 407 182 446 q 247 336 222 368 q 311 171 311 254 z "},"":{"ha":742,"x_min":4,"x_max":933,"o":"m 475 1060 q 475 1047 475 1060 q 456 1013 475 1033 q 408 993 436 993 q 363 1013 381 993 q 344 1060 344 1032 q 364 1106 344 1088 q 409 1124 383 1124 q 455 1105 435 1124 q 475 1060 475 1086 m 681 1060 q 681 1046 681 1060 q 663 1013 681 1032 q 616 993 644 993 q 569 1013 588 993 q 550 1060 550 1033 q 569 1106 550 1088 q 615 1124 589 1124 q 661 1106 642 1124 q 681 1060 681 1088 m 79 -4 q 74 2 74 -4 q 76 14 75 8 q 83 32 76 19 q 100 44 90 44 l 131 44 q 241 208 192 44 q 290 537 290 371 q 251 798 290 703 q 131 893 213 893 q 74 879 101 893 q 35 851 47 865 l 22 838 q 4 854 4 842 q 63 918 4 881 q 179 956 121 956 q 450 621 450 956 q 443 508 450 571 q 639 733 576 638 q 713 882 701 828 q 703 890 713 890 l 664 890 q 658 901 657 890 q 667 923 658 911 q 683 935 675 935 l 839 933 l 933 939 q 892 892 924 892 q 832 867 851 892 q 429 419 683 679 q 344 94 396 242 l 326 46 l 454 54 q 418 0 438 0 q 231 1 263 1 l 79 -4 z "},"":{"ha":797,"x_min":-117,"x_max":856,"o":"m 700 1200 q 724 1211 713 1211 q 738 1200 735 1211 l 565 1008 q 528 990 547 990 q 496 1008 510 990 l 396 1200 q 415 1210 403 1210 q 435 1200 426 1210 l 546 1083 l 700 1200 m 193 118 q 210 118 193 118 q 382 97 228 118 q 592 75 536 75 q 672 90 647 75 q 736 156 697 104 q 750 167 743 167 q 772 150 764 167 q 503 -31 678 -31 q 241 -5 432 -31 q -6 21 50 21 q -117 6 -61 21 q -62 56 -111 35 q 68 186 -37 67 q 657 874 178 308 q 344 860 596 860 q 164 829 207 860 q 144 707 144 804 q 115 701 129 701 q 90 725 90 701 q 111 947 111 856 q 117 966 111 960 q 136 974 124 972 q 160 938 143 946 q 243 929 178 929 l 719 929 q 817 938 790 929 q 846 946 843 946 q 856 939 856 946 q 835 908 856 929 q 269 242 364 350 q 142 117 175 133 l 140 113 q 193 118 158 118 z "},"":{"ha":610,"x_min":-46,"x_max":642,"o":"m 581 813 q 604 824 593 824 q 618 813 615 824 l 446 621 q 409 603 428 603 q 376 621 390 603 l 276 813 q 295 822 283 822 q 315 813 307 822 l 426 696 l 581 813 m 642 583 q 190 146 642 503 q 334 99 267 136 q 449 61 401 61 q 611 160 533 61 q 625 133 625 156 q 555 38 625 96 q 408 -21 485 -21 q 249 12 331 -21 q 111 44 168 44 q 25 6 50 44 q 7 -12 14 -11 q -22 -18 -8 -18 q -46 14 -46 -18 q 89 135 -46 67 q 278 292 146 179 q 501 479 410 404 q 238 435 333 435 q 110 482 143 435 q 97 526 97 499 q 135 599 97 554 q 163 583 140 596 q 199 565 186 569 q 242 553 213 561 q 389 539 292 539 q 567 543 486 539 l 628 610 q 642 583 642 600 z "},"":{"ha":400,"x_min":-293,"x_max":776,"o":"m -187 -301 q -261 -277 -231 -301 q -293 -218 -292 -253 q -257 -164 -293 -183 q -217 -197 -231 -187 q -138 -228 -179 -228 q -60 -180 -97 -228 q 13 -37 -22 -132 q 78 156 49 58 q 151 397 108 254 q 231 640 194 540 l 118 640 q 108 654 108 640 q 126 686 108 686 q 258 719 244 686 q 424 1015 339 922 q 639 1107 508 1107 q 733 1089 689 1107 q 776 1026 776 1071 q 757 978 776 997 q 701 954 738 958 q 575 1033 636 1033 q 465 954 514 1033 q 354 694 417 875 l 504 694 q 515 678 513 694 q 493 640 515 640 l 336 640 q 281 476 317 589 q 214 270 244 363 q 137 66 183 178 q 45 -122 90 -46 q -61 -249 0 -197 q -187 -301 -122 -301 z "},"":{"ha":406,"x_min":19,"x_max":407,"o":"m 61 751 q 34 740 46 740 q 19 751 22 740 l 221 956 q 261 975 240 975 q 297 956 282 975 l 407 751 q 386 742 399 742 q 364 751 374 742 l 242 876 l 61 751 z "},"":{"ha":313,"x_min":-10,"x_max":332,"o":"m 294 913 q 318 924 307 924 q 332 913 329 924 l 160 721 q 123 703 142 703 q 90 721 104 703 l -10 913 q 9 922 -3 922 q 29 913 21 922 l 140 796 l 294 913 z "},"":{"ha":415,"x_min":11,"x_max":397,"o":"m 397 911 q 324 792 397 847 q 175 738 251 738 q 55 776 99 738 q 11 870 11 815 q 33 925 11 925 q 50 911 50 925 q 93 842 54 864 q 186 819 132 819 q 289 842 240 819 q 361 911 338 864 q 383 925 369 925 q 397 911 397 925 z "},"":{"ha":178,"x_min":13,"x_max":160,"o":"m 160 842 q 160 826 160 842 q 139 788 160 811 q 87 765 118 765 q 34 786 56 765 q 13 838 13 807 q 33 890 13 868 q 83 913 53 913 q 137 892 114 913 q 160 842 160 872 z "},"":{"ha":344,"x_min":36,"x_max":296,"o":"m 296 856 q 296 830 296 856 q 258 766 296 803 q 167 729 221 729 q 74 767 113 729 q 36 856 36 804 q 74 944 36 907 q 165 981 113 981 q 256 945 217 981 q 296 856 296 910 m 83 855 q 83 837 83 855 q 108 794 83 819 q 167 769 133 769 q 225 795 201 769 q 249 856 249 821 q 224 916 249 890 q 165 942 200 942 q 106 916 129 942 q 83 855 83 890 z "},"":{"ha":349,"x_min":44,"x_max":282,"o":"m 282 -118 q 235 -190 282 -160 q 129 -219 188 -219 q 44 -154 44 -219 q 249 0 44 -47 l 279 0 l 278 -3 q 180 -61 233 -22 q 126 -133 126 -100 q 153 -160 126 -160 q 210 -144 181 -160 q 256 -112 239 -128 l 274 -97 q 282 -118 282 -106 z "},"":{"ha":583,"x_min":211,"x_max":728,"o":"m 229 731 q 211 749 211 731 q 211 757 211 753 q 289 893 235 850 q 384 936 343 936 q 471 927 425 936 q 548 918 517 918 q 601 922 579 918 q 650 949 624 926 q 693 1015 676 972 q 713 1026 697 1026 q 728 1013 728 1026 q 726 1001 728 1007 q 650 862 701 904 q 543 819 599 819 q 469 828 515 819 q 384 838 424 838 q 307 819 344 838 q 246 742 269 800 q 229 731 242 731 z "},"":{"ha":653,"x_min":29,"x_max":622,"o":"m 42 718 q 29 732 29 718 q 36 742 29 739 q 168 834 103 781 q 271 913 233 888 q 336 939 308 939 q 386 904 386 939 q 325 836 386 864 q 258 808 294 821 q 105 746 163 774 q 42 718 47 718 m 279 719 q 265 732 265 719 q 272 742 265 739 q 404 834 339 781 q 507 913 469 888 q 572 939 544 939 q 622 904 622 939 q 561 836 622 864 q 494 808 531 821 q 342 747 399 774 q 279 719 286 719 z "},"":{"ha":694,"x_min":0,"x_max":693,"o":"m 693 289 q 693 279 693 285 l 51 279 q 15 294 28 279 q 1 325 3 310 l 0 340 l 628 347 q 693 289 693 347 z "},"":{"ha":1389,"x_min":0,"x_max":1386,"o":"m 1386 289 q 1386 279 1386 285 l 51 279 q 15 294 28 279 q 1 325 3 310 l 0 340 l 1321 347 q 1386 289 1386 347 z "},"":{"ha":417,"x_min":117,"x_max":315,"o":"m 178 806 q 244 756 178 756 q 263 757 253 756 q 299 699 299 739 q 276 635 299 658 q 213 613 254 613 q 144 649 172 613 q 117 732 117 685 q 165 878 117 822 q 300 982 213 933 l 315 956 q 217 883 257 926 q 178 806 178 840 z "},"":{"ha":417,"x_min":106,"x_max":304,"o":"m 243 754 q 176 804 243 804 q 158 803 168 804 q 122 861 122 821 q 144 924 122 901 q 208 947 167 947 q 276 911 249 947 q 304 828 304 875 q 256 682 304 738 q 121 578 208 626 l 106 604 q 203 676 164 633 q 243 754 243 719 z "},"":{"ha":417,"x_min":122,"x_max":296,"o":"m 136 -179 q 194 -126 176 -144 q 226 -75 213 -107 q 239 -22 239 -43 q 239 3 239 -1 q 190 -15 217 -15 q 142 7 163 -15 q 122 60 122 29 q 146 111 122 90 q 207 132 169 132 q 270 93 244 132 q 296 -4 296 54 q 260 -109 296 -62 q 154 -203 225 -156 l 136 -179 z "},"":{"ha":556,"x_min":67,"x_max":508,"o":"m 128 806 q 194 756 128 756 q 213 757 203 756 q 249 699 249 739 q 226 635 249 658 q 163 613 204 613 q 94 649 122 613 q 67 732 67 685 q 115 878 67 822 q 250 982 163 933 l 265 956 q 167 883 207 926 q 128 806 128 840 m 371 806 q 438 756 371 756 q 456 757 446 756 q 492 699 492 739 q 469 635 492 658 q 406 613 447 613 q 338 649 365 613 q 310 732 310 685 q 358 878 310 822 q 493 982 406 933 l 508 956 q 410 883 450 926 q 371 806 371 840 z "},"":{"ha":556,"x_min":56,"x_max":497,"o":"m 436 754 q 369 804 436 804 q 351 803 361 804 q 315 861 315 821 q 338 924 315 901 q 401 947 360 947 q 469 911 442 947 q 497 828 497 875 q 449 682 497 738 q 314 578 401 626 l 299 604 q 397 676 357 633 q 436 754 436 719 m 193 754 q 126 804 193 804 q 108 803 118 804 q 72 861 72 821 q 94 924 72 901 q 158 947 117 947 q 226 911 199 947 q 254 828 254 875 q 206 682 254 738 q 71 578 158 626 l 56 604 q 153 676 114 633 q 193 754 193 719 z "},"":{"ha":556,"x_min":49,"x_max":483,"o":"m 186 -51 q 119 -1 186 -1 q 101 -3 111 -1 q 65 56 65 15 q 88 119 65 96 q 151 142 110 142 q 219 106 192 142 q 247 22 247 69 q 199 -124 247 -68 q 64 -228 151 -179 l 49 -201 q 147 -129 107 -172 q 186 -51 186 -86 m 422 -51 q 356 -1 422 -1 q 338 -3 347 -1 q 301 56 301 15 q 324 119 301 96 q 387 142 346 142 q 456 106 428 142 q 483 22 483 69 q 435 -124 483 -68 q 300 -228 388 -179 l 285 -201 q 383 -129 343 -172 q 422 -51 422 -86 z "},"":{"ha":564,"x_min":36,"x_max":575,"o":"m 575 519 q 571 492 575 508 l 338 492 q 285 261 317 413 q 217 -206 218 -47 q 149 -218 188 -218 q 111 -153 111 -218 q 128 -12 111 -89 q 250 492 144 65 l 76 492 q 36 536 36 492 l 38 553 q 264 554 176 553 q 308 785 304 714 q 313 829 310 824 q 322 836 317 835 q 453 868 443 868 q 464 863 464 868 q 458 844 464 858 q 439 804 451 831 q 356 556 397 717 l 519 560 q 575 519 575 560 z "},"":{"ha":619,"x_min":13,"x_max":628,"o":"m 269 -206 q 202 -218 240 -218 q 164 -139 164 -218 q 211 129 164 -60 l 51 129 q 13 172 13 129 l 14 190 q 226 192 144 190 q 258 314 228 199 q 303 492 288 429 l 129 492 q 89 536 89 492 l 90 553 q 317 554 229 553 q 361 785 357 714 q 366 829 363 824 q 375 836 369 835 q 506 868 496 868 q 517 863 517 868 q 510 844 517 858 q 492 804 504 831 q 408 556 450 717 l 572 560 q 628 519 628 560 q 624 492 628 508 l 390 492 q 336 261 363 386 l 322 193 l 496 197 q 551 158 551 197 q 546 129 551 151 l 310 129 q 269 -206 271 -94 z "},"":{"ha":565,"x_min":111,"x_max":453,"o":"m 453 481 q 453 446 453 481 q 402 362 453 411 q 281 313 351 313 q 161 363 211 313 q 111 482 111 413 q 163 601 111 551 q 283 650 214 650 q 403 601 353 650 q 453 481 453 551 z "},"":{"ha":1389,"x_min":153,"x_max":1236,"o":"m 774 64 q 774 47 774 64 q 751 6 774 31 q 695 -18 728 -18 q 639 5 663 -18 q 615 60 615 28 q 637 116 615 92 q 691 140 658 140 q 749 119 724 140 q 774 64 774 97 m 1236 64 q 1236 47 1236 64 q 1213 6 1236 31 q 1158 -18 1190 -18 q 1101 5 1125 -18 q 1078 60 1078 28 q 1099 116 1078 92 q 1153 140 1121 140 q 1211 119 1186 140 q 1236 64 1236 97 m 311 64 q 311 47 311 64 q 288 6 311 31 q 233 -18 265 -18 q 176 5 200 -18 q 153 60 153 28 q 174 116 153 92 q 228 140 196 140 q 286 119 261 140 q 311 64 311 97 z "},"":{"ha":1444,"x_min":6,"x_max":1404,"o":"m 86 -12 q 42 -46 58 -46 q 6 -22 25 -46 l 888 947 q 925 974 913 974 q 965 950 947 974 l 86 -12 m 903 250 q 827 69 903 149 q 643 -11 751 -11 q 513 44 563 -11 q 464 178 464 100 q 538 365 464 285 q 725 446 613 446 q 853 386 803 446 q 903 250 903 326 m 515 188 q 558 111 515 139 q 669 83 601 83 q 794 124 738 83 q 851 242 851 164 q 811 323 851 292 q 704 354 771 354 q 576 309 638 354 q 515 188 515 264 m 496 740 q 420 559 496 639 q 236 479 344 479 q 106 535 156 479 q 57 668 57 590 q 131 856 57 775 q 318 936 206 936 q 446 876 396 936 q 496 740 496 817 m 108 678 q 151 601 108 629 q 263 574 194 574 q 388 614 331 574 q 444 732 444 654 q 404 813 444 782 q 297 844 364 844 q 169 799 231 844 q 108 678 108 754 m 1404 250 q 1328 69 1404 149 q 1144 -11 1253 -11 q 1015 44 1064 -11 q 965 178 965 100 q 1040 365 965 285 q 1226 446 1114 446 q 1354 386 1304 446 q 1404 250 1404 326 m 1017 188 q 1060 111 1017 139 q 1171 83 1103 83 q 1296 124 1239 83 q 1353 242 1353 164 q 1313 323 1353 292 q 1206 354 1272 354 q 1078 309 1139 354 q 1017 188 1017 264 z "},"":{"ha":319,"x_min":15,"x_max":318,"o":"m 307 532 q 318 508 318 518 q 289 452 318 479 q 208 383 260 425 q 121 307 156 340 q 176 231 142 272 q 224 167 210 189 q 239 133 239 144 q 236 111 239 122 q 211 82 233 100 q 125 194 174 138 q 46 278 76 250 l 15 307 q 307 532 171 407 z "},"":{"ha":414,"x_min":111,"x_max":413,"o":"m 122 82 q 111 106 111 96 q 140 162 111 135 q 221 231 169 189 q 307 307 272 272 q 253 383 288 342 q 205 447 219 425 q 190 481 190 469 q 193 503 190 492 q 218 532 196 514 q 304 420 256 476 q 383 336 353 364 l 413 307 q 122 82 258 207 z "},"":{"ha":608,"x_min":47,"x_max":603,"o":"m 128 8 q 85 -25 103 -25 q 47 -1 67 -25 l 526 639 q 563 667 549 667 q 603 643 588 667 l 128 8 z "},"":{"ha":746,"x_min":14,"x_max":778,"o":"m 100 283 l 103 335 l 56 335 q 14 378 14 335 l 15 392 l 108 392 q 143 521 125 469 l 94 521 q 61 538 71 521 q 56 578 51 554 l 168 578 q 372 845 243 740 q 613 950 501 950 q 687 942 657 950 q 725 925 717 933 l 733 917 l 738 939 q 758 951 739 951 q 778 939 778 951 q 744 740 747 788 q 721 726 743 726 q 699 740 699 726 l 703 803 q 700 812 701 806 q 691 833 699 818 q 674 858 683 847 q 603 888 649 888 q 288 581 390 888 l 499 585 q 554 544 554 585 q 550 521 554 533 l 271 521 q 246 394 256 474 l 460 399 q 515 363 515 399 q 511 335 515 351 l 242 335 q 442 64 242 64 q 628 153 550 64 q 636 132 636 144 q 559 34 636 86 q 375 -18 482 -18 q 169 65 239 -18 q 100 283 100 147 z "},"":{"ha":1147,"x_min":29,"x_max":1144,"o":"m 126 461 l 99 460 q 88 476 88 460 q 104 493 88 493 l 136 493 q 161 515 154 493 q 163 518 163 517 q 164 521 164 519 l 233 853 q 239 897 239 879 q 190 906 239 906 q 122 897 140 906 q 103 865 103 888 q 117 815 103 843 q 63 786 92 786 q 29 827 29 786 q 75 908 29 868 q 193 947 121 947 q 349 940 265 947 q 435 933 432 933 q 481 951 471 933 q 501 969 490 969 q 513 960 513 969 q 494 919 513 950 q 464 888 476 888 q 331 896 414 888 l 258 550 q 254 509 254 525 q 261 493 254 493 l 297 493 q 307 478 307 493 q 296 461 307 464 q 186 463 229 463 q 126 461 143 463 m 885 461 l 829 460 q 818 469 818 460 q 839 493 822 493 l 868 493 q 889 506 883 493 q 957 765 901 546 l 974 836 q 728 511 864 685 q 693 515 710 493 q 715 551 707 540 q 654 814 675 678 q 604 689 640 772 q 538 500 540 525 q 544 493 538 493 l 585 493 q 597 484 597 493 q 590 468 597 475 q 575 461 583 461 l 540 461 q 499 463 540 461 q 451 461 465 463 l 419 460 q 408 476 408 460 q 425 493 408 493 l 447 493 q 475 508 467 493 l 506 585 q 551 696 536 661 q 629 910 629 868 q 621 925 629 922 q 597 928 613 928 l 572 928 q 565 940 565 928 l 569 960 l 610 958 q 733 943 692 956 q 728 877 728 906 q 739 785 728 849 q 761 675 750 721 l 774 631 q 992 950 968 883 q 1040 949 1007 949 l 1129 953 q 1144 939 1144 957 l 1143 929 q 1128 915 1143 915 l 1097 917 q 1074 899 1079 917 q 1013 681 1039 796 q 988 529 988 565 q 990 493 988 493 l 1025 493 q 1039 478 1039 493 q 1019 461 1036 461 l 885 461 z "},"":{"ha":372,"x_min":18,"x_max":360,"o":"m 360 304 q 357 278 360 293 l 57 278 q 26 293 33 278 q 18 317 18 308 q 18 331 18 326 l 21 347 l 308 354 q 360 304 360 354 z "},"":{"ha":726,"x_min":-293,"x_max":775,"o":"m -187 -387 q -261 -363 -231 -387 q -293 -304 -292 -339 q -257 -250 -293 -269 q -217 -283 -231 -274 q -138 -314 -179 -314 q -60 -266 -97 -314 q 13 -123 -22 -218 q 78 70 49 -28 q 151 311 108 168 q 231 554 194 454 l 118 554 q 108 568 108 554 q 126 600 108 600 q 258 633 244 600 q 424 928 339 836 q 639 1021 508 1021 q 740 986 704 1021 q 775 905 775 951 q 750 835 775 858 q 694 811 725 811 q 635 818 663 811 q 643 874 643 854 q 575 947 643 947 q 465 868 514 947 q 354 608 417 789 l 524 608 q 668 656 621 608 q 682 664 676 664 q 693 638 693 664 q 596 386 693 613 q 499 113 499 160 q 513 92 499 92 q 570 126 535 92 q 613 160 606 160 q 626 146 626 160 q 597 94 626 132 q 515 19 568 57 q 415 -18 463 -18 q 382 -5 396 -18 q 368 31 368 8 q 464 313 368 82 q 563 554 560 543 l 336 554 q 281 390 317 503 q 214 184 244 276 q 137 -20 183 92 q 45 -208 90 -132 q -61 -335 0 -283 q -187 -387 -122 -387 z "},"":{"ha":738,"x_min":-293,"x_max":990,"o":"m -187 -387 q -261 -363 -231 -387 q -293 -304 -292 -339 q -257 -250 -293 -269 q -217 -283 -231 -274 q -138 -314 -179 -314 q -60 -266 -97 -314 q 13 -123 -22 -218 q 78 70 49 -28 q 151 311 108 168 q 231 554 194 454 l 118 554 q 108 568 108 554 q 126 600 108 600 q 258 633 244 600 q 422 905 333 822 q 631 988 510 988 q 756 929 710 988 q 929 1021 840 1021 q 974 1009 958 1021 q 990 981 990 997 q 938 933 990 944 q 882 949 904 949 q 739 769 825 949 q 592 390 653 589 q 531 121 531 192 q 551 92 531 92 q 628 156 571 92 q 698 219 685 219 q 711 205 711 219 q 674 138 711 190 q 577 34 638 86 q 467 -18 517 -18 q 417 39 417 -18 q 501 417 417 139 q 701 861 585 694 q 655 898 686 882 q 592 914 624 914 q 468 842 525 914 q 354 608 411 771 l 456 608 q 467 592 464 608 q 444 554 467 554 l 336 554 q 281 390 317 503 q 214 184 244 276 q 137 -20 183 92 q 45 -208 90 -132 q -61 -335 0 -283 q -187 -387 -122 -387 z "}}}
